G04 DipTrace 3.2.0.1*
G04 BottomMask.gbr*
%MOIN*%
G04 #@! TF.FileFunction,Soldermask,Bot*
G04 #@! TF.Part,Single*
%ADD31R,0.066929X0.066929*%
%ADD32C,0.066929*%
%ADD45C,0.055874*%
%ADD49O,0.149606X0.094488*%
%ADD53C,0.074803*%
%ADD54R,0.074803X0.074803*%
%ADD65C,0.070866*%
%ADD66R,0.070866X0.070866*%
%ADD70C,0.098425*%
%ADD72R,0.098425X0.098425*%
%FSLAX26Y26*%
G04*
G70*
G90*
G75*
G01*
G04 BotMask*
%LPD*%
D72*
X4067058Y1286131D3*
D70*
Y1148336D3*
D72*
X4035811Y1636094D3*
D70*
Y1498299D3*
D72*
X554927Y2111045D3*
D70*
Y2248840D3*
D72*
Y1817325D3*
D70*
Y1955121D3*
D66*
X2667205Y2954706D3*
D65*
Y2854706D3*
Y2754706D3*
Y2654706D3*
Y2554706D3*
Y2454706D3*
Y2354706D3*
Y2254706D3*
Y2154706D3*
Y2054706D3*
Y1954706D3*
Y1854706D3*
Y1754706D3*
Y1654706D3*
X2967205D3*
Y1754706D3*
Y1854706D3*
Y1954706D3*
Y2054706D3*
Y2154706D3*
Y2254706D3*
Y2354706D3*
Y2454706D3*
Y2554706D3*
Y2654706D3*
Y2754706D3*
Y2854706D3*
Y2954706D3*
D31*
X3523365Y1629845D3*
D32*
X3661160D3*
D31*
X3160903D3*
D32*
X3298698D3*
D31*
X1661060Y2129793D3*
D32*
X1759486D3*
D72*
X2710950Y479966D3*
D70*
X2848745D3*
D54*
X3092160Y1261134D3*
D53*
X3192160D3*
X3292160D3*
X3392160D3*
D54*
X3554612Y1267383D3*
D53*
X3654612D3*
X3754612D3*
X3854612D3*
D54*
X2186005Y2642239D3*
D53*
X2286005D3*
D54*
X3185900Y998709D3*
D53*
X3285900D3*
D54*
X3185900Y748693D3*
D53*
X3285900D3*
D54*
X3185900Y517509D3*
D53*
X3285900D3*
D54*
X3754591Y998709D3*
D53*
X3854591D3*
D54*
X3754591Y761186D3*
D53*
X3854591D3*
D54*
X3754591Y523664D3*
D53*
X3854591D3*
D54*
X2710950Y923669D3*
D53*
X2810950D3*
D54*
X2710950Y692444D3*
D53*
X2810950D3*
D49*
X1464890Y1786079D3*
X1384890Y2021079D3*
Y1551079D3*
X904890D3*
Y2021079D3*
X1211108Y779934D3*
X1131108Y1014934D3*
Y544934D3*
X651108D3*
Y1014934D3*
X1592318Y804932D3*
X1672318Y569932D3*
Y1039932D3*
X2152318D3*
Y569932D3*
X1273601Y2692234D3*
X1193601Y2927234D3*
Y2457234D3*
X713601D3*
Y2927234D3*
D72*
X554927Y1517357D3*
D70*
Y1655152D3*
D72*
Y1217388D3*
D70*
Y1355184D3*
D31*
X1748551Y1654843D3*
D32*
X1848551D3*
X1948551D3*
X2048551D3*
X2148551D3*
X2248551D3*
X2348551D3*
X2448551D3*
Y1954843D3*
X2348551D3*
X2248551D3*
X2148551D3*
X2048551D3*
X1948551D3*
X1848551D3*
X1748551D3*
D31*
Y1248635D3*
D32*
X1848551D3*
X1948551D3*
X2048551D3*
X2148551D3*
X2248551D3*
X2348551D3*
X2448551D3*
Y1548635D3*
X2348551D3*
X2248551D3*
X2148551D3*
X2048551D3*
X1948551D3*
X1848551D3*
X1748551D3*
D31*
X2667205Y1417367D3*
D32*
Y1317367D3*
Y1217367D3*
X2967205D3*
Y1317367D3*
Y1417367D3*
D54*
X4067058Y1879819D3*
D53*
Y1979819D3*
Y2079819D3*
Y2179819D3*
Y2279819D3*
Y2379819D3*
Y2479819D3*
Y2579819D3*
D54*
X1573570Y2898462D3*
D53*
X1673570D3*
X1773570D3*
X1873570D3*
D31*
X2442228Y2923459D3*
D32*
X2363488D3*
X2284748D3*
X2206008D3*
X2127268D3*
Y2844719D3*
X2206008D3*
X2284748D3*
X2363488D3*
X2442228D3*
D54*
X1573570Y2654738D3*
D53*
X1673570D3*
X1773570D3*
X1873570D3*
D54*
X1573570Y2404764D3*
D53*
X1673570D3*
X1773570D3*
X1873570D3*
D45*
X2179756Y2423512D3*
X2369756D3*
M02*
