G04 DipTrace 3.2.0.1*
G04 Bottom.gbr*
%MOIN*%
G04 #@! TF.FileFunction,Copper,L2,Bot*
G04 #@! TF.Part,Single*
G04 #@! TA.AperFunction,Conductor*
%ADD13C,0.011811*%
%ADD14C,0.021654*%
%ADD15C,0.015748*%
%ADD16C,0.035433*%
%ADD17C,0.03937*%
G04 #@! TA.AperFunction,CopperBalancing*
%ADD18C,0.025*%
G04 #@! TA.AperFunction,ComponentPad*
%ADD19R,0.090551X0.090551*%
%ADD20C,0.090551*%
%ADD23R,0.062992X0.062992*%
%ADD24C,0.062992*%
%ADD26R,0.059055X0.059055*%
%ADD27C,0.059055*%
%ADD31R,0.066929X0.066929*%
%ADD32C,0.066929*%
%ADD34O,0.141732X0.086614*%
%ADD37C,0.048*%
G04 #@! TA.AperFunction,ViaPad*
%ADD38C,0.031496*%
%FSLAX26Y26*%
G04*
G70*
G90*
G75*
G01*
G04 Bottom*
%LPD*%
X3564051Y2842218D2*
D13*
Y2429812D1*
X3549286Y2415047D1*
X2567373Y692776D2*
D14*
Y1051858D1*
X2592963Y1077449D1*
X2567373Y1103039D1*
X2423357D1*
X2397766Y1128630D1*
Y1278602D1*
X2423357Y1304193D1*
X2311333Y1416217D1*
X1637440D1*
X1611849Y1441807D1*
Y1995488D1*
X1661060Y2044699D1*
Y2129793D1*
X1673570Y2404764D2*
Y2654738D1*
X1672318Y569932D2*
X1404248D1*
X1378656Y595524D1*
Y932043D1*
X2667205Y2354706D2*
X2593434D1*
X2388483Y2559657D1*
X3273391Y2798472D2*
X3438558D1*
X3489333Y2747697D1*
Y2481976D1*
X2423357Y1304193D2*
X2448551Y1329387D1*
Y1548635D1*
X3160903Y1629845D2*
Y1730236D1*
X3160904Y1730238D1*
Y1836866D1*
X2592963Y1077449D2*
X2634255Y1036157D1*
X2929677D1*
X1384890Y2021079D2*
X1586259D1*
X1611849Y1995488D1*
X1673570Y2654738D2*
X1492370Y2835937D1*
X1219192D1*
X1193601Y2861528D1*
Y2927234D1*
X3489333Y2481976D2*
X3381223Y2373866D1*
Y2175665D1*
X2929677Y1036157D2*
Y1077449D1*
X3323723D1*
X3394172Y1007000D1*
X2363488Y2844719D2*
D16*
X2284748D1*
X3298698Y1629845D2*
X3373504Y1555039D1*
X3586354D1*
X3661160Y1629845D1*
X4067058Y1148336D2*
X3970849Y1244545D1*
Y1433337D1*
X4035811Y1498299D1*
X3543845Y2035665D2*
D15*
X3488491Y2091020D1*
X3326105D1*
X2448551Y1654843D2*
D16*
X2523470Y1579924D1*
Y1323554D1*
X2448551Y1248635D1*
X3326105Y2091020D2*
D15*
Y2277307D1*
X3223117Y2380295D1*
Y2424429D1*
X3213743Y2433803D1*
Y2504378D1*
X2127268Y2844719D2*
D16*
X2206008D1*
X4035811Y1498299D2*
X4129551Y1592039D1*
Y1729835D1*
X3854612D1*
Y1267383D1*
X2286005Y2642239D2*
D15*
Y2498504D1*
X2385984D1*
X2448478Y2436010D1*
Y2254706D1*
X2667205D1*
X2284748Y2844719D2*
X2286005Y2642239D1*
X3667097Y2425445D2*
X3821471Y2579819D1*
X4067058D1*
X3594042Y1890457D2*
X3667097Y1963512D1*
Y2425445D1*
X3661160Y1629845D2*
Y1823339D1*
X3594042Y1890457D1*
X1573570Y2404764D2*
Y2654738D1*
X1759486Y2129793D2*
Y2218848D1*
X1573570Y2404764D1*
X2004932Y2142480D2*
X1992244Y2129793D1*
X1759486D1*
X2967205Y1217367D2*
D16*
X2667205D1*
X3392160Y1261134D2*
Y1242417D1*
X3317896Y1168154D1*
X3016419D1*
X2967205Y1217367D1*
X3854612Y1267383D2*
X3754622Y1167394D1*
X3485900D1*
X3392160Y1261134D1*
X3661160Y1629845D2*
X3761150Y1729835D1*
X3854612D1*
X3223117Y2380295D2*
D15*
X3197528Y2354706D1*
X2967205D1*
X2206008Y2844719D2*
D16*
X2284748D1*
X2369756Y2423512D2*
D13*
X2278562D1*
X2252971Y2397921D1*
Y2332303D1*
X2430568Y2154706D1*
X2667205D1*
X2179756Y2423512D2*
Y2080299D1*
X2205349Y2054706D1*
X2667205D1*
Y1954706D2*
X2566114D1*
X2491707Y1880299D1*
X1974008D1*
X1748551Y1654843D1*
X2667205Y1854706D2*
X2048415D1*
X1848551Y1654843D1*
X2967205Y1417367D2*
X2923428D1*
X2828625Y1512171D1*
Y2380299D1*
X2773507Y2435417D1*
X2667205Y2654706D2*
X2773507D1*
Y2654705D1*
X2817189Y1417367D2*
Y1500735D1*
X2828625Y1512171D1*
X3751747Y2952457D2*
X3698314Y3005890D1*
X2854215D1*
X2828625Y2980299D1*
Y2580295D1*
X2803035Y2554706D1*
X2667205D1*
X4035811Y1636094D2*
D14*
X3907762Y1508046D1*
Y971150D1*
X3882172Y945559D1*
X3807740D1*
X3754591Y998709D1*
X3185900D2*
Y945559D1*
X3211495D1*
Y865819D1*
X3185900Y840224D1*
Y748693D1*
X3754591Y998709D2*
X3701440D1*
X3675849Y973118D1*
Y945559D1*
Y839928D1*
X3754591Y761186D1*
X3185900Y748693D2*
Y517509D1*
X3754591Y761186D2*
Y523664D1*
X3211495Y945559D2*
X3675849D1*
X2710950Y692444D2*
X2657798Y745596D1*
Y870517D1*
X2710950Y923669D1*
X3185900Y748693D2*
X2767199D1*
X2710950Y692444D1*
X2348551Y1654843D2*
D13*
X2248551D1*
X2148551D1*
X2048551Y1248635D2*
X1948551D1*
X1848551D2*
X1748551D1*
X1948551D2*
X1848551D1*
X4067058Y1879819D2*
Y1781772D1*
X3755684Y2647339D2*
X4094621D1*
X4120211Y2621748D1*
Y2032972D1*
X4067058Y1979819D1*
X3782070Y2280945D2*
X3785837D1*
Y2217283D1*
X3923302Y2079819D1*
X4067058D1*
X3942071Y2186037D2*
X4060840D1*
X4067058Y2179819D1*
Y2279819D2*
X3967068D1*
Y2279777D1*
X1317346Y1454864D2*
X1433774Y1338436D1*
Y902520D1*
X1459365Y876929D1*
X1750255D1*
X1762759Y864425D1*
X2272176D1*
X2297766Y890016D1*
Y1097547D1*
X3082160Y1580630D2*
X3216022D1*
Y1780220D1*
X3241613Y1805811D1*
X3594042D1*
X3241613D2*
Y1929115D1*
X3216022Y1954706D1*
X2967205D1*
X2242648Y919543D2*
X1581034D1*
X1555444Y945134D1*
Y1823480D1*
X1529853Y1849071D1*
X1284156D1*
X1258566Y1874661D1*
Y2153417D1*
X1284156Y2179008D1*
X1710273D1*
Y2106171D1*
X1735865Y2080579D1*
X2034459D1*
X2060050Y2106169D1*
Y2856241D1*
X2127268Y2923459D1*
X3016420Y1020933D2*
X2836479Y840992D1*
X2755829D1*
X1530562Y2084071D2*
X1309747D1*
X1284156Y2058480D1*
Y1958087D1*
X1309747Y1932496D1*
X1555444D1*
X1581034Y1906906D1*
Y1386689D1*
X1606625Y1361098D1*
X2199341D1*
X1814605Y2208535D2*
X2009396Y2403327D1*
Y2947083D1*
X2034987Y2972673D1*
X2156794D1*
X2206008Y2923459D1*
X2967205Y2054706D2*
X3041612Y1980299D1*
X3578814D1*
X3604404Y2005890D1*
Y2620075D1*
X3887573Y2903244D1*
X1773570Y2898462D2*
Y2654738D1*
X1852311Y2575996D1*
X1873570D1*
Y2404764D1*
X2773507Y2854705D2*
Y2980299D1*
X2747916Y3005890D1*
X2009396D1*
X1983806Y2980299D1*
Y2601587D1*
X1899160D1*
X1873570Y2575996D1*
Y2654738D2*
Y2898462D1*
X3117755Y600189D2*
X2622491D1*
X3445314Y1369402D2*
X3113601D1*
X3016420Y1466583D1*
X2916022D1*
X2890432Y1492173D1*
Y2877933D1*
X2967205Y2954706D1*
X1086121Y2817220D2*
X1123617Y2779724D1*
X1411087D1*
Y2454759D1*
X1423585D1*
X1873570Y2898462D2*
X1781803Y2990228D1*
X1103050D1*
X1086121Y2973299D1*
Y2817220D1*
X2667205Y1754706D2*
X2048415D1*
X1948551Y1654843D1*
X3285900Y748693D2*
D14*
Y517509D1*
X2048551Y1548635D2*
X1948551D1*
X3285900Y517509D2*
X3211777Y443386D1*
X3087818D1*
X2986274Y544929D1*
X2378475D1*
X2352885Y570520D1*
Y1161980D1*
X2327294Y1187571D1*
X1666967D1*
X1748551Y1548635D2*
Y1496930D1*
X1722959Y1471339D1*
X1666967D1*
X1848551Y1548635D2*
X1748551D1*
X1948551D2*
X1848551D1*
X3854591Y998709D2*
X3724669Y1128630D1*
X2599134D1*
X2573543Y1154220D1*
Y1678463D1*
X2547951Y1704055D1*
X2423357D1*
X2397766Y1678465D1*
Y1597850D1*
X2348551Y1548635D1*
X3854591Y761186D2*
Y523664D1*
X2248551Y1548635D2*
X2148551D1*
X2348551D2*
X2248551D1*
X554927Y1517357D2*
D17*
X636844D1*
X670566Y1551079D1*
X904890D1*
X2773507Y2325181D2*
D13*
Y1341972D1*
X2148551Y1248635D2*
X2248551D1*
X2348551D1*
X2967205Y2254706D2*
X3073507D1*
Y2254705D1*
X3866715Y2425953D2*
X3920581Y2479819D1*
X4067058D1*
X2967205Y1754706D2*
X3076262D1*
Y1754705D1*
X3726951Y2365591D2*
X3955613D1*
X3969841Y2379819D1*
X4067058D1*
X2123668Y2739291D2*
Y2054709D1*
X2098077Y2029118D1*
X1712243D1*
X1686652Y2003528D1*
Y1623441D1*
X1712243Y1597850D1*
X1991559D1*
X2048551Y1654843D1*
X2388483Y2739291D2*
X2484073D1*
X2599488Y2854706D1*
X2667205D1*
X2810950Y692444D2*
D14*
X2935927D1*
Y667446D1*
X2348551Y1954843D2*
X2248551D1*
X2148551D1*
X1928688Y2746228D2*
D13*
Y3005890D1*
X1954278Y3031480D1*
X3781274D1*
X3806865Y3005890D1*
Y2922929D1*
X3781274Y2897339D1*
X3129528D1*
X3103937Y2871748D1*
Y2591438D1*
X2967205Y2454706D1*
X3754612Y1267383D2*
X3701461Y1214232D1*
X3496495D1*
X3470904Y1239823D1*
Y1288693D1*
X3445314Y1314283D1*
X3292160D1*
X3040270D1*
X2992570Y1266583D1*
X2743979D1*
X2718388Y1292173D1*
Y1603522D1*
X2667205Y1654706D1*
X3292160Y1261134D2*
Y1314283D1*
X3216022Y1517764D2*
X2992795D1*
X2967205Y1543354D1*
Y1654706D1*
X3654612Y1267383D2*
X3480999Y1440996D1*
X3147743D1*
X3096566Y1492173D1*
X2941613D1*
X2916022Y1517764D1*
Y2503524D1*
X2967205Y2554706D1*
X2710950Y479966D2*
D17*
X2087835D1*
X1762869Y804932D1*
X1592318D1*
X554927Y2248840D2*
X461186D1*
Y1955121D1*
X554927D1*
Y1655152D2*
X461186D1*
Y1355184D1*
X554927D1*
X461186Y1955121D2*
Y1655152D1*
X1211108Y779934D2*
Y804932D1*
X1298598Y892423D1*
Y1323627D1*
X1161113Y1461113D1*
Y1779829D1*
X1103050Y1837892D1*
Y1844142D1*
Y2112864D1*
X1098619Y2117294D1*
X979882D1*
Y2543475D1*
X1128640Y2692234D1*
X1273601D1*
X1103050Y2112864D2*
X554927Y2111045D1*
X1103050Y1844142D2*
X1161113Y1786079D1*
X1464890D1*
D38*
X3942071Y2186037D3*
X2817189Y1417367D3*
X3549286Y2415047D3*
X3564051Y2842218D3*
X2567373Y692776D3*
X2929677Y1036157D3*
X3394172Y1007000D3*
X3489333Y2481976D3*
X3381223Y2175665D3*
X3273391Y2798472D3*
X2388483Y2559657D3*
X1378656Y932043D3*
X3160904Y1836866D3*
X3543845Y2035665D3*
X2004932Y2142480D3*
X3213743Y2504378D3*
X3594042Y1890457D3*
X3667097Y2425445D3*
X3326105Y2091020D3*
X2252971Y2332303D3*
X2773507Y2435417D3*
Y2654705D3*
X3751747Y2952457D3*
X4067058Y1781772D3*
X3755684Y2647339D3*
X3782070Y2280945D3*
X3967068Y2279777D3*
X2297766Y1097547D3*
X1317346Y1454864D3*
X3594042Y1805811D3*
X2242648Y919543D3*
X2755829Y840992D3*
X3016420Y1020933D3*
X3082160Y1580630D3*
X2199341Y1361098D3*
X1530562Y2084071D3*
X1814605Y2208535D3*
X3887573Y2903244D3*
X2773507Y2854705D3*
X1086121Y2817220D3*
X2622491Y600189D3*
X3117755D3*
X3445314Y1369402D3*
X1423585Y2454759D3*
X1666967Y1187571D3*
Y1471339D3*
X2773507Y1341972D3*
Y2325181D3*
X3073507Y2254705D3*
X3866715Y2425953D3*
X3076262Y1754705D3*
X3726951Y2365591D3*
X2123668Y2739291D3*
X2388483D3*
X2935927Y667446D3*
X1928688Y2746228D3*
X3216022Y1517764D3*
X446879Y3021686D2*
D18*
X1080833D1*
X1804019D2*
X1892605D1*
X3842958D2*
X4137340D1*
X446879Y2996818D2*
X656861D1*
X770339D2*
X1054888D1*
X1830214D2*
X1889052D1*
X3846475D2*
X4137340D1*
X446879Y2971949D2*
X623919D1*
X803281D2*
X1046491D1*
X1855082D2*
X1889052D1*
X3846475D2*
X4137340D1*
X446879Y2947080D2*
X611719D1*
X815481D2*
X1046491D1*
X1295504D2*
X1506383D1*
X2505483D2*
X2601999D1*
X2868236D2*
X2902457D1*
X3031940D2*
X3702137D1*
X3846475D2*
X3868209D1*
X3906940D2*
X4137340D1*
X446879Y2922211D2*
X609171D1*
X818029D2*
X1046491D1*
X1298016D2*
X1506383D1*
X2049036D2*
X2064023D1*
X2505483D2*
X2601999D1*
X2868236D2*
X2879707D1*
X3023328D2*
X3099390D1*
X3933028D2*
X4137340D1*
X446879Y2897343D2*
X615271D1*
X811929D2*
X1046491D1*
X1291916D2*
X1506383D1*
X2505483D2*
X2601999D1*
X3015684D2*
X3074558D1*
X3936652D2*
X4137340D1*
X446879Y2872474D2*
X632998D1*
X794202D2*
X1046491D1*
X2505483D2*
X2562240D1*
X3029858D2*
X3064331D1*
X3925564D2*
X4137340D1*
X446879Y2847605D2*
X1046491D1*
X1125736D2*
X1151417D1*
X1716031D2*
X1731090D1*
X1816040D2*
X1831099D1*
X2505411D2*
X2537372D1*
X3032012D2*
X3064331D1*
X3143575D2*
X3514893D1*
X3613192D2*
X3776919D1*
X3886916D2*
X4137340D1*
X446879Y2822736D2*
X1036982D1*
X1135604D2*
X1170435D1*
X1567542D2*
X1733961D1*
X1813205D2*
X1833934D1*
X2501356D2*
X2512504D1*
X2723659D2*
X2736601D1*
X3023650D2*
X3064331D1*
X3143575D2*
X3230690D1*
X3476258D2*
X3518804D1*
X3609280D2*
X3752051D1*
X3862049D2*
X4137340D1*
X446879Y2797867D2*
X1040822D1*
X1592410D2*
X1733961D1*
X1813205D2*
X1833934D1*
X2597633D2*
X2619224D1*
X2715190D2*
X2788992D1*
X3015218D2*
X3064331D1*
X3143575D2*
X3223944D1*
X3501125D2*
X3524438D1*
X3603682D2*
X3727184D1*
X3837181D2*
X4137340D1*
X446879Y2772999D2*
X1067807D1*
X1450703D2*
X1493357D1*
X1617277D2*
X1733961D1*
X1813205D2*
X1833934D1*
X2158877D2*
X2243588D1*
X2326780D2*
X2353286D1*
X2572766D2*
X2604726D1*
X2729687D2*
X2788992D1*
X3029679D2*
X3064331D1*
X3143575D2*
X3231444D1*
X3603682D2*
X3702316D1*
X3812313D2*
X4137340D1*
X446879Y2748130D2*
X1101610D1*
X1450703D2*
X1518225D1*
X1642145D2*
X1733961D1*
X1813205D2*
X1833934D1*
X2172298D2*
X2243767D1*
X2326923D2*
X2339865D1*
X2547898D2*
X2602322D1*
X2732056D2*
X2788992D1*
X3032083D2*
X3064331D1*
X3143575D2*
X3426941D1*
X3603682D2*
X3677448D1*
X3787445D2*
X4137340D1*
X446879Y2723261D2*
X1085175D1*
X1450703D2*
X1543093D1*
X1667013D2*
X1733961D1*
X1813205D2*
X1833934D1*
X2170325D2*
X2243911D1*
X2327103D2*
X2341839D1*
X2523030D2*
X2610432D1*
X2723982D2*
X2788992D1*
X3023973D2*
X3064331D1*
X3143575D2*
X3444775D1*
X3603682D2*
X3652581D1*
X3762578D2*
X4137340D1*
X446879Y2698392D2*
X1060307D1*
X1450703D2*
X1506383D1*
X1923800D2*
X1944170D1*
X2327246D2*
X2362903D1*
X2414086D2*
X2619726D1*
X2714688D2*
X2753753D1*
X3014715D2*
X3064331D1*
X3143575D2*
X3444775D1*
X3603682D2*
X3627713D1*
X3737710D2*
X4137340D1*
X446879Y2673524D2*
X1035439D1*
X1450703D2*
X1506383D1*
X2345116D2*
X2604870D1*
X3029535D2*
X3064331D1*
X3143575D2*
X3444775D1*
X4123429D2*
X4137340D1*
X446879Y2648655D2*
X1010571D1*
X1450703D2*
X1506383D1*
X2352867D2*
X2602286D1*
X3032119D2*
X3064331D1*
X3143575D2*
X3444775D1*
X3687974D2*
X3706227D1*
X446879Y2623786D2*
X985704D1*
X1134671D2*
X1214071D1*
X1333146D2*
X1371459D1*
X1450703D2*
X1506383D1*
X2350499D2*
X2610145D1*
X3024261D2*
X3064331D1*
X3143575D2*
X3444775D1*
X3663107D2*
X3712543D1*
X446879Y2598917D2*
X960836D1*
X1109803D2*
X1371459D1*
X1450703D2*
X1506383D1*
X1718112D2*
X1738410D1*
X2336540D2*
X2360212D1*
X2416741D2*
X2620228D1*
X2714185D2*
X2788992D1*
X3014177D2*
X3056401D1*
X3143575D2*
X3444775D1*
X3644016D2*
X3782804D1*
X446879Y2574049D2*
X936686D1*
X1084936D2*
X1371459D1*
X1450703D2*
X1531969D1*
X1615160D2*
X1629035D1*
X1718112D2*
X1799270D1*
X2163291D2*
X2244413D1*
X2327605D2*
X2341265D1*
X2436047D2*
X2605049D1*
X3139233D2*
X3444775D1*
X3644016D2*
X3757901D1*
X446879Y2549180D2*
X926818D1*
X1060068D2*
X1371459D1*
X1450703D2*
X1531969D1*
X1615160D2*
X1629035D1*
X1718112D2*
X1824138D1*
X1913178D2*
X1969792D1*
X2163291D2*
X2244413D1*
X2327605D2*
X2340188D1*
X2460915D2*
X2602250D1*
X3116662D2*
X3197138D1*
X3230343D2*
X3444775D1*
X3644016D2*
X3733033D1*
X446879Y2524311D2*
X651084D1*
X776116D2*
X926495D1*
X1035200D2*
X1131071D1*
X1256139D2*
X1371459D1*
X1450703D2*
X1531969D1*
X1615160D2*
X1629035D1*
X1718112D2*
X1833934D1*
X1913178D2*
X1969792D1*
X2163291D2*
X2244413D1*
X2485782D2*
X2609858D1*
X2826862D2*
X2850820D1*
X3091795D2*
X3168718D1*
X3258764D2*
X3444775D1*
X3644016D2*
X3708165D1*
X3823760D2*
X4017594D1*
X446879Y2499442D2*
X622125D1*
X805075D2*
X926495D1*
X1033298D2*
X1102112D1*
X1285062D2*
X1371459D1*
X1450703D2*
X1531969D1*
X1615160D2*
X1629035D1*
X1718112D2*
X1833934D1*
X1913178D2*
X1969792D1*
X2163291D2*
X2244413D1*
X2510650D2*
X2620767D1*
X2713647D2*
X2850820D1*
X3066927D2*
X3164556D1*
X3262962D2*
X3443232D1*
X3644016D2*
X3683297D1*
X3798892D2*
X3885218D1*
X446879Y2474573D2*
X611073D1*
X816127D2*
X926495D1*
X1033298D2*
X1091060D1*
X1296150D2*
X1371459D1*
X1468681D2*
X1531969D1*
X1615160D2*
X1629035D1*
X1718112D2*
X1833934D1*
X1913178D2*
X1969792D1*
X2203266D2*
X2252595D1*
X2535518D2*
X2605229D1*
X2729185D2*
X2745069D1*
X2801922D2*
X2850820D1*
X3042059D2*
X3172163D1*
X3255319D2*
X3419979D1*
X3644016D2*
X3658430D1*
X3774025D2*
X3860350D1*
X446879Y2449705D2*
X609386D1*
X817814D2*
X926495D1*
X1033298D2*
X1089409D1*
X1297801D2*
X1371818D1*
X1472772D2*
X1506383D1*
X1922580D2*
X1969792D1*
X2230861D2*
X2249760D1*
X2560386D2*
X2602179D1*
X2820761D2*
X2850820D1*
X3032227D2*
X3172163D1*
X3255426D2*
X3395111D1*
X3749157D2*
X3823712D1*
X446879Y2424836D2*
X616420D1*
X810780D2*
X926495D1*
X1033298D2*
X1096442D1*
X1290767D2*
X1384879D1*
X1462294D2*
X1506383D1*
X1937544D2*
X1969792D1*
X2585253D2*
X2609571D1*
X2839098D2*
X2850820D1*
X3024835D2*
X3173204D1*
X3264720D2*
X3370244D1*
X3724253D2*
X3817253D1*
X3920612D2*
X4018097D1*
X446879Y2399967D2*
X635869D1*
X791367D2*
X926495D1*
X1033298D2*
X1115856D1*
X1271354D2*
X1506383D1*
X1940558D2*
X1951024D1*
X2610121D2*
X2621305D1*
X2713109D2*
X2740189D1*
X3013101D2*
X3181529D1*
X3264720D2*
X3345771D1*
X3469296D2*
X3502298D1*
X446879Y2375098D2*
X926495D1*
X1033298D2*
X1506383D1*
X2292582D2*
X2340691D1*
X2398799D2*
X2406896D1*
X2490053D2*
X2511069D1*
X2729005D2*
X2778836D1*
X3286107D2*
X3336692D1*
X3444428D2*
X3522106D1*
X446879Y2350230D2*
X926495D1*
X1033298D2*
X1506383D1*
X1710863D2*
X1736293D1*
X1810837D2*
X1836302D1*
X2011286D2*
X2020418D1*
X2298898D2*
X2406897D1*
X2490053D2*
X2535936D1*
X3310975D2*
X3336692D1*
X3425769D2*
X3564772D1*
X446879Y2325361D2*
X926495D1*
X1033298D2*
X1595197D1*
X1710756D2*
X1876421D1*
X1986418D2*
X2020424D1*
X2314902D2*
X2406897D1*
X2490053D2*
X2560804D1*
X3425769D2*
X3564772D1*
X3753678D2*
X3764324D1*
X3799825D2*
X3953254D1*
X3980861D2*
X4018635D1*
X446879Y2300492D2*
X495992D1*
X613848D2*
X926495D1*
X1033298D2*
X1620064D1*
X1735624D2*
X1851553D1*
X1961550D2*
X2020424D1*
X2339770D2*
X2406897D1*
X2490053D2*
X2621843D1*
X2712570D2*
X2731039D1*
X3012562D2*
X3060563D1*
X3086448D2*
X3245151D1*
X3425769D2*
X3564772D1*
X3708680D2*
X3736872D1*
X3827277D2*
X3922430D1*
X629063Y2275623D2*
X926495D1*
X1033298D2*
X1644932D1*
X1760491D2*
X1826685D1*
X1936683D2*
X2020424D1*
X2219378D2*
X2254640D1*
X2364637D2*
X2406897D1*
X3118062D2*
X3270019D1*
X3425769D2*
X3564772D1*
X3708680D2*
X3732925D1*
X3831224D2*
X3917801D1*
X633907Y2250755D2*
X926495D1*
X1033298D2*
X1669800D1*
X1911815D2*
X2020424D1*
X2219378D2*
X2279508D1*
X2389505D2*
X2407076D1*
X3122798D2*
X3284516D1*
X3425769D2*
X3564772D1*
X3708680D2*
X3743583D1*
X3825447D2*
X3927633D1*
X630391Y2225886D2*
X926495D1*
X1033298D2*
X1694668D1*
X1886947D2*
X2020424D1*
X2219378D2*
X2304376D1*
X2725417D2*
X2733906D1*
X3113074D2*
X3284516D1*
X3425769D2*
X3564772D1*
X3708680D2*
X3746202D1*
X3832229D2*
X3914715D1*
X3969414D2*
X4019137D1*
X617113Y2201017D2*
X926495D1*
X1033298D2*
X1251175D1*
X1863479D2*
X2020424D1*
X2219378D2*
X2329243D1*
X2439241D2*
X2622417D1*
X2711996D2*
X2733874D1*
X3011988D2*
X3284516D1*
X3425769D2*
X3564772D1*
X3708680D2*
X3749970D1*
X3857097D2*
X3895050D1*
X633907Y2176148D2*
X926495D1*
X1033298D2*
X1226702D1*
X1851099D2*
X1969684D1*
X2219378D2*
X2354111D1*
X3028638D2*
X3284516D1*
X3430685D2*
X3564772D1*
X3708680D2*
X3771967D1*
X3881964D2*
X3893650D1*
X1139121Y2151280D2*
X1218951D1*
X2219378D2*
X2378979D1*
X3032334D2*
X3284516D1*
X3423867D2*
X3564772D1*
X3708680D2*
X3796835D1*
X1154623Y2126411D2*
X1218951D1*
X1298195D2*
X1507747D1*
X1553368D2*
X1597816D1*
X2219378D2*
X2404026D1*
X2725668D2*
X2733899D1*
X3025660D2*
X3284516D1*
X3507585D2*
X3564772D1*
X3708680D2*
X3821703D1*
X3931700D2*
X4019676D1*
X1156453Y2101542D2*
X1218951D1*
X1576657D2*
X1597816D1*
X2219378D2*
X2622991D1*
X2711422D2*
X2733874D1*
X3011414D2*
X3277842D1*
X3535754D2*
X3564772D1*
X3708680D2*
X3846570D1*
X1156453Y2076673D2*
X1218951D1*
X1579456D2*
X1597816D1*
X3028459D2*
X3278883D1*
X3708680D2*
X3871438D1*
X633907Y2051804D2*
X806929D1*
X1002833D2*
X1049649D1*
X1156453D2*
X1218951D1*
X3032334D2*
X3297758D1*
X3354431D2*
X3469930D1*
X3708680D2*
X3896449D1*
X514592Y2026936D2*
X526099D1*
X583777D2*
X800541D1*
X1009256D2*
X1049649D1*
X1156453D2*
X1218951D1*
X2150911D2*
X2178207D1*
X2725919D2*
X2733895D1*
X3049989D2*
X3494798D1*
X3708680D2*
X4020250D1*
X617831Y2002067D2*
X802766D1*
X1006995D2*
X1049649D1*
X1156453D2*
X1218951D1*
X2189271D2*
X2207847D1*
X2289245D2*
X2307857D1*
X2389254D2*
X2407830D1*
X2489263D2*
X2623601D1*
X2710812D2*
X2733874D1*
X3708680D2*
X4003815D1*
X630678Y1977198D2*
X814608D1*
X995189D2*
X1049649D1*
X1156453D2*
X1218951D1*
X1475176D2*
X1567315D1*
X2507528D2*
X2533604D1*
X3708680D2*
X3999939D1*
X633871Y1952329D2*
X846078D1*
X963719D2*
X1049649D1*
X1156453D2*
X1218951D1*
X3707065D2*
X4006004D1*
X4128094D2*
X4137340D1*
X628740Y1927461D2*
X1049649D1*
X1156453D2*
X1218951D1*
X2726206D2*
X2733902D1*
X3281227D2*
X3562619D1*
X3688836D2*
X3999868D1*
X613023Y1902592D2*
X1049649D1*
X1156453D2*
X1218951D1*
X1782022D2*
X1815059D1*
X1882031D2*
X1915068D1*
X2568998D2*
X2624212D1*
X2710202D2*
X2733874D1*
X3010194D2*
X3201983D1*
X3281227D2*
X3546184D1*
X3663968D2*
X3999868D1*
X633907Y1877723D2*
X1049649D1*
X1156453D2*
X1218951D1*
X1726258D2*
X1916432D1*
X3028028D2*
X3135238D1*
X3186565D2*
X3201983D1*
X3281227D2*
X3546327D1*
X3664542D2*
X3999868D1*
X633907Y1852854D2*
X1049649D1*
X1168833D2*
X1226020D1*
X1726258D2*
X1891564D1*
X3032406D2*
X3114246D1*
X3281227D2*
X3563408D1*
X3689410D2*
X3999868D1*
X633907Y1827986D2*
X1050618D1*
X1726258D2*
X1866696D1*
X3026449D2*
X3112272D1*
X3702472D2*
X3999868D1*
X633907Y1803117D2*
X1063393D1*
X1726258D2*
X1841829D1*
X2051835D2*
X2624822D1*
X2709556D2*
X2733874D1*
X3009584D2*
X3116363D1*
X3702759D2*
X4022726D1*
X4111408D2*
X4137340D1*
X633907Y1778248D2*
X1088225D1*
X1726258D2*
X1816961D1*
X3702759D2*
X3751549D1*
X633907Y1753379D2*
X1107710D1*
X1726258D2*
X1792093D1*
X3255642D2*
X3619567D1*
X3702759D2*
X3713009D1*
X514592Y1728510D2*
X530764D1*
X579112D2*
X1107710D1*
X1214513D2*
X1387499D1*
X1726258D2*
X1767225D1*
X3255642D2*
X3619567D1*
X616575Y1703642D2*
X1107710D1*
X1214513D2*
X1515821D1*
X2087217D2*
X2109883D1*
X2187226D2*
X2209893D1*
X2287235D2*
X2309866D1*
X2609726D2*
X2625467D1*
X2708910D2*
X2733874D1*
X3008938D2*
X3116363D1*
X3255642D2*
X3619567D1*
X630175Y1678773D2*
X1107710D1*
X1214513D2*
X1515821D1*
X3027598D2*
X3097667D1*
X3337207D2*
X3460134D1*
X3586602D2*
X3619567D1*
X3781776D2*
X3803186D1*
X3906043D2*
X3956807D1*
X633907Y1653904D2*
X1107710D1*
X1214513D2*
X1515821D1*
X3032406D2*
X3097667D1*
X3356979D2*
X3460134D1*
X3586602D2*
X3602881D1*
X3756908D2*
X3803186D1*
X3906043D2*
X3956807D1*
X629314Y1629035D2*
X1107710D1*
X1214513D2*
X1515821D1*
X3026916D2*
X3097667D1*
X3371225D2*
X3460134D1*
X3732040D2*
X3803186D1*
X3906043D2*
X3956807D1*
X614458Y1604167D2*
X822538D1*
X987259D2*
X1107710D1*
X1214513D2*
X1302525D1*
X1467246D2*
X1515821D1*
X2084561D2*
X2112575D1*
X2184535D2*
X2212548D1*
X2284544D2*
X2312557D1*
X2618087D2*
X2627592D1*
X3006821D2*
X3039033D1*
X3396092D2*
X3460134D1*
X3718727D2*
X3803186D1*
X3906043D2*
X3941915D1*
X1003909Y1579298D2*
X1107710D1*
X1214513D2*
X1285839D1*
X1483932D2*
X1515821D1*
X1656391D2*
X1675792D1*
X2618087D2*
X2678755D1*
X3006821D2*
X3032717D1*
X3697340D2*
X3803186D1*
X3906043D2*
X3917047D1*
X1009399Y1554429D2*
X1107710D1*
X1214513D2*
X1280385D1*
X1489386D2*
X1515821D1*
X1656391D2*
X1685589D1*
X2618087D2*
X2678755D1*
X3247855D2*
X3302423D1*
X3657437D2*
X3803186D1*
X1006313Y1529560D2*
X1107710D1*
X1214513D2*
X1283471D1*
X1486300D2*
X1515821D1*
X1656391D2*
X1688388D1*
X2618087D2*
X2678755D1*
X3263967D2*
X3327290D1*
X3632569D2*
X3803186D1*
X993287Y1504692D2*
X1107710D1*
X1214513D2*
X1296497D1*
X1473274D2*
X1515821D1*
X1793110D2*
X1804114D1*
X1892976D2*
X1904124D1*
X1992985D2*
X2004097D1*
X2092994D2*
X2104104D1*
X2193003D2*
X2204090D1*
X2292977D2*
X2304125D1*
X2392986D2*
X2403990D1*
X2618087D2*
X2678755D1*
X3263644D2*
X3803186D1*
X4114530D2*
X4137340D1*
X673739Y1479823D2*
X853004D1*
X956757D2*
X1107710D1*
X1216882D2*
X1275074D1*
X1436780D2*
X1515821D1*
X1789450D2*
X2403990D1*
X2618087D2*
X2678755D1*
X3246204D2*
X3803186D1*
X4112520D2*
X4137340D1*
X633907Y1454954D2*
X1108069D1*
X1241749D2*
X1267897D1*
X1372260D2*
X1515821D1*
X2330189D2*
X2403990D1*
X3522046D2*
X3803186D1*
X4101324D2*
X4137340D1*
X514592Y1430085D2*
X536900D1*
X572940D2*
X1118260D1*
X1266617D2*
X1274939D1*
X1397128D2*
X1515821D1*
X2359434D2*
X2403990D1*
X3546914D2*
X3803186D1*
X4072904D2*
X4137340D1*
X615283Y1405217D2*
X1142518D1*
X1291485D2*
X1311999D1*
X1421996D2*
X1515821D1*
X2384302D2*
X2403990D1*
X2865042D2*
X2880568D1*
X3571781D2*
X3803186D1*
X4022272D2*
X4137340D1*
X629673Y1380348D2*
X1167385D1*
X1316353D2*
X1336866D1*
X1446863D2*
X1515821D1*
X2848572D2*
X2916560D1*
X3017873D2*
X3047645D1*
X3596649D2*
X3803186D1*
X4022272D2*
X4137340D1*
X633907Y1355479D2*
X1192253D1*
X1340790D2*
X1361734D1*
X1469255D2*
X1515821D1*
X2248480D2*
X2310117D1*
X2820977D2*
X2917421D1*
X3017012D2*
X3072513D1*
X3492657D2*
X3511520D1*
X3621517D2*
X3803186D1*
X629852Y1330610D2*
X1217121D1*
X1351519D2*
X1386602D1*
X1473382D2*
X1515821D1*
X2237572D2*
X2334985D1*
X2821587D2*
X2905436D1*
X3670750D2*
X3738487D1*
X3770759D2*
X3803186D1*
X615786Y1305741D2*
X1241989D1*
X1351986D2*
X1394137D1*
X1473382D2*
X1515821D1*
X1595065D2*
X1685302D1*
X1811806D2*
X1825358D1*
X1871768D2*
X1925331D1*
X1971741D2*
X2025340D1*
X2071751D2*
X2125350D1*
X2171760D2*
X2225359D1*
X2271769D2*
X2325332D1*
X2805905D2*
X2905077D1*
X446879Y1280873D2*
X475933D1*
X633907D2*
X1245182D1*
X1351986D2*
X1394137D1*
X1473382D2*
X1515821D1*
X1595065D2*
X1685302D1*
X446879Y1256004D2*
X475933D1*
X633907D2*
X1245182D1*
X1351986D2*
X1394137D1*
X1473382D2*
X1515821D1*
X1595065D2*
X1685302D1*
X446879Y1231135D2*
X475933D1*
X633907D2*
X1245182D1*
X1351986D2*
X1394137D1*
X1473382D2*
X1515821D1*
X1595065D2*
X1646906D1*
X2509215D2*
X2529011D1*
X446879Y1206266D2*
X475933D1*
X633907D2*
X1245182D1*
X1351986D2*
X1394137D1*
X1473382D2*
X1515821D1*
X1595065D2*
X1621392D1*
X2494574D2*
X2529011D1*
X4119518D2*
X4137340D1*
X446879Y1181398D2*
X475933D1*
X633907D2*
X1245182D1*
X1351986D2*
X1394137D1*
X1473382D2*
X1515821D1*
X1595065D2*
X1617911D1*
X2442327D2*
X2529011D1*
X3840339D2*
X3863221D1*
X3952297D2*
X3962297D1*
X446879Y1156529D2*
X475933D1*
X633907D2*
X1245182D1*
X1351986D2*
X1394137D1*
X1473382D2*
X1515821D1*
X1595065D2*
X1629215D1*
X2442327D2*
X2529011D1*
X3815471D2*
X3863221D1*
X3952297D2*
X3987165D1*
X446879Y1131660D2*
X1245182D1*
X1351986D2*
X1394137D1*
X1473382D2*
X1515821D1*
X1595065D2*
X2263001D1*
X3790567D2*
X3863221D1*
X3952297D2*
X3989892D1*
X446879Y1106791D2*
X1245182D1*
X1351986D2*
X1394137D1*
X1473382D2*
X1515821D1*
X1595065D2*
X1609335D1*
X1735301D2*
X2089358D1*
X2215287D2*
X2249222D1*
X3808474D2*
X3863221D1*
X3952297D2*
X4000334D1*
X446879Y1081923D2*
X588394D1*
X713821D2*
X1068381D1*
X1193808D2*
X1245182D1*
X1351986D2*
X1394137D1*
X1473382D2*
X1515821D1*
X1763936D2*
X2060686D1*
X2650455D2*
X2885377D1*
X3381201D2*
X3709421D1*
X3833341D2*
X3863221D1*
X3952297D2*
X4026601D1*
X4107496D2*
X4137340D1*
X446879Y1057054D2*
X559579D1*
X742636D2*
X1039566D1*
X1222659D2*
X1245182D1*
X1351986D2*
X1394137D1*
X1473382D2*
X1515821D1*
X1774917D2*
X2049742D1*
X2397436D2*
X2523162D1*
X3406068D2*
X3687424D1*
X3952297D2*
X4137340D1*
X446879Y1032185D2*
X548563D1*
X753653D2*
X1028549D1*
X1233676D2*
X1245182D1*
X1351986D2*
X1394137D1*
X1473382D2*
X1515821D1*
X1776496D2*
X2048127D1*
X2397436D2*
X2522839D1*
X3064523D2*
X3118731D1*
X3436319D2*
X3673501D1*
X3952297D2*
X4137340D1*
X446879Y1007316D2*
X546912D1*
X755303D2*
X1026899D1*
X1235290D2*
X1245182D1*
X1351986D2*
X1394137D1*
X1473382D2*
X1515821D1*
X1769391D2*
X2055268D1*
X2249377D2*
X2258167D1*
X2397436D2*
X2522839D1*
X3063877D2*
X3118731D1*
X3443639D2*
X3648095D1*
X3952297D2*
X4137340D1*
X446879Y982448D2*
X553981D1*
X748234D2*
X1033968D1*
X1228221D2*
X1245182D1*
X1351986D2*
X1394137D1*
X1473382D2*
X1515821D1*
X1749798D2*
X2074825D1*
X2229821D2*
X2258157D1*
X2397436D2*
X2522839D1*
X2611915D2*
X2643768D1*
X2840462D2*
X2922947D1*
X3045827D2*
X3118731D1*
X3952297D2*
X4137340D1*
X446879Y957579D2*
X573466D1*
X728749D2*
X1053453D1*
X1208736D2*
X1245182D1*
X1473382D2*
X1515821D1*
X1598008D2*
X2212584D1*
X2397436D2*
X2522839D1*
X2611915D2*
X2643768D1*
X2868523D2*
X2898080D1*
X3008077D2*
X3118731D1*
X3950073D2*
X4137340D1*
X446879Y932710D2*
X1245182D1*
X1473382D2*
X1517974D1*
X2397436D2*
X2522839D1*
X2611915D2*
X2643768D1*
X2983209D2*
X3143384D1*
X3720378D2*
X3758618D1*
X3931269D2*
X4137340D1*
X446879Y907841D2*
X1239548D1*
X2397436D2*
X2522839D1*
X2611915D2*
X2633147D1*
X2958341D2*
X3164843D1*
X3720378D2*
X3786680D1*
X3903244D2*
X4137340D1*
X446879Y882972D2*
X1214645D1*
X2397436D2*
X2522839D1*
X2933474D2*
X3166673D1*
X3256036D2*
X3631301D1*
X3720378D2*
X4137340D1*
X446879Y858104D2*
X1189777D1*
X2397436D2*
X2522839D1*
X2908606D2*
X3145358D1*
X3255319D2*
X3631301D1*
X3720378D2*
X4137340D1*
X446879Y833235D2*
X1128953D1*
X1313913D2*
X1334103D1*
X1423216D2*
X1493321D1*
X2294807D2*
X2308359D1*
X2397436D2*
X2522839D1*
X2883738D2*
X3141374D1*
X3240857D2*
X3631839D1*
X3744492D2*
X4137340D1*
X446879Y808366D2*
X1112160D1*
X1310037D2*
X1334103D1*
X1423216D2*
X1487831D1*
X1833910D2*
X2308359D1*
X2397436D2*
X2522839D1*
X2702343D2*
X2719556D1*
X2856681D2*
X3118731D1*
X3313344D2*
X3645440D1*
X3901342D2*
X4137340D1*
X446879Y783497D2*
X1106598D1*
X1315599D2*
X1334103D1*
X1423216D2*
X1490881D1*
X1858778D2*
X2308359D1*
X2397436D2*
X2522839D1*
X2702343D2*
X2741122D1*
X3342912D2*
X3670307D1*
X3917813D2*
X4137340D1*
X446879Y758629D2*
X1109648D1*
X1312585D2*
X1334103D1*
X1423216D2*
X1503871D1*
X1883646D2*
X2308359D1*
X2397436D2*
X2522839D1*
X2706721D2*
X2715165D1*
X3352314D2*
X3687424D1*
X3921724D2*
X4137340D1*
X446879Y733760D2*
X1122566D1*
X1299667D2*
X1334103D1*
X1423216D2*
X1540150D1*
X1644478D2*
X1759546D1*
X1908514D2*
X2308359D1*
X2397436D2*
X2522839D1*
X3351345D2*
X3687424D1*
X3915660D2*
X4137340D1*
X446879Y708891D2*
X1158558D1*
X1263675D2*
X1334103D1*
X1423216D2*
X1784414D1*
X1933381D2*
X2308359D1*
X2397436D2*
X2520757D1*
X2613997D2*
X2632537D1*
X3339395D2*
X3687424D1*
X3899117D2*
X4137340D1*
X446879Y684022D2*
X1334103D1*
X1423216D2*
X1809282D1*
X1958249D2*
X2308359D1*
X2397436D2*
X2518748D1*
X2616006D2*
X2643768D1*
X2982384D2*
X3118731D1*
X3330460D2*
X3710031D1*
X3799144D2*
X3810040D1*
X3899117D2*
X4137340D1*
X446879Y659154D2*
X1334103D1*
X1423216D2*
X1834149D1*
X1983117D2*
X2308359D1*
X2397436D2*
X2532097D1*
X2602657D2*
X2643768D1*
X2984644D2*
X3141374D1*
X3230451D2*
X3241382D1*
X3330460D2*
X3710031D1*
X3799144D2*
X3810040D1*
X3899117D2*
X4137340D1*
X446879Y634285D2*
X1334103D1*
X1423216D2*
X1604670D1*
X1739965D2*
X1859017D1*
X2007984D2*
X2084693D1*
X2219952D2*
X2308359D1*
X2397436D2*
X2587681D1*
X3230451D2*
X3241382D1*
X3330460D2*
X3710031D1*
X3799144D2*
X3810040D1*
X3899117D2*
X4137340D1*
X446879Y609416D2*
X583693D1*
X718522D2*
X1063680D1*
X1198545D2*
X1334103D1*
X1765587D2*
X1883885D1*
X2032888D2*
X2059071D1*
X2245574D2*
X2308359D1*
X2397436D2*
X2573938D1*
X3230451D2*
X3241382D1*
X3330460D2*
X3710031D1*
X3799144D2*
X3810040D1*
X3899117D2*
X4137340D1*
X446879Y584547D2*
X557928D1*
X744287D2*
X1037915D1*
X1224274D2*
X1335574D1*
X1775455D2*
X1908753D1*
X2255442D2*
X2308359D1*
X3230451D2*
X3241382D1*
X3330460D2*
X3687424D1*
X3899117D2*
X4137340D1*
X446879Y559678D2*
X547988D1*
X754227D2*
X1028011D1*
X1234214D2*
X1352548D1*
X1776209D2*
X1933620D1*
X2256195D2*
X2309758D1*
X3033483D2*
X3091495D1*
X3337458D2*
X3687424D1*
X3910815D2*
X4137340D1*
X446879Y534810D2*
X547199D1*
X755016D2*
X1027222D1*
X1235003D2*
X1378636D1*
X1768099D2*
X1958488D1*
X2248121D2*
X2326624D1*
X3058350D2*
X3118731D1*
X3350735D2*
X3687424D1*
X3920791D2*
X4137340D1*
X446879Y509941D2*
X555237D1*
X746978D2*
X1035260D1*
X1226965D2*
X1598031D1*
X1746604D2*
X1983392D1*
X3083218D2*
X3118731D1*
X3352637D2*
X3687424D1*
X3920289D2*
X4137340D1*
X446879Y485072D2*
X576660D1*
X725555D2*
X1056647D1*
X1205542D2*
X2008259D1*
X2927553D2*
X2984166D1*
X3344347D2*
X3687424D1*
X3908985D2*
X4137340D1*
X446879Y460203D2*
X2033127D1*
X2925148D2*
X3009034D1*
X3318403D2*
X3687424D1*
X3821787D2*
X3839573D1*
X3869584D2*
X4137340D1*
X446879Y435335D2*
X2060866D1*
X2913378D2*
X3033901D1*
X3265689D2*
X4137340D1*
X4019811Y1362623D2*
X4139822D1*
X4139833Y1533131D1*
X4112009Y1505295D1*
X4112303Y1498299D1*
X4112067Y1492298D1*
X4111361Y1486333D1*
X4110190Y1480442D1*
X4108559Y1474662D1*
X4106481Y1469027D1*
X4103966Y1463573D1*
X4101031Y1458332D1*
X4097694Y1453338D1*
X4093976Y1448622D1*
X4089899Y1444211D1*
X4085489Y1440134D1*
X4080772Y1436416D1*
X4075778Y1433079D1*
X4070538Y1430144D1*
X4065083Y1427630D1*
X4059448Y1425551D1*
X4053668Y1423921D1*
X4047777Y1422749D1*
X4041813Y1422043D1*
X4035811Y1421807D1*
X4028854Y1422156D1*
X4019791Y1413077D1*
X4019782Y1362610D1*
X4139854Y1209639D2*
X4112797D1*
X4121146Y1202424D1*
X4125223Y1198014D1*
X4128941Y1193297D1*
X4132278Y1188303D1*
X4135213Y1183063D1*
X4137727Y1177608D1*
X4139838Y1171860D1*
X4139833Y1209671D1*
X4139838Y1124811D2*
X4137727Y1119064D1*
X4135213Y1113609D1*
X4132278Y1108369D1*
X4128941Y1103375D1*
X4125223Y1098658D1*
X4121146Y1094248D1*
X4116735Y1090171D1*
X4112019Y1086453D1*
X4107025Y1083116D1*
X4101784Y1080181D1*
X4096330Y1077666D1*
X4090695Y1075588D1*
X4084914Y1073957D1*
X4079024Y1072786D1*
X4073059Y1072080D1*
X4067058Y1071844D1*
X4061056Y1072080D1*
X4055092Y1072786D1*
X4049201Y1073957D1*
X4043420Y1075588D1*
X4037785Y1077666D1*
X4032331Y1080181D1*
X4027091Y1083116D1*
X4022097Y1086453D1*
X4017380Y1090171D1*
X4012970Y1094248D1*
X4008893Y1098658D1*
X4005174Y1103375D1*
X4001837Y1108369D1*
X3998903Y1113609D1*
X3996388Y1119064D1*
X3994309Y1124699D1*
X3992679Y1130479D1*
X3991507Y1136370D1*
X3990801Y1142334D1*
X3990566Y1148336D1*
X3990914Y1155293D1*
X3949814Y1196378D1*
X3949676Y967851D1*
X3948644Y961335D1*
X3946605Y955060D1*
X3943610Y949182D1*
X3939732Y943845D1*
X3911901Y915830D1*
X3906884Y911545D1*
X3901259Y908098D1*
X3895164Y905573D1*
X3888749Y904033D1*
X3882172Y903516D1*
X3804441Y903645D1*
X3797925Y904677D1*
X3791651Y906716D1*
X3785773Y909711D1*
X3780435Y913589D1*
X3759818Y934023D1*
X3717899Y934027D1*
X3717893Y857320D1*
X3749348Y825887D1*
X3819272Y825867D1*
Y815353D1*
X3825226Y818818D1*
X3834603Y822702D1*
X3844472Y825071D1*
X3854591Y825867D1*
X3864709Y825071D1*
X3874578Y822702D1*
X3883955Y818818D1*
X3892609Y813514D1*
X3900327Y806923D1*
X3906919Y799205D1*
X3912222Y790551D1*
X3916106Y781174D1*
X3918475Y771305D1*
X3919272Y761186D1*
X3918475Y751068D1*
X3916106Y741199D1*
X3912222Y731822D1*
X3906919Y723168D1*
X3900327Y715450D1*
X3896641Y712043D1*
X3896634Y572830D1*
X3903774Y565671D1*
X3909740Y557460D1*
X3914348Y548416D1*
X3917485Y538764D1*
X3919072Y528739D1*
Y518589D1*
X3917485Y508565D1*
X3914348Y498912D1*
X3909740Y489868D1*
X3903774Y481657D1*
X3896598Y474480D1*
X3888386Y468514D1*
X3879343Y463906D1*
X3869690Y460770D1*
X3859665Y459182D1*
X3849516D1*
X3839491Y460770D1*
X3829838Y463906D1*
X3820795Y468514D1*
X3819261Y469539D1*
X3819272Y458983D1*
X3689910D1*
Y588345D1*
X3712553D1*
X3712547Y696518D1*
X3689910Y696505D1*
Y766443D1*
X3643879Y812623D1*
X3640001Y817960D1*
X3637006Y823838D1*
X3634967Y830113D1*
X3633935Y836629D1*
X3633806Y876673D1*
Y903550D1*
X3253528Y903516D1*
X3253409Y862520D1*
X3252376Y856004D1*
X3250338Y849730D1*
X3247343Y843851D1*
X3243465Y838514D1*
X3227953Y822819D1*
X3227944Y813347D1*
X3250582Y813374D1*
Y802860D1*
X3256536Y806324D1*
X3265913Y810208D1*
X3275782Y812578D1*
X3285900Y813374D1*
X3296019Y812578D1*
X3305888Y810208D1*
X3315265Y806324D1*
X3323919Y801021D1*
X3331637Y794429D1*
X3338228Y786712D1*
X3343532Y778058D1*
X3347416Y768680D1*
X3349785Y758811D1*
X3350581Y748693D1*
X3349785Y738575D1*
X3347416Y728705D1*
X3343532Y719328D1*
X3338228Y710674D1*
X3331637Y702956D1*
X3327951Y699549D1*
X3327944Y566652D1*
X3335084Y559516D1*
X3341050Y551305D1*
X3345658Y542262D1*
X3348794Y532609D1*
X3350382Y522584D1*
Y512434D1*
X3348794Y502410D1*
X3345658Y492757D1*
X3341050Y483713D1*
X3335084Y475502D1*
X3327907Y468325D1*
X3319696Y462359D1*
X3310653Y457752D1*
X3301000Y454615D1*
X3290975Y453027D1*
X3280885Y453025D1*
X3261608Y433759D1*
X4139810Y433760D1*
X4139833Y1124769D1*
X3959319Y1619062D2*
Y1680927D1*
X3903517Y1680902D1*
X3903545Y1563296D1*
X3959306Y1619048D1*
X600692Y2187537D2*
X631419D1*
Y2162167D1*
X928980Y2163226D1*
X929137Y2547469D1*
X930387Y2555358D1*
X932855Y2562954D1*
X936481Y2570071D1*
X941176Y2576533D1*
X963376Y2598955D1*
X1095582Y2730939D1*
X1102044Y2735634D1*
X1109161Y2739261D1*
X1116758Y2741729D1*
X1120704Y2742717D1*
X1114951Y2743628D1*
X1109411Y2745428D1*
X1104221Y2748073D1*
X1099508Y2751497D1*
X1080189Y2770653D1*
X1075157Y2771554D1*
X1068148Y2773831D1*
X1061582Y2777177D1*
X1055620Y2781508D1*
X1050409Y2786719D1*
X1046077Y2792682D1*
X1042731Y2799248D1*
X1040454Y2806257D1*
X1039301Y2813536D1*
Y2820905D1*
X1040454Y2828184D1*
X1042731Y2835193D1*
X1046077Y2841759D1*
X1048991Y2845923D1*
X1049113Y2976212D1*
X1050024Y2981965D1*
X1051824Y2987505D1*
X1054469Y2992695D1*
X1057893Y2997408D1*
X1076801Y3016478D1*
X1081230Y3020261D1*
X1086197Y3023304D1*
X1091578Y3025534D1*
X1097243Y3026893D1*
X1103061Y3027350D1*
X1784716Y3027236D1*
X1790469Y3026325D1*
X1796009Y3024525D1*
X1801199Y3021880D1*
X1805912Y3018456D1*
X1840531Y2983999D1*
X1862378Y2962152D1*
X1868495Y2962944D1*
X1878644D1*
X1888669Y2961356D1*
X1891552Y2960543D1*
X1891680Y3008802D1*
X1892591Y3014556D1*
X1894391Y3020096D1*
X1897036Y3025286D1*
X1900460Y3029999D1*
X1916876Y3046577D1*
X444384Y3046555D1*
X444361Y2296911D1*
X453224Y2299115D1*
X461202Y2299741D1*
X497824Y2299742D1*
X505249Y2307005D1*
X509966Y2310723D1*
X514959Y2314060D1*
X520200Y2316995D1*
X525654Y2319509D1*
X531289Y2321588D1*
X537070Y2323219D1*
X542961Y2324390D1*
X548925Y2325096D1*
X554927Y2325332D1*
X560928Y2325096D1*
X566893Y2324390D1*
X572783Y2323219D1*
X578564Y2321588D1*
X584199Y2319509D1*
X589653Y2316995D1*
X594894Y2314060D1*
X599887Y2310723D1*
X604604Y2307005D1*
X609015Y2302928D1*
X613092Y2298518D1*
X616810Y2293801D1*
X620147Y2288807D1*
X623081Y2283567D1*
X625596Y2278112D1*
X627675Y2272477D1*
X629305Y2266697D1*
X630477Y2260806D1*
X631183Y2254841D1*
X631419Y2248840D1*
X631183Y2242838D1*
X630477Y2236874D1*
X629305Y2230983D1*
X627675Y2225203D1*
X625596Y2219568D1*
X623081Y2214113D1*
X620147Y2208873D1*
X616810Y2203879D1*
X613092Y2199162D1*
X609015Y2194752D1*
X600606Y2187523D1*
X631419Y2060399D2*
Y2034552D1*
X512104D1*
X512088Y2018499D1*
X520200Y2023276D1*
X525654Y2025790D1*
X531289Y2027869D1*
X537070Y2029499D1*
X542961Y2030671D1*
X548925Y2031377D1*
X554927Y2031613D1*
X560928Y2031377D1*
X566893Y2030671D1*
X572783Y2029499D1*
X578564Y2027869D1*
X584199Y2025790D1*
X589653Y2023276D1*
X594894Y2020341D1*
X599887Y2017004D1*
X604604Y2013286D1*
X609015Y2009209D1*
X613092Y2004798D1*
X616810Y2000082D1*
X620147Y1995088D1*
X623081Y1989847D1*
X625596Y1984393D1*
X627675Y1978758D1*
X629305Y1972977D1*
X630477Y1967087D1*
X631183Y1961122D1*
X631419Y1955121D1*
X631183Y1949119D1*
X630477Y1943155D1*
X629305Y1937264D1*
X627675Y1931483D1*
X625596Y1925848D1*
X623081Y1920394D1*
X620147Y1915154D1*
X616810Y1910160D1*
X613092Y1905443D1*
X609015Y1901033D1*
X600606Y1893804D1*
X631419Y1893818D1*
Y1740833D1*
X512104D1*
X512088Y1718536D1*
X520200Y1723307D1*
X525654Y1725822D1*
X531289Y1727901D1*
X537070Y1729531D1*
X542961Y1730703D1*
X548925Y1731409D1*
X554927Y1731644D1*
X560928Y1731409D1*
X566893Y1730703D1*
X572783Y1729531D1*
X578564Y1727901D1*
X584199Y1725822D1*
X589653Y1723307D1*
X594894Y1720372D1*
X599887Y1717036D1*
X604604Y1713317D1*
X609015Y1709240D1*
X613092Y1704830D1*
X616810Y1700113D1*
X620147Y1695119D1*
X623081Y1689879D1*
X625596Y1684425D1*
X627675Y1678790D1*
X629305Y1673009D1*
X630477Y1667118D1*
X631183Y1661154D1*
X631419Y1655152D1*
X631183Y1649151D1*
X630477Y1643186D1*
X629305Y1637295D1*
X627675Y1631515D1*
X625596Y1625880D1*
X623081Y1620426D1*
X620147Y1615185D1*
X616810Y1610191D1*
X613092Y1605475D1*
X609015Y1601064D1*
X600606Y1593835D1*
X631419Y1593849D1*
Y1583909D1*
X637508Y1589785D1*
X643970Y1594480D1*
X651086Y1598106D1*
X658683Y1600574D1*
X666572Y1601823D1*
X698125Y1601980D1*
X822894D1*
X828931Y1607747D1*
X833527Y1611370D1*
X838392Y1614621D1*
X843498Y1617480D1*
X848812Y1619930D1*
X854302Y1621955D1*
X859934Y1623543D1*
X865673Y1624685D1*
X871484Y1625373D1*
X895703Y1625602D1*
X938296Y1625373D1*
X944107Y1624685D1*
X949846Y1623543D1*
X955478Y1621955D1*
X960968Y1619930D1*
X966282Y1617480D1*
X971387Y1614621D1*
X976253Y1611370D1*
X980848Y1607747D1*
X985145Y1603775D1*
X989117Y1599478D1*
X992740Y1594883D1*
X995991Y1590017D1*
X998850Y1584912D1*
X1001300Y1579598D1*
X1003325Y1574108D1*
X1004913Y1568476D1*
X1006055Y1562737D1*
X1006743Y1556926D1*
X1006972Y1551079D1*
X1006743Y1545232D1*
X1006055Y1539421D1*
X1004913Y1533682D1*
X1003325Y1528050D1*
X1001300Y1522560D1*
X998850Y1517246D1*
X995991Y1512140D1*
X992740Y1507275D1*
X989117Y1502680D1*
X985145Y1498383D1*
X980848Y1494411D1*
X976253Y1490788D1*
X971387Y1487537D1*
X966282Y1484678D1*
X960968Y1482228D1*
X955478Y1480203D1*
X949846Y1478614D1*
X944107Y1477473D1*
X932472Y1476556D1*
X877331Y1476555D1*
X871484Y1476785D1*
X865673Y1477473D1*
X859934Y1478614D1*
X854302Y1480203D1*
X848812Y1482228D1*
X843498Y1484678D1*
X838392Y1487537D1*
X833527Y1490788D1*
X828931Y1494411D1*
X822974Y1500179D1*
X691630Y1500177D1*
X669902Y1478651D1*
X663440Y1473956D1*
X656323Y1470330D1*
X648727Y1467862D1*
X640838Y1466612D1*
X636828Y1466456D1*
X631419Y1465240D1*
Y1440865D1*
X512104D1*
X512088Y1418568D1*
X520200Y1423339D1*
X525654Y1425853D1*
X531289Y1427932D1*
X537070Y1429562D1*
X542961Y1430734D1*
X548925Y1431440D1*
X554927Y1431676D1*
X560928Y1431440D1*
X566893Y1430734D1*
X572783Y1429562D1*
X578564Y1427932D1*
X584199Y1425853D1*
X589653Y1423339D1*
X594894Y1420404D1*
X599887Y1417067D1*
X604604Y1413349D1*
X609015Y1409272D1*
X613092Y1404861D1*
X616810Y1400145D1*
X620147Y1395151D1*
X623081Y1389910D1*
X625596Y1384456D1*
X627675Y1378821D1*
X629305Y1373040D1*
X630477Y1367150D1*
X631183Y1361185D1*
X631419Y1355184D1*
X631183Y1349182D1*
X630477Y1343218D1*
X629305Y1337327D1*
X627675Y1331546D1*
X625596Y1325911D1*
X623081Y1320457D1*
X620147Y1315217D1*
X616810Y1310223D1*
X613092Y1305506D1*
X609015Y1301096D1*
X600606Y1293867D1*
X631419Y1293881D1*
Y1140896D1*
X478434D1*
Y1293881D1*
X509187D1*
X500838Y1301096D1*
X497892Y1304283D1*
X457193Y1304439D1*
X449304Y1305688D1*
X445442Y1306779D1*
X444361Y1304462D1*
Y433732D1*
X2066493Y433760D1*
X2061239Y436565D1*
X2054777Y441260D1*
X2032355Y463460D1*
X1741797Y754017D1*
X1674342Y754030D1*
X1668276Y748264D1*
X1663681Y744641D1*
X1658815Y741390D1*
X1653710Y738531D1*
X1648396Y736081D1*
X1642906Y734056D1*
X1637274Y732467D1*
X1631535Y731326D1*
X1619899Y730409D1*
X1564759Y730408D1*
X1558911Y730638D1*
X1553100Y731326D1*
X1547361Y732467D1*
X1541729Y734056D1*
X1536240Y736081D1*
X1530926Y738531D1*
X1525820Y741390D1*
X1520955Y744641D1*
X1516359Y748264D1*
X1512062Y752236D1*
X1508090Y756533D1*
X1504468Y761128D1*
X1501217Y765993D1*
X1498357Y771099D1*
X1495908Y776413D1*
X1493882Y781903D1*
X1492294Y787535D1*
X1491152Y793274D1*
X1490465Y799085D1*
X1490235Y804932D1*
X1490465Y810779D1*
X1491152Y816590D1*
X1492294Y822329D1*
X1493882Y827961D1*
X1495908Y833451D1*
X1498949Y839822D1*
X1456452Y839921D1*
X1450699Y840833D1*
X1445159Y842633D1*
X1439969Y845277D1*
X1435256Y848701D1*
X1420708Y863088D1*
X1420700Y612925D1*
X1421656Y611982D1*
X1583202Y611975D1*
X1588090Y618331D1*
X1592062Y622628D1*
X1596359Y626600D1*
X1600955Y630223D1*
X1605820Y633474D1*
X1610926Y636333D1*
X1616240Y638783D1*
X1621729Y640808D1*
X1627361Y642396D1*
X1633100Y643538D1*
X1638911Y644226D1*
X1663131Y644455D1*
X1705724Y644226D1*
X1711535Y643538D1*
X1717274Y642396D1*
X1722906Y640808D1*
X1728396Y638783D1*
X1733710Y636333D1*
X1738815Y633474D1*
X1743681Y630223D1*
X1748276Y626600D1*
X1752573Y622628D1*
X1756545Y618331D1*
X1760168Y613736D1*
X1763418Y608870D1*
X1766278Y603765D1*
X1768727Y598451D1*
X1770753Y592961D1*
X1772341Y587329D1*
X1773483Y581590D1*
X1774171Y575779D1*
X1774400Y569932D1*
X1774171Y564085D1*
X1773483Y558274D1*
X1772341Y552535D1*
X1770753Y546903D1*
X1768727Y541413D1*
X1766278Y536099D1*
X1763418Y530993D1*
X1760168Y526128D1*
X1756545Y521533D1*
X1752573Y517236D1*
X1748276Y513264D1*
X1743681Y509641D1*
X1738815Y506390D1*
X1733710Y503531D1*
X1728396Y501081D1*
X1722906Y499056D1*
X1717274Y497467D1*
X1711535Y496326D1*
X1699899Y495409D1*
X1644759Y495408D1*
X1638911Y495638D1*
X1633100Y496326D1*
X1627361Y497467D1*
X1621729Y499056D1*
X1616240Y501081D1*
X1610926Y503531D1*
X1605820Y506390D1*
X1600955Y509641D1*
X1596359Y513264D1*
X1592062Y517236D1*
X1588090Y521533D1*
X1583287Y527895D1*
X1400949Y528018D1*
X1394433Y529050D1*
X1388159Y531089D1*
X1382280Y534084D1*
X1376943Y537962D1*
X1348927Y565794D1*
X1344642Y570811D1*
X1341195Y576436D1*
X1338671Y582532D1*
X1337130Y588947D1*
X1336613Y595524D1*
Y858591D1*
X1300159Y821997D1*
X1305068Y813767D1*
X1307518Y808453D1*
X1309543Y802963D1*
X1311131Y797332D1*
X1312273Y791592D1*
X1312961Y785781D1*
X1313190Y779934D1*
X1312961Y774087D1*
X1312273Y768276D1*
X1311131Y762537D1*
X1309543Y756905D1*
X1307518Y751415D1*
X1305068Y746101D1*
X1302209Y740996D1*
X1298958Y736130D1*
X1295335Y731535D1*
X1291363Y727238D1*
X1287066Y723266D1*
X1282471Y719644D1*
X1277605Y716393D1*
X1272500Y713533D1*
X1267186Y711084D1*
X1261696Y709058D1*
X1256064Y707470D1*
X1250325Y706328D1*
X1238690Y705412D1*
X1183549Y705411D1*
X1177702Y705640D1*
X1171890Y706328D1*
X1166151Y707470D1*
X1160519Y709058D1*
X1155030Y711084D1*
X1149716Y713533D1*
X1144610Y716393D1*
X1139745Y719644D1*
X1135149Y723266D1*
X1130852Y727238D1*
X1126880Y731535D1*
X1123258Y736130D1*
X1120007Y740996D1*
X1117148Y746101D1*
X1114698Y751415D1*
X1112672Y756905D1*
X1111084Y762537D1*
X1109942Y768276D1*
X1109255Y774087D1*
X1109025Y779934D1*
X1109255Y785781D1*
X1109942Y791592D1*
X1111084Y797332D1*
X1112672Y802963D1*
X1114698Y808453D1*
X1117148Y813767D1*
X1120007Y818873D1*
X1123258Y823738D1*
X1126880Y828334D1*
X1130852Y832631D1*
X1135149Y836603D1*
X1139745Y840225D1*
X1144610Y843476D1*
X1149716Y846335D1*
X1155030Y848785D1*
X1160519Y850811D1*
X1166151Y852399D1*
X1171890Y853540D1*
X1177702Y854228D1*
X1183571Y854457D1*
X1194602Y860412D1*
X1247710Y913520D1*
X1247697Y1302543D1*
X1122407Y1428055D1*
X1117712Y1434517D1*
X1114086Y1441634D1*
X1111618Y1449230D1*
X1110368Y1457119D1*
X1110211Y1488672D1*
Y1758772D1*
X1064344Y1804834D1*
X1059649Y1811296D1*
X1056023Y1818413D1*
X1053555Y1826010D1*
X1052305Y1833899D1*
X1052148Y1853328D1*
Y2061779D1*
X994957Y2061603D1*
X998850Y2054912D1*
X1001300Y2049598D1*
X1003325Y2044108D1*
X1004913Y2038476D1*
X1006055Y2032737D1*
X1006743Y2026926D1*
X1006972Y2021079D1*
X1006743Y2015232D1*
X1006055Y2009421D1*
X1004913Y2003682D1*
X1003325Y1998050D1*
X1001300Y1992560D1*
X998850Y1987246D1*
X995991Y1982140D1*
X992740Y1977275D1*
X989117Y1972680D1*
X985145Y1968383D1*
X980848Y1964411D1*
X976253Y1960788D1*
X971387Y1957537D1*
X966282Y1954678D1*
X960968Y1952228D1*
X955478Y1950203D1*
X949846Y1948614D1*
X944107Y1947473D1*
X932472Y1946556D1*
X877331Y1946555D1*
X871484Y1946785D1*
X865673Y1947473D1*
X859934Y1948614D1*
X854302Y1950203D1*
X848812Y1952228D1*
X843498Y1954678D1*
X838392Y1957537D1*
X833527Y1960788D1*
X828931Y1964411D1*
X824635Y1968383D1*
X820663Y1972680D1*
X817040Y1977275D1*
X813789Y1982140D1*
X810930Y1987246D1*
X808480Y1992560D1*
X806455Y1998050D1*
X804866Y2003682D1*
X803725Y2009421D1*
X803037Y2015232D1*
X802807Y2021079D1*
X803037Y2026926D1*
X803725Y2032737D1*
X804866Y2038476D1*
X806455Y2044108D1*
X808480Y2049598D1*
X810930Y2054912D1*
X814437Y2060987D1*
X631452Y2060397D1*
X2729917Y2968795D2*
Y2891993D1*
X2717609D1*
X2720676Y2887473D1*
X2725144Y2878705D1*
X2728185Y2869346D1*
X2728459Y2867969D1*
X2730117Y2872677D1*
X2733463Y2879244D1*
X2736376Y2883407D1*
X2736384Y2964905D1*
X2732515Y2968792D1*
X2616775Y2891993D2*
X2604492D1*
Y2968750D1*
X2503006Y2968768D1*
X2502973Y2862715D1*
X2500281D1*
X2502225Y2854222D1*
X2502972Y2844719D1*
X2502225Y2835217D1*
X2499999Y2825948D1*
X2496352Y2817142D1*
X2491371Y2809015D1*
X2485181Y2801767D1*
X2477933Y2795576D1*
X2469806Y2790596D1*
X2460999Y2786948D1*
X2451731Y2784723D1*
X2442228Y2783975D1*
X2432726Y2784723D1*
X2423457Y2786948D1*
X2414651Y2790596D1*
X2406524Y2795576D1*
X2402851Y2798471D1*
X2395227Y2792926D1*
X2386734Y2788599D1*
X2377669Y2785653D1*
X2368254Y2784162D1*
X2358722D1*
X2349308Y2785653D1*
X2340242Y2788599D1*
X2331749Y2792926D1*
X2327506Y2795795D1*
X2324123Y2795786D1*
X2324775Y2694000D1*
X2331742Y2687975D1*
X2338333Y2680257D1*
X2343637Y2671603D1*
X2347521Y2662226D1*
X2349890Y2652357D1*
X2350686Y2642239D1*
X2349890Y2632120D1*
X2347521Y2622251D1*
X2343637Y2612874D1*
X2338333Y2604220D1*
X2331742Y2596502D1*
X2325099Y2590758D1*
X2325096Y2537565D1*
X2347044Y2537595D1*
X2345093Y2541685D1*
X2342816Y2548694D1*
X2341663Y2555973D1*
Y2563342D1*
X2342816Y2570621D1*
X2345093Y2577630D1*
X2348439Y2584196D1*
X2352771Y2590159D1*
X2357982Y2595370D1*
X2363944Y2599701D1*
X2370510Y2603047D1*
X2377519Y2605324D1*
X2384798Y2606477D1*
X2392168D1*
X2399447Y2605324D1*
X2406456Y2603047D1*
X2413022Y2599701D1*
X2418984Y2595370D1*
X2424195Y2590159D1*
X2428527Y2584196D1*
X2431873Y2577630D1*
X2432984Y2574616D1*
X2610826Y2396773D1*
X2620670Y2396749D1*
X2626476Y2402393D1*
X2629392Y2404691D1*
X2622860Y2410362D1*
X2616469Y2417844D1*
X2611327Y2426235D1*
X2607561Y2435327D1*
X2605264Y2444896D1*
X2604492Y2454706D1*
X2605264Y2464516D1*
X2607561Y2474085D1*
X2611327Y2483177D1*
X2616469Y2491568D1*
X2622860Y2499051D1*
X2629392Y2504691D1*
X2622860Y2510362D1*
X2616469Y2517844D1*
X2611327Y2526235D1*
X2607561Y2535327D1*
X2605264Y2544896D1*
X2604492Y2554706D1*
X2605264Y2564516D1*
X2607561Y2574085D1*
X2611327Y2583177D1*
X2616469Y2591568D1*
X2622860Y2599051D1*
X2629392Y2604691D1*
X2622860Y2610362D1*
X2616469Y2617844D1*
X2611327Y2626235D1*
X2607561Y2635327D1*
X2605264Y2644896D1*
X2604492Y2654706D1*
X2605264Y2664516D1*
X2607561Y2674085D1*
X2611327Y2683177D1*
X2616469Y2691568D1*
X2622860Y2699051D1*
X2629392Y2704691D1*
X2622860Y2710362D1*
X2616469Y2717844D1*
X2611327Y2726235D1*
X2607561Y2735327D1*
X2605264Y2744896D1*
X2604492Y2754706D1*
X2605264Y2764516D1*
X2607561Y2774085D1*
X2611327Y2783177D1*
X2616469Y2791568D1*
X2622860Y2799051D1*
X2629392Y2804691D1*
X2622860Y2810362D1*
X2616672Y2817588D1*
X2612746Y2815465D1*
X2508182Y2711063D1*
X2503470Y2707640D1*
X2498279Y2704995D1*
X2492739Y2703195D1*
X2486986Y2702284D1*
X2438142Y2702169D1*
X2417221D1*
X2413022Y2699247D1*
X2406456Y2695902D1*
X2399447Y2693624D1*
X2392168Y2692472D1*
X2384798D1*
X2377519Y2693624D1*
X2370510Y2695902D1*
X2363944Y2699247D1*
X2357982Y2703579D1*
X2352771Y2708790D1*
X2348439Y2714752D1*
X2345093Y2721319D1*
X2342816Y2728328D1*
X2341663Y2735607D1*
Y2742976D1*
X2342816Y2750255D1*
X2345093Y2757264D1*
X2348439Y2763830D1*
X2352771Y2769792D1*
X2357982Y2775003D1*
X2363944Y2779335D1*
X2370510Y2782681D1*
X2377519Y2784958D1*
X2384798Y2786111D1*
X2392168D1*
X2399447Y2784958D1*
X2406456Y2782681D1*
X2413022Y2779335D1*
X2417185Y2776421D1*
X2468684Y2776413D1*
X2575379Y2882934D1*
X2580092Y2886358D1*
X2585282Y2889002D1*
X2590822Y2890802D1*
X2596576Y2891714D1*
X2616677Y2891828D1*
X2728459Y2841443D2*
X2726848Y2835327D1*
X2723082Y2826235D1*
X2717940Y2817844D1*
X2711549Y2810362D1*
X2705018Y2804721D1*
X2711549Y2799051D1*
X2717940Y2791568D1*
X2723082Y2783177D1*
X2726848Y2774085D1*
X2729145Y2764516D1*
X2729917Y2754706D1*
X2729145Y2744896D1*
X2726848Y2735327D1*
X2723082Y2726235D1*
X2717940Y2717844D1*
X2711549Y2710362D1*
X2705018Y2704721D1*
X2711549Y2699051D1*
X2717738Y2691824D1*
X2744750Y2691828D1*
X2748968Y2694749D1*
X2755534Y2698094D1*
X2762543Y2700372D1*
X2769822Y2701525D1*
X2777191D1*
X2784470Y2700372D1*
X2791492Y2698088D1*
X2791479Y2811315D1*
X2784470Y2809038D1*
X2777191Y2807885D1*
X2769822D1*
X2762543Y2809038D1*
X2755534Y2811315D1*
X2748968Y2814661D1*
X2743006Y2818993D1*
X2737794Y2824204D1*
X2733463Y2830166D1*
X2730117Y2836732D1*
X2728493Y2841426D1*
X2717738Y2617588D2*
X2711549Y2610362D1*
X2705018Y2604721D1*
X2711549Y2599051D1*
X2717738Y2591824D1*
X2787668Y2591828D1*
X2791478Y2595647D1*
X2791479Y2611315D1*
X2784470Y2609038D1*
X2777191Y2607885D1*
X2769822D1*
X2762543Y2609038D1*
X2755534Y2611315D1*
X2748968Y2614661D1*
X2744782Y2617592D1*
X2717778Y2617584D1*
X2717738Y2517588D2*
X2711549Y2510362D1*
X2705018Y2504721D1*
X2711549Y2499051D1*
X2717940Y2491568D1*
X2723082Y2483177D1*
X2726848Y2474085D1*
X2729145Y2464516D1*
X2729917Y2454706D1*
X2729838Y2452688D1*
X2733463Y2459956D1*
X2737794Y2465918D1*
X2743006Y2471129D1*
X2748968Y2475461D1*
X2755534Y2478807D1*
X2762543Y2481084D1*
X2769822Y2482237D1*
X2777191D1*
X2784470Y2481084D1*
X2791479Y2478807D1*
X2798045Y2475461D1*
X2804008Y2471129D1*
X2809219Y2465918D1*
X2813550Y2459956D1*
X2816896Y2453390D1*
X2819173Y2446381D1*
X2820057Y2441377D1*
X2853310Y2408112D1*
Y2552515D1*
X2827144Y2526478D1*
X2822432Y2523054D1*
X2817241Y2520410D1*
X2811701Y2518610D1*
X2805948Y2517698D1*
X2757104Y2517584D1*
X2717739D1*
X2726548Y2434515D2*
X2723082Y2426235D1*
X2717940Y2417844D1*
X2711549Y2410362D1*
X2705018Y2404721D1*
X2711549Y2399051D1*
X2717940Y2391568D1*
X2723082Y2383177D1*
X2726848Y2374085D1*
X2729145Y2364516D1*
X2729917Y2354706D1*
X2729145Y2344896D1*
X2726848Y2335327D1*
X2723082Y2326235D1*
X2717940Y2317844D1*
X2711549Y2310362D1*
X2705018Y2304721D1*
X2711549Y2299051D1*
X2717940Y2291568D1*
X2723082Y2283177D1*
X2726848Y2274085D1*
X2729145Y2264516D1*
X2729917Y2254706D1*
X2729145Y2244896D1*
X2726848Y2235327D1*
X2723082Y2226235D1*
X2717940Y2217844D1*
X2711549Y2210362D1*
X2705018Y2204721D1*
X2711549Y2199051D1*
X2717940Y2191568D1*
X2723082Y2183177D1*
X2726848Y2174085D1*
X2729145Y2164516D1*
X2729917Y2154706D1*
X2729145Y2144896D1*
X2726848Y2135327D1*
X2723082Y2126235D1*
X2717940Y2117844D1*
X2711549Y2110362D1*
X2705018Y2104721D1*
X2711549Y2099051D1*
X2717940Y2091568D1*
X2723082Y2083177D1*
X2726848Y2074085D1*
X2729145Y2064516D1*
X2729917Y2054706D1*
X2729145Y2044896D1*
X2726848Y2035327D1*
X2723082Y2026235D1*
X2717940Y2017844D1*
X2711549Y2010362D1*
X2705018Y2004721D1*
X2711549Y1999051D1*
X2717940Y1991568D1*
X2723082Y1983177D1*
X2726848Y1974085D1*
X2729145Y1964516D1*
X2729917Y1954706D1*
X2729145Y1944896D1*
X2726848Y1935327D1*
X2723082Y1926235D1*
X2717940Y1917844D1*
X2711549Y1910362D1*
X2705018Y1904721D1*
X2711549Y1899051D1*
X2717940Y1891568D1*
X2723082Y1883177D1*
X2726848Y1874085D1*
X2729145Y1864516D1*
X2729917Y1854706D1*
X2729145Y1844896D1*
X2726848Y1835327D1*
X2723082Y1826235D1*
X2717940Y1817844D1*
X2711549Y1810362D1*
X2705018Y1804721D1*
X2711549Y1799051D1*
X2717940Y1791568D1*
X2723082Y1783177D1*
X2726848Y1774085D1*
X2729145Y1764516D1*
X2729917Y1754706D1*
X2729145Y1744896D1*
X2726848Y1735327D1*
X2723082Y1726235D1*
X2717940Y1717844D1*
X2711549Y1710362D1*
X2705018Y1704721D1*
X2711549Y1699051D1*
X2717940Y1691568D1*
X2723082Y1683177D1*
X2726848Y1674085D1*
X2729145Y1664516D1*
X2729917Y1654706D1*
X2729184Y1645220D1*
X2736361Y1638048D1*
X2736384Y2296384D1*
X2733463Y2300642D1*
X2730117Y2307209D1*
X2727840Y2314217D1*
X2726687Y2321496D1*
Y2328866D1*
X2727840Y2336145D1*
X2730117Y2343154D1*
X2733463Y2349720D1*
X2737794Y2355682D1*
X2743006Y2360893D1*
X2748968Y2365225D1*
X2755534Y2368571D1*
X2762543Y2370848D1*
X2769822Y2372001D1*
X2777191D1*
X2784470Y2370848D1*
X2786009Y2370414D1*
X2767588Y2388838D1*
X2762543Y2389750D1*
X2755534Y2392028D1*
X2748968Y2395373D1*
X2743006Y2399705D1*
X2737794Y2404916D1*
X2733463Y2410878D1*
X2730117Y2417445D1*
X2727840Y2424454D1*
X2726687Y2431733D1*
X2726578Y2434511D1*
X2629392Y2304721D2*
X2622860Y2310362D1*
X2620732Y2312664D1*
X2590136Y2312792D1*
X2583620Y2313824D1*
X2577345Y2315863D1*
X2571467Y2318858D1*
X2566129Y2322736D1*
X2537722Y2350960D1*
X2487558Y2401124D1*
X2487568Y2293801D1*
X2618174Y2293797D1*
X2622860Y2299051D1*
X2629392Y2304691D1*
Y2204721D2*
X2622860Y2210362D1*
X2618220Y2215624D1*
X2445411Y2215736D1*
X2439352Y2216695D1*
X2433518Y2218591D1*
X2428053Y2221376D1*
X2423090Y2224981D1*
X2418753Y2229319D1*
X2415147Y2234281D1*
X2412363Y2239747D1*
X2410467Y2245581D1*
X2409508Y2251639D1*
X2409387Y2300638D1*
Y2385073D1*
X2405616Y2381525D1*
X2398606Y2376432D1*
X2390886Y2372498D1*
X2382646Y2369821D1*
X2374088Y2368465D1*
X2365424D1*
X2356866Y2369821D1*
X2348625Y2372498D1*
X2340905Y2376432D1*
X2333896Y2381525D1*
X2328930Y2386395D1*
X2293933Y2386390D1*
X2290069Y2382520D1*
X2290093Y2361068D1*
X2293015Y2356842D1*
X2296361Y2350276D1*
X2298638Y2343267D1*
X2299522Y2338262D1*
X2445953Y2191820D1*
X2616628Y2191828D1*
X2622860Y2199051D1*
X2629392Y2204691D1*
Y2104721D2*
X2622860Y2110362D1*
X2616672Y2117588D1*
X2427656Y2117698D1*
X2421902Y2118610D1*
X2416362Y2120410D1*
X2411172Y2123054D1*
X2406459Y2126478D1*
X2371840Y2160935D1*
X2247077Y2285699D1*
X2242007Y2286636D1*
X2234999Y2288914D1*
X2228432Y2292259D1*
X2222470Y2296591D1*
X2216876Y2302289D1*
X2216878Y2095710D1*
X2220747Y2091806D1*
X2616690Y2091828D1*
X2622860Y2099051D1*
X2629392Y2104691D1*
Y2004721D2*
X2622860Y2010362D1*
X2616672Y2017588D1*
X2202437Y2017698D1*
X2196683Y2018610D1*
X2191143Y2020410D1*
X2185953Y2023054D1*
X2181240Y2026478D1*
X2160095Y2047462D1*
X2157964Y2040503D1*
X2155320Y2035312D1*
X2151896Y2030600D1*
X2135683Y2014225D1*
X2143785Y2015399D1*
X2153317D1*
X2162732Y2013908D1*
X2171797Y2010963D1*
X2180290Y2006635D1*
X2188001Y2001033D1*
X2192351Y1996878D1*
X2204710Y1996886D1*
X2209101Y2001033D1*
X2216812Y2006635D1*
X2225305Y2010963D1*
X2234371Y2013908D1*
X2243785Y2015399D1*
X2253317D1*
X2262732Y2013908D1*
X2271797Y2010963D1*
X2280290Y2006635D1*
X2288001Y2001033D1*
X2292351Y1996878D1*
X2304710Y1996886D1*
X2309101Y2001033D1*
X2316812Y2006635D1*
X2325305Y2010963D1*
X2334371Y2013908D1*
X2343785Y2015399D1*
X2353317D1*
X2362732Y2013908D1*
X2371797Y2010963D1*
X2380290Y2006635D1*
X2388001Y2001033D1*
X2394741Y1994293D1*
X2398533Y1989292D1*
X2402361Y1994293D1*
X2409101Y2001033D1*
X2416812Y2006635D1*
X2425305Y2010963D1*
X2434371Y2013908D1*
X2443785Y2015399D1*
X2453317D1*
X2462732Y2013908D1*
X2471797Y2010963D1*
X2480290Y2006635D1*
X2488001Y2001033D1*
X2494741Y1994293D1*
X2500344Y1986581D1*
X2504671Y1978088D1*
X2507617Y1969023D1*
X2509108Y1959608D1*
X2509113Y1950207D1*
X2542005Y1982934D1*
X2546718Y1986358D1*
X2551908Y1989002D1*
X2557448Y1990802D1*
X2563202Y1991714D1*
X2616675Y1991828D1*
X2622860Y1999051D1*
X2629392Y2004691D1*
Y1904721D2*
X2622860Y1910362D1*
X2616672Y1917588D1*
X2581477Y1917584D1*
X2555749Y1891842D1*
X2616641Y1891828D1*
X2622860Y1899051D1*
X2629392Y1904691D1*
Y1804721D2*
X2622860Y1810362D1*
X2616672Y1817588D1*
X2063812Y1817584D1*
X2035816Y1789609D1*
X2042608Y1791371D1*
X2048426Y1791828D1*
X2616641D1*
X2622860Y1799051D1*
X2629392Y1804691D1*
Y1704721D2*
X2622860Y1710362D1*
X2616672Y1717588D1*
X2593893Y1717584D1*
X2605513Y1705768D1*
X2609391Y1700431D1*
X2612386Y1694553D1*
X2613532Y1691443D1*
X2616469Y1691568D1*
X2622860Y1699051D1*
X2629392Y1704691D1*
X2676690Y1592727D2*
X2667205Y1591993D1*
X2657394Y1592766D1*
X2647825Y1595063D1*
X2638734Y1598829D1*
X2630343Y1603970D1*
X2622860Y1610362D1*
X2616469Y1617844D1*
X2615582Y1619172D1*
X2615647Y1478112D1*
X2681279D1*
X2681266Y1588110D1*
X2676686Y1592726D1*
X3029724Y1649786D2*
X3028185Y1640066D1*
X3025144Y1630707D1*
X3020676Y1621939D1*
X3014892Y1613977D1*
X3007933Y1607019D1*
X3004323Y1604173D1*
X3004327Y1558716D1*
X3008196Y1554861D1*
X3042854Y1554886D1*
X3040314Y1559308D1*
X3037494Y1566117D1*
X3035774Y1573283D1*
X3035196Y1580630D1*
X3035774Y1587977D1*
X3037494Y1595143D1*
X3040314Y1601951D1*
X3044165Y1608235D1*
X3048951Y1613839D1*
X3054555Y1618625D1*
X3060839Y1622476D1*
X3067647Y1625296D1*
X3074813Y1627016D1*
X3082160Y1627594D1*
X3089507Y1627016D1*
X3096673Y1625296D1*
X3100159Y1624219D1*
Y1690589D1*
X3118855D1*
X3118860Y1730249D1*
X3118108Y1733383D1*
X3114258Y1727100D1*
X3109471Y1721496D1*
X3103868Y1716710D1*
X3097584Y1712859D1*
X3090775Y1710039D1*
X3083609Y1708318D1*
X3076262Y1707740D1*
X3068916Y1708318D1*
X3061750Y1710039D1*
X3054941Y1712859D1*
X3048657Y1716710D1*
X3047537Y1717592D1*
X3017735Y1717584D1*
X3011549Y1710362D1*
X3005018Y1704721D1*
X3011549Y1699051D1*
X3017940Y1691568D1*
X3023082Y1683177D1*
X3026848Y1674085D1*
X3029145Y1664516D1*
X3029917Y1654706D1*
X3029724Y1649786D1*
X3005018Y1804691D2*
X3011549Y1799051D1*
X3017738Y1791824D1*
X3047478Y1791828D1*
X3051724Y1794749D1*
X3058290Y1798094D1*
X3065299Y1800372D1*
X3072578Y1801525D1*
X3079947D1*
X3087226Y1800372D1*
X3094235Y1798094D1*
X3100801Y1794749D1*
X3106764Y1790417D1*
X3111975Y1785206D1*
X3116306Y1779244D1*
X3118862Y1774391D1*
X3118861Y1815965D1*
X3116238Y1822353D1*
X3114518Y1829519D1*
X3113940Y1836866D1*
X3114518Y1844213D1*
X3116238Y1851379D1*
X3119058Y1858188D1*
X3122909Y1864471D1*
X3127695Y1870075D1*
X3133299Y1874861D1*
X3139583Y1878712D1*
X3146391Y1881532D1*
X3153557Y1883252D1*
X3160904Y1883831D1*
X3168251Y1883252D1*
X3175417Y1881532D1*
X3182226Y1878712D1*
X3188509Y1874861D1*
X3194113Y1870075D1*
X3198899Y1864471D1*
X3202750Y1858188D1*
X3204488Y1854312D1*
X3204491Y1913715D1*
X3200621Y1917608D1*
X3017762Y1917584D1*
X3011549Y1910362D1*
X3005018Y1904721D1*
X3011549Y1899051D1*
X3017940Y1891568D1*
X3023082Y1883177D1*
X3026848Y1874085D1*
X3029145Y1864516D1*
X3029917Y1854706D1*
X3029145Y1844896D1*
X3026848Y1835327D1*
X3023082Y1826235D1*
X3017940Y1817844D1*
X3011549Y1810362D1*
X3005018Y1804721D1*
X3029724Y2049786D2*
X3029184Y2045220D1*
X3056965Y2017444D1*
X3500534Y2017421D1*
X3498178Y2024702D1*
X3497844Y2026383D1*
X3472282Y2051946D1*
X3352167Y2051929D1*
X3347426Y2049174D1*
X3340618Y2046354D1*
X3333452Y2044633D1*
X3326105Y2044055D1*
X3318758Y2044633D1*
X3311592Y2046354D1*
X3304784Y2049174D1*
X3298500Y2053025D1*
X3292896Y2057811D1*
X3288110Y2063415D1*
X3284259Y2069698D1*
X3281439Y2076507D1*
X3279719Y2083673D1*
X3279140Y2091020D1*
X3279719Y2098367D1*
X3281439Y2105533D1*
X3284259Y2112341D1*
X3287013Y2116984D1*
X3287014Y2261147D1*
X3222915Y2324981D1*
X3217952Y2321376D1*
X3212487Y2318591D1*
X3206653Y2316695D1*
X3200595Y2315736D1*
X3151596Y2315615D1*
X3016277D1*
X3011549Y2310362D1*
X3005018Y2304721D1*
X3011549Y2299051D1*
X3017738Y2291824D1*
X3044750Y2291828D1*
X3048968Y2294749D1*
X3055534Y2298094D1*
X3062543Y2300372D1*
X3069822Y2301525D1*
X3077191D1*
X3084470Y2300372D1*
X3091479Y2298094D1*
X3098045Y2294749D1*
X3104008Y2290417D1*
X3109219Y2285206D1*
X3113550Y2279244D1*
X3116896Y2272677D1*
X3119173Y2265668D1*
X3120326Y2258390D1*
Y2251020D1*
X3119173Y2243741D1*
X3116896Y2236732D1*
X3113550Y2230166D1*
X3109219Y2224204D1*
X3104008Y2218993D1*
X3098045Y2214661D1*
X3091479Y2211315D1*
X3084470Y2209038D1*
X3077191Y2207885D1*
X3069822D1*
X3062543Y2209038D1*
X3055534Y2211315D1*
X3048968Y2214661D1*
X3044782Y2217592D1*
X3017778Y2217584D1*
X3011549Y2210362D1*
X3005018Y2204721D1*
X3011549Y2199051D1*
X3017940Y2191568D1*
X3023082Y2183177D1*
X3026848Y2174085D1*
X3029145Y2164516D1*
X3029917Y2154706D1*
X3029145Y2144896D1*
X3026848Y2135327D1*
X3023082Y2126235D1*
X3017940Y2117844D1*
X3011549Y2110362D1*
X3005018Y2104721D1*
X3011549Y2099051D1*
X3017940Y2091568D1*
X3023082Y2083177D1*
X3026848Y2074085D1*
X3029145Y2064516D1*
X3029917Y2054706D1*
X3029724Y2049786D1*
X3005018Y2404691D2*
X3011549Y2399051D1*
X3016190Y2393788D1*
X3181326Y2393797D1*
X3184020Y2396481D1*
X3184018Y2408416D1*
X3180413Y2413378D1*
X3177628Y2418844D1*
X3175732Y2424678D1*
X3174773Y2430736D1*
X3174652Y2478335D1*
X3171897Y2483056D1*
X3169077Y2489865D1*
X3167356Y2497031D1*
X3166778Y2504378D1*
X3167356Y2511725D1*
X3169077Y2518891D1*
X3171897Y2525699D1*
X3175748Y2531983D1*
X3180534Y2537587D1*
X3186138Y2542373D1*
X3192421Y2546224D1*
X3199230Y2549044D1*
X3206396Y2550764D1*
X3213743Y2551343D1*
X3221090Y2550764D1*
X3228256Y2549044D1*
X3235064Y2546224D1*
X3241348Y2542373D1*
X3246952Y2537587D1*
X3251738Y2531983D1*
X3255589Y2525699D1*
X3258409Y2518891D1*
X3260129Y2511725D1*
X3260707Y2504378D1*
X3260129Y2497031D1*
X3258409Y2489865D1*
X3255589Y2483056D1*
X3252834Y2478414D1*
X3252841Y2449816D1*
X3256447Y2444854D1*
X3259232Y2439388D1*
X3261127Y2433555D1*
X3262087Y2427496D1*
X3262207Y2396475D1*
X3339186Y2319508D1*
X3339309Y2377165D1*
X3340341Y2383681D1*
X3342380Y2389955D1*
X3345375Y2395834D1*
X3349253Y2401171D1*
X3377477Y2429578D1*
X3444794Y2496895D1*
X3447289Y2502866D1*
X3447290Y2730259D1*
X3421163Y2756409D1*
X3294339Y2756429D1*
X3287904Y2753806D1*
X3280738Y2752086D1*
X3273391Y2751508D1*
X3266044Y2752086D1*
X3258878Y2753806D1*
X3252070Y2756627D1*
X3245786Y2760477D1*
X3240182Y2765263D1*
X3235396Y2770867D1*
X3231545Y2777151D1*
X3228725Y2783960D1*
X3227005Y2791126D1*
X3226427Y2798472D1*
X3227005Y2805819D1*
X3228725Y2812985D1*
X3231545Y2819794D1*
X3235396Y2826078D1*
X3240182Y2831681D1*
X3245786Y2836468D1*
X3252070Y2840318D1*
X3258878Y2843138D1*
X3266044Y2844859D1*
X3273391Y2845437D1*
X3280738Y2844859D1*
X3287904Y2843138D1*
X3294281Y2840517D1*
X3441856Y2840386D1*
X3448373Y2839354D1*
X3454647Y2837315D1*
X3460525Y2834320D1*
X3465863Y2830442D1*
X3494270Y2802219D1*
X3521303Y2775002D1*
X3525181Y2769664D1*
X3526800Y2766772D1*
X3526929Y2806453D1*
Y2813450D1*
X3524007Y2817679D1*
X3520662Y2824245D1*
X3518384Y2831254D1*
X3517231Y2838533D1*
Y2845903D1*
X3518384Y2853182D1*
X3520668Y2860203D1*
X3144868Y2860216D1*
X3141035Y2856347D1*
X3140945Y2588526D1*
X3140034Y2582772D1*
X3138233Y2577232D1*
X3135589Y2572042D1*
X3132165Y2567329D1*
X3097708Y2532710D1*
X3029173Y2464175D1*
X3029917Y2454706D1*
X3029145Y2444896D1*
X3026848Y2435327D1*
X3023082Y2426235D1*
X3017940Y2417844D1*
X3011549Y2410362D1*
X3005018Y2404721D1*
Y2604691D2*
X3011549Y2599051D1*
X3017940Y2591568D1*
X3023082Y2583177D1*
X3026848Y2574085D1*
X3028376Y2568384D1*
X3066836Y2606836D1*
X3066929Y2874661D1*
X3067841Y2880414D1*
X3069641Y2885954D1*
X3072285Y2891144D1*
X3075709Y2895857D1*
X3103278Y2923588D1*
X3107708Y2927371D1*
X3112674Y2930415D1*
X3118056Y2932644D1*
X3123720Y2934004D1*
X3129539Y2934460D1*
X3708357Y2934484D1*
X3706080Y2941493D1*
X3705196Y2946497D1*
X3682945Y2968759D1*
X3028320Y2968768D1*
X3029724Y2959626D1*
Y2949786D1*
X3028185Y2940066D1*
X3025144Y2930707D1*
X3020676Y2921939D1*
X3014892Y2913977D1*
X3007933Y2907019D1*
X3005018Y2904721D1*
X3011549Y2899051D1*
X3017940Y2891568D1*
X3023082Y2883177D1*
X3026848Y2874085D1*
X3029145Y2864516D1*
X3029917Y2854706D1*
X3029145Y2844896D1*
X3026848Y2835327D1*
X3023082Y2826235D1*
X3017940Y2817844D1*
X3011549Y2810362D1*
X3005018Y2804721D1*
X3011549Y2799051D1*
X3017940Y2791568D1*
X3023082Y2783177D1*
X3026848Y2774085D1*
X3029145Y2764516D1*
X3029917Y2754706D1*
X3029145Y2744896D1*
X3026848Y2735327D1*
X3023082Y2726235D1*
X3017940Y2717844D1*
X3011549Y2710362D1*
X3005018Y2704721D1*
X3011549Y2699051D1*
X3017940Y2691568D1*
X3023082Y2683177D1*
X3026848Y2674085D1*
X3029145Y2664516D1*
X3029917Y2654706D1*
X3029145Y2644896D1*
X3026848Y2635327D1*
X3023082Y2626235D1*
X3017940Y2617844D1*
X3011549Y2610362D1*
X3005018Y2604721D1*
X2905226Y2945220D2*
X2904492Y2954706D1*
X2905264Y2964516D1*
X2906109Y2968761D1*
X2869568Y2968768D1*
X2865722Y2964898D1*
X2865747Y2905768D1*
X2905212Y2945212D1*
X3471807Y1690589D2*
X3584109D1*
X3584232Y1622119D1*
X3601164Y1639348D1*
X3603389Y1648616D1*
X3607037Y1657422D1*
X3612017Y1665550D1*
X3618208Y1672798D1*
X3622076Y1676324D1*
X3622069Y1768107D1*
X3615363Y1763965D1*
X3608555Y1761145D1*
X3601389Y1759425D1*
X3594042Y1758846D1*
X3586695Y1759425D1*
X3579529Y1761145D1*
X3572721Y1763965D1*
X3566437Y1767816D1*
X3565340Y1768681D1*
X3256982Y1768689D1*
X3253120Y1764819D1*
X3253144Y1670020D1*
X3259248Y1676035D1*
X3266959Y1681638D1*
X3275452Y1685965D1*
X3284518Y1688911D1*
X3293932Y1690402D1*
X3303464D1*
X3312879Y1688911D1*
X3321944Y1685965D1*
X3330437Y1681638D1*
X3338148Y1676035D1*
X3344888Y1669295D1*
X3350491Y1661584D1*
X3354818Y1653091D1*
X3357764Y1644026D1*
X3358736Y1638996D1*
X3393765Y1603980D1*
X3462604Y1603973D1*
X3462621Y1690589D1*
X3471807D1*
X3721198Y1620694D2*
X3720226Y1615665D1*
X3717280Y1606599D1*
X3712953Y1598106D1*
X3707350Y1590395D1*
X3700610Y1583655D1*
X3692899Y1578052D1*
X3684406Y1573725D1*
X3675341Y1570779D1*
X3670311Y1569807D1*
X3618134Y1517830D1*
X3611922Y1513317D1*
X3605080Y1509831D1*
X3597778Y1507458D1*
X3590194Y1506257D1*
X3558795Y1506106D1*
X3369665Y1506257D1*
X3362081Y1507458D1*
X3354778Y1509831D1*
X3347936Y1513317D1*
X3341724Y1517830D1*
X3319416Y1539926D1*
X3289196Y1569849D1*
X3279927Y1572074D1*
X3271121Y1575722D1*
X3262994Y1580702D1*
X3255746Y1586893D1*
X3253153Y1589697D1*
X3253030Y1577717D1*
X3252119Y1571964D1*
X3250319Y1566424D1*
X3247674Y1561234D1*
X3243627Y1555759D1*
X3249231Y1550973D1*
X3254017Y1545369D1*
X3257868Y1539085D1*
X3260688Y1532277D1*
X3262409Y1525111D1*
X3262987Y1517764D1*
X3262409Y1510417D1*
X3260688Y1503251D1*
X3257868Y1496442D1*
X3254017Y1490159D1*
X3249231Y1484555D1*
X3243627Y1479769D1*
X3241148Y1478112D1*
X3483911Y1478004D1*
X3489665Y1477093D1*
X3495205Y1475292D1*
X3500395Y1472648D1*
X3505108Y1469224D1*
X3539727Y1434767D1*
X3643430Y1331063D1*
X3649537Y1331865D1*
X3659686D1*
X3669711Y1330277D1*
X3679364Y1327141D1*
X3688407Y1322533D1*
X3696619Y1316567D1*
X3703795Y1309390D1*
X3704594Y1308378D1*
X3708875Y1313120D1*
X3716593Y1319711D1*
X3725247Y1325014D1*
X3734624Y1328899D1*
X3744493Y1331268D1*
X3754612Y1332064D1*
X3764730Y1331268D1*
X3774599Y1328899D1*
X3783976Y1325014D1*
X3792630Y1319711D1*
X3800348Y1313120D1*
X3804594Y1308378D1*
X3805684Y1309667D1*
X3805678Y1680877D1*
X3781444Y1680901D1*
X3721227Y1620710D1*
X1618996Y2069048D2*
X1600316D1*
Y2141857D1*
X1299507Y2141886D1*
X1295663Y2138016D1*
X1295688Y2118430D1*
X1301081Y2120167D1*
X1306834Y2121079D1*
X1355678Y2121193D1*
X1501763D1*
X1506023Y2124115D1*
X1512589Y2127460D1*
X1519598Y2129738D1*
X1526877Y2130891D1*
X1534246D1*
X1541525Y2129738D1*
X1548534Y2127460D1*
X1555101Y2124115D1*
X1561063Y2119783D1*
X1566274Y2114572D1*
X1570606Y2108610D1*
X1573951Y2102043D1*
X1576229Y2095035D1*
X1577381Y2087756D1*
Y2080386D1*
X1576229Y2073107D1*
X1573951Y2066098D1*
X1572582Y2063129D1*
X1589557Y2062993D1*
X1596073Y2061961D1*
X1602348Y2059922D1*
X1608226Y2056927D1*
X1610981Y2055085D1*
X1614599Y2057696D1*
X1619039Y2062136D1*
X1619017Y2069065D1*
X2925002Y473964D2*
X2924296Y468000D1*
X2923124Y462109D1*
X2921494Y456329D1*
X2919415Y450694D1*
X2916900Y445239D1*
X2913966Y439999D1*
X2909656Y433770D1*
X3037950Y433760D1*
X2968848Y502897D1*
X2921719Y502886D1*
X2924296Y491932D1*
X2925002Y485967D1*
X2925238Y479966D1*
X2925002Y473964D1*
X3499117Y1332064D2*
X3537422Y1332074D1*
X3491470Y1378026D1*
X3492133Y1373086D1*
Y1365717D1*
X3490981Y1358438D1*
X3488703Y1351429D1*
X3485358Y1344863D1*
X3481026Y1338901D1*
X3477158Y1334931D1*
X3489908Y1322187D1*
X3489931Y1332064D1*
X3499117D1*
X3865722Y1203696D2*
X3859310Y1202887D1*
X3786390Y1130175D1*
X3786877Y1125880D1*
X3849576Y1063181D1*
X3859665Y1063190D1*
X3865701Y1062396D1*
X3865719Y1203643D1*
X2160761Y2706920D2*
X2246524D1*
X2245961Y2795757D1*
X2241712Y2795576D1*
X2233585Y2790596D1*
X2224779Y2786948D1*
X2215510Y2784723D1*
X2206008Y2783975D1*
X2196505Y2784723D1*
X2187237Y2786948D1*
X2178431Y2790596D1*
X2170025Y2795795D1*
X2162972Y2795576D1*
X2154845Y2790596D1*
X2146039Y2786948D1*
X2136770Y2784723D1*
X2135938Y2784624D1*
X2141641Y2782681D1*
X2148207Y2779335D1*
X2154169Y2775003D1*
X2159380Y2769792D1*
X2163712Y2763830D1*
X2167058Y2757264D1*
X2169335Y2750255D1*
X2170488Y2742976D1*
Y2735607D1*
X2169335Y2728328D1*
X2167058Y2721319D1*
X2163712Y2714752D1*
X2160798Y2710589D1*
X2246919Y2577558D2*
X2160797D1*
X2160790Y2475363D1*
X2166866Y2477203D1*
X2175424Y2478558D1*
X2184088D1*
X2192646Y2477203D1*
X2200886Y2474525D1*
X2208606Y2470592D1*
X2215616Y2465499D1*
X2221743Y2459372D1*
X2226836Y2452362D1*
X2230769Y2444642D1*
X2233447Y2436402D1*
X2234334Y2431796D1*
X2254453Y2451740D1*
X2259165Y2455164D1*
X2264356Y2457808D1*
X2269896Y2459608D1*
X2275660Y2460520D1*
X2268258Y2463674D1*
X2263028Y2466879D1*
X2258364Y2470863D1*
X2254380Y2475527D1*
X2251175Y2480757D1*
X2248828Y2486424D1*
X2247396Y2492389D1*
X2246915Y2498516D1*
Y2577557D1*
X3145477Y934027D2*
X3121219D1*
Y1035400D1*
X3061087Y1035405D1*
X3062806Y1028280D1*
X3063385Y1020933D1*
X3062806Y1013586D1*
X3061086Y1006420D1*
X3058266Y999612D1*
X3054415Y993328D1*
X3049629Y987724D1*
X3044025Y982938D1*
X3037741Y979087D1*
X3030933Y976267D1*
X3023767Y974547D1*
X3022379Y974382D1*
X2860588Y812764D1*
X2855875Y809340D1*
X2850685Y806696D1*
X2845145Y804896D1*
X2839392Y803984D1*
X2790547Y803870D1*
X2784626D1*
X2780368Y800948D1*
X2773802Y797603D1*
X2766793Y795325D1*
X2759514Y794172D1*
X2752145D1*
X2744866Y795325D1*
X2737857Y797603D1*
X2731290Y800948D1*
X2725328Y805280D1*
X2720117Y810491D1*
X2715786Y816453D1*
X2712440Y823020D1*
X2710162Y830028D1*
X2709010Y837307D1*
Y844677D1*
X2710162Y851956D1*
X2712446Y858978D1*
X2705693Y858988D1*
X2699853Y853113D1*
X2699841Y763044D1*
X2705720Y757132D1*
X2716208Y757124D1*
X2739895Y780663D1*
X2745232Y784541D1*
X2751110Y787536D1*
X2757385Y789575D1*
X2763901Y790607D1*
X2803945Y790736D1*
X3121197D1*
X3121219Y813374D1*
X3143862D1*
X3143986Y843523D1*
X3145019Y850039D1*
X3147057Y856314D1*
X3150052Y862192D1*
X3153930Y867529D1*
X3169442Y883224D1*
X3169451Y906835D1*
X3163933Y909711D1*
X3158595Y913589D1*
X3153930Y918254D1*
X3150052Y923591D1*
X3147057Y929470D1*
X3145911Y932579D1*
X3243871Y684012D2*
X3227939D1*
X3227944Y582154D1*
X3243836Y582190D1*
X3243857Y683976D1*
X3143826Y684012D2*
X3121219D1*
Y706655D1*
X2975511Y706650D1*
X2977452Y699021D1*
X2977970Y692444D1*
Y688389D1*
X2980592Y681959D1*
X2982313Y674793D1*
X2982891Y667446D1*
X2982313Y660099D1*
X2980592Y652933D1*
X2977772Y646125D1*
X2973922Y639841D1*
X2971933Y637318D1*
X3089021Y637311D1*
X3093216Y640233D1*
X3099782Y643579D1*
X3106791Y645856D1*
X3114070Y647009D1*
X3121439D1*
X3128718Y645856D1*
X3135727Y643579D1*
X3142294Y640233D1*
X3143863Y639184D1*
X3143857Y683976D1*
X3121219Y485447D2*
Y553339D1*
X3114070Y553369D1*
X3106791Y554522D1*
X3099782Y556799D1*
X3093216Y560145D1*
X3089052Y563059D1*
X3027578Y563067D1*
X3105244Y485418D1*
X3121226Y485429D1*
X3699096Y1063390D2*
X3730423D1*
X3707253Y1086588D1*
X3374045Y1086587D1*
X3409097Y1051533D1*
X3415493Y1048846D1*
X3421777Y1044995D1*
X3427381Y1040209D1*
X3432167Y1034605D1*
X3436018Y1028321D1*
X3438838Y1021513D1*
X3440558Y1014347D1*
X3441136Y1007000D1*
X3440558Y999653D1*
X3438838Y992487D1*
X3436904Y987602D1*
X3636399Y987603D1*
X3638388Y992205D1*
X3641835Y997831D1*
X3646129Y1002856D1*
X3674135Y1030679D1*
X3679472Y1034557D1*
X3685350Y1037552D1*
X3688460Y1038698D1*
X3689910Y1044264D1*
Y1063390D1*
X3699096D1*
X3812562Y696505D2*
X3796629D1*
X3796634Y588332D1*
X3812526Y588345D1*
X3812547Y696518D1*
X2655456Y988350D2*
X2775632D1*
Y977836D1*
X2781586Y981301D1*
X2790963Y985185D1*
X2800832Y987554D1*
X2810950Y988350D1*
X2821068Y987554D1*
X2830938Y985185D1*
X2840315Y981301D1*
X2848969Y975997D1*
X2856687Y969406D1*
X2863278Y961688D1*
X2868581Y953034D1*
X2872466Y943657D1*
X2874835Y933788D1*
X2875187Y932199D1*
X2932253Y989265D1*
X2925992Y989338D1*
X2918714Y990491D1*
X2911705Y992768D1*
X2908787Y994113D1*
X2630956Y994244D1*
X2624440Y995276D1*
X2618165Y997314D1*
X2612287Y1000310D1*
X2609532Y1002152D1*
X2609416Y932436D1*
Y713722D1*
X2612039Y707288D1*
X2613759Y700122D1*
X2614337Y692776D1*
X2613759Y685429D1*
X2612039Y678263D1*
X2609218Y671454D1*
X2605368Y665171D1*
X2600582Y659567D1*
X2594978Y654780D1*
X2588694Y650930D1*
X2581886Y648110D1*
X2574720Y646389D1*
X2567373Y645811D1*
X2560026Y646389D1*
X2552860Y648110D1*
X2546051Y650930D1*
X2539768Y654780D1*
X2534164Y659567D1*
X2529378Y665171D1*
X2525527Y671454D1*
X2522707Y678263D1*
X2520986Y685429D1*
X2520408Y692776D1*
X2520986Y700122D1*
X2522707Y707288D1*
X2525328Y713665D1*
X2525459Y1055157D1*
X2525849Y1058448D1*
X2521441Y1060996D1*
X2420058Y1061126D1*
X2413542Y1062158D1*
X2407268Y1064196D1*
X2401389Y1067191D1*
X2396042Y1071078D1*
X2394928Y1070117D1*
Y587941D1*
X2395884Y586978D1*
X2577453Y586972D1*
X2576104Y592842D1*
X2575526Y600189D1*
X2576104Y607536D1*
X2577825Y614702D1*
X2580645Y621510D1*
X2584496Y627794D1*
X2589282Y633398D1*
X2594886Y638184D1*
X2601169Y642035D1*
X2607978Y644855D1*
X2615144Y646575D1*
X2622491Y647154D1*
X2629838Y646575D1*
X2637004Y644855D1*
X2643812Y642035D1*
X2646263Y640662D1*
X2646269Y697700D1*
X2625828Y718291D1*
X2621950Y723628D1*
X2618955Y729507D1*
X2616916Y735781D1*
X2615884Y742297D1*
X2615755Y782341D1*
X2615884Y873816D1*
X2616916Y880332D1*
X2618955Y886606D1*
X2621950Y892485D1*
X2625828Y897822D1*
X2646262Y918439D1*
X2646269Y988350D1*
X2655456D1*
X2860094Y650393D2*
X2852957Y643260D1*
X2844762Y637305D1*
X2899911Y637311D1*
X2895883Y642907D1*
X2892537Y649474D1*
X2892193Y650406D1*
X2860103Y650400D1*
X1437354Y1711556D2*
X1431484Y1711785D1*
X1425673Y1712473D1*
X1419934Y1713614D1*
X1414302Y1715203D1*
X1408812Y1717228D1*
X1403498Y1719678D1*
X1398392Y1722537D1*
X1393527Y1725788D1*
X1388931Y1729411D1*
X1382974Y1735179D1*
X1212014Y1735177D1*
X1212015Y1482170D1*
X1337304Y1356685D1*
X1341999Y1350223D1*
X1345625Y1343107D1*
X1348094Y1335510D1*
X1349343Y1327621D1*
X1349500Y1296068D1*
Y968840D1*
X1354117Y972087D1*
X1360684Y975433D1*
X1367693Y977710D1*
X1374971Y978863D1*
X1382341D1*
X1389620Y977710D1*
X1396642Y975427D1*
X1396652Y1323046D1*
X1311434Y1408278D1*
X1306383Y1409197D1*
X1299374Y1411474D1*
X1292808Y1414820D1*
X1286845Y1419151D1*
X1281634Y1424362D1*
X1277303Y1430325D1*
X1273957Y1436891D1*
X1271680Y1443900D1*
X1270527Y1451179D1*
Y1458548D1*
X1271680Y1465827D1*
X1273957Y1472836D1*
X1277303Y1479402D1*
X1281634Y1485365D1*
X1286845Y1490576D1*
X1292808Y1494907D1*
X1299374Y1498253D1*
X1303374Y1499682D1*
X1297040Y1507275D1*
X1293789Y1512140D1*
X1290930Y1517246D1*
X1288480Y1522560D1*
X1286455Y1528050D1*
X1284866Y1533682D1*
X1283725Y1539421D1*
X1283037Y1545232D1*
X1282807Y1551079D1*
X1283037Y1556926D1*
X1283725Y1562737D1*
X1284866Y1568476D1*
X1286455Y1574108D1*
X1288480Y1579598D1*
X1290930Y1584912D1*
X1293789Y1590017D1*
X1297040Y1594883D1*
X1300663Y1599478D1*
X1304635Y1603775D1*
X1308931Y1607747D1*
X1313527Y1611370D1*
X1318392Y1614621D1*
X1323498Y1617480D1*
X1328812Y1619930D1*
X1334302Y1621955D1*
X1339934Y1623543D1*
X1345673Y1624685D1*
X1351484Y1625373D1*
X1375703Y1625602D1*
X1418296Y1625373D1*
X1424107Y1624685D1*
X1429846Y1623543D1*
X1435478Y1621955D1*
X1440968Y1619930D1*
X1446282Y1617480D1*
X1451387Y1614621D1*
X1456253Y1611370D1*
X1460848Y1607747D1*
X1465145Y1603775D1*
X1469117Y1599478D1*
X1472740Y1594883D1*
X1475991Y1590017D1*
X1478850Y1584912D1*
X1481300Y1579598D1*
X1483325Y1574108D1*
X1484913Y1568476D1*
X1486055Y1562737D1*
X1486743Y1556926D1*
X1486972Y1551079D1*
X1486743Y1545232D1*
X1486055Y1539421D1*
X1484913Y1533682D1*
X1483325Y1528050D1*
X1481300Y1522560D1*
X1478850Y1517246D1*
X1475991Y1512140D1*
X1472740Y1507275D1*
X1469117Y1502680D1*
X1465145Y1498383D1*
X1460848Y1494411D1*
X1456253Y1490788D1*
X1451387Y1487537D1*
X1446282Y1484678D1*
X1440968Y1482228D1*
X1435478Y1480203D1*
X1429846Y1478614D1*
X1424107Y1477473D1*
X1412472Y1476556D1*
X1359017Y1476555D1*
X1362012Y1469376D1*
X1363733Y1462210D1*
X1363897Y1460823D1*
X1462002Y1362545D1*
X1465426Y1357832D1*
X1468071Y1352642D1*
X1469871Y1347102D1*
X1470782Y1341348D1*
X1470896Y1292504D1*
Y917909D1*
X1474766Y914027D1*
X1534040Y914051D1*
X1527216Y921025D1*
X1523792Y925738D1*
X1521147Y930928D1*
X1519347Y936468D1*
X1518436Y942221D1*
X1518321Y991066D1*
Y1716177D1*
X1509846Y1713614D1*
X1504107Y1712473D1*
X1498296Y1711785D1*
X1483262Y1711555D1*
X1437331Y1711591D1*
X1473921Y1979042D2*
X1469117Y1972680D1*
X1466278Y1969608D1*
X1558356Y1969504D1*
X1564110Y1968593D1*
X1569660Y1966788D1*
X1569806Y1978096D1*
X1568849Y1979030D1*
X1473977Y1979035D1*
X1103571Y940412D2*
X1097702Y940640D1*
X1091890Y941328D1*
X1086151Y942470D1*
X1080519Y944058D1*
X1075030Y946084D1*
X1069716Y948533D1*
X1064610Y951393D1*
X1059745Y954644D1*
X1055149Y958266D1*
X1050852Y962238D1*
X1046880Y966535D1*
X1043258Y971130D1*
X1040007Y975996D1*
X1037148Y981101D1*
X1034698Y986415D1*
X1032672Y991905D1*
X1031084Y997537D1*
X1029942Y1003276D1*
X1029255Y1009087D1*
X1029025Y1014934D1*
X1029255Y1020781D1*
X1029942Y1026592D1*
X1031084Y1032332D1*
X1032672Y1037963D1*
X1034698Y1043453D1*
X1037148Y1048767D1*
X1040007Y1053873D1*
X1043258Y1058738D1*
X1046880Y1063334D1*
X1050852Y1067631D1*
X1055149Y1071603D1*
X1059745Y1075225D1*
X1064610Y1078476D1*
X1069716Y1081335D1*
X1075030Y1083785D1*
X1080519Y1085811D1*
X1086151Y1087399D1*
X1091890Y1088540D1*
X1097702Y1089228D1*
X1121921Y1089458D1*
X1164514Y1089228D1*
X1170325Y1088540D1*
X1176064Y1087399D1*
X1181696Y1085811D1*
X1187186Y1083785D1*
X1192500Y1081335D1*
X1197605Y1078476D1*
X1202471Y1075225D1*
X1207066Y1071603D1*
X1211363Y1067631D1*
X1215335Y1063334D1*
X1218958Y1058738D1*
X1222209Y1053873D1*
X1225068Y1048767D1*
X1227518Y1043453D1*
X1229543Y1037963D1*
X1231131Y1032332D1*
X1232273Y1026592D1*
X1232961Y1020781D1*
X1233190Y1014934D1*
X1232961Y1009087D1*
X1232273Y1003276D1*
X1231131Y997537D1*
X1229543Y991905D1*
X1227518Y986415D1*
X1225068Y981101D1*
X1222209Y975996D1*
X1218958Y971130D1*
X1215335Y966535D1*
X1211363Y962238D1*
X1207066Y958266D1*
X1202471Y954644D1*
X1197605Y951393D1*
X1192500Y948533D1*
X1187186Y946084D1*
X1181696Y944058D1*
X1176064Y942470D1*
X1170325Y941328D1*
X1158690Y940412D1*
X1103549Y940447D1*
X1103571Y470412D2*
X1097702Y470640D1*
X1091890Y471328D1*
X1086151Y472470D1*
X1080519Y474058D1*
X1075030Y476084D1*
X1069716Y478533D1*
X1064610Y481393D1*
X1059745Y484644D1*
X1055149Y488266D1*
X1050852Y492238D1*
X1046880Y496535D1*
X1043258Y501130D1*
X1040007Y505996D1*
X1037148Y511101D1*
X1034698Y516415D1*
X1032672Y521905D1*
X1031084Y527537D1*
X1029942Y533276D1*
X1029255Y539087D1*
X1029025Y544934D1*
X1029255Y550781D1*
X1029942Y556592D1*
X1031084Y562332D1*
X1032672Y567963D1*
X1034698Y573453D1*
X1037148Y578767D1*
X1040007Y583873D1*
X1043258Y588738D1*
X1046880Y593334D1*
X1050852Y597631D1*
X1055149Y601603D1*
X1059745Y605225D1*
X1064610Y608476D1*
X1069716Y611335D1*
X1075030Y613785D1*
X1080519Y615811D1*
X1086151Y617399D1*
X1091890Y618540D1*
X1097702Y619228D1*
X1121921Y619458D1*
X1164514Y619228D1*
X1170325Y618540D1*
X1176064Y617399D1*
X1181696Y615811D1*
X1187186Y613785D1*
X1192500Y611335D1*
X1197605Y608476D1*
X1202471Y605225D1*
X1207066Y601603D1*
X1211363Y597631D1*
X1215335Y593334D1*
X1218958Y588738D1*
X1222209Y583873D1*
X1225068Y578767D1*
X1227518Y573453D1*
X1229543Y567963D1*
X1231131Y562332D1*
X1232273Y556592D1*
X1232961Y550781D1*
X1233190Y544934D1*
X1232961Y539087D1*
X1232273Y533276D1*
X1231131Y527537D1*
X1229543Y521905D1*
X1227518Y516415D1*
X1225068Y511101D1*
X1222209Y505996D1*
X1218958Y501130D1*
X1215335Y496535D1*
X1211363Y492238D1*
X1207066Y488266D1*
X1202471Y484644D1*
X1197605Y481393D1*
X1192500Y478533D1*
X1187186Y476084D1*
X1181696Y474058D1*
X1176064Y472470D1*
X1170325Y471328D1*
X1158690Y470412D1*
X1103549Y470447D1*
X623571Y470412D2*
X617702Y470640D1*
X611890Y471328D1*
X606151Y472470D1*
X600519Y474058D1*
X595030Y476084D1*
X589716Y478533D1*
X584610Y481393D1*
X579745Y484644D1*
X575149Y488266D1*
X570852Y492238D1*
X566880Y496535D1*
X563258Y501130D1*
X560007Y505996D1*
X557148Y511101D1*
X554698Y516415D1*
X552672Y521905D1*
X551084Y527537D1*
X549942Y533276D1*
X549255Y539087D1*
X549025Y544934D1*
X549255Y550781D1*
X549942Y556592D1*
X551084Y562332D1*
X552672Y567963D1*
X554698Y573453D1*
X557148Y578767D1*
X560007Y583873D1*
X563258Y588738D1*
X566880Y593334D1*
X570852Y597631D1*
X575149Y601603D1*
X579745Y605225D1*
X584610Y608476D1*
X589716Y611335D1*
X595030Y613785D1*
X600519Y615811D1*
X606151Y617399D1*
X611890Y618540D1*
X617702Y619228D1*
X641921Y619458D1*
X684514Y619228D1*
X690325Y618540D1*
X696064Y617399D1*
X701696Y615811D1*
X707186Y613785D1*
X712500Y611335D1*
X717605Y608476D1*
X722471Y605225D1*
X727066Y601603D1*
X731363Y597631D1*
X735335Y593334D1*
X738958Y588738D1*
X742209Y583873D1*
X745068Y578767D1*
X747518Y573453D1*
X749543Y567963D1*
X751131Y562332D1*
X752273Y556592D1*
X752961Y550781D1*
X753190Y544934D1*
X752961Y539087D1*
X752273Y533276D1*
X751131Y527537D1*
X749543Y521905D1*
X747518Y516415D1*
X745068Y511101D1*
X742209Y505996D1*
X738958Y501130D1*
X735335Y496535D1*
X731363Y492238D1*
X727066Y488266D1*
X722471Y484644D1*
X717605Y481393D1*
X712500Y478533D1*
X707186Y476084D1*
X701696Y474058D1*
X696064Y472470D1*
X690325Y471328D1*
X678690Y470412D1*
X623549Y470447D1*
X623571Y940412D2*
X617702Y940640D1*
X611890Y941328D1*
X606151Y942470D1*
X600519Y944058D1*
X595030Y946084D1*
X589716Y948533D1*
X584610Y951393D1*
X579745Y954644D1*
X575149Y958266D1*
X570852Y962238D1*
X566880Y966535D1*
X563258Y971130D1*
X560007Y975996D1*
X557148Y981101D1*
X554698Y986415D1*
X552672Y991905D1*
X551084Y997537D1*
X549942Y1003276D1*
X549255Y1009087D1*
X549025Y1014934D1*
X549255Y1020781D1*
X549942Y1026592D1*
X551084Y1032332D1*
X552672Y1037963D1*
X554698Y1043453D1*
X557148Y1048767D1*
X560007Y1053873D1*
X563258Y1058738D1*
X566880Y1063334D1*
X570852Y1067631D1*
X575149Y1071603D1*
X579745Y1075225D1*
X584610Y1078476D1*
X589716Y1081335D1*
X595030Y1083785D1*
X600519Y1085811D1*
X606151Y1087399D1*
X611890Y1088540D1*
X617702Y1089228D1*
X641921Y1089458D1*
X684514Y1089228D1*
X690325Y1088540D1*
X696064Y1087399D1*
X701696Y1085811D1*
X707186Y1083785D1*
X712500Y1081335D1*
X717605Y1078476D1*
X722471Y1075225D1*
X727066Y1071603D1*
X731363Y1067631D1*
X735335Y1063334D1*
X738958Y1058738D1*
X742209Y1053873D1*
X745068Y1048767D1*
X747518Y1043453D1*
X749543Y1037963D1*
X751131Y1032332D1*
X752273Y1026592D1*
X752961Y1020781D1*
X753190Y1014934D1*
X752961Y1009087D1*
X752273Y1003276D1*
X751131Y997537D1*
X749543Y991905D1*
X747518Y986415D1*
X745068Y981101D1*
X742209Y975996D1*
X738958Y971130D1*
X735335Y966535D1*
X731363Y962238D1*
X727066Y958266D1*
X722471Y954644D1*
X717605Y951393D1*
X712500Y948533D1*
X707186Y946084D1*
X701696Y944058D1*
X696064Y942470D1*
X690325Y941328D1*
X678690Y940412D1*
X623549Y940447D1*
X1644781Y965409D2*
X1638911Y965638D1*
X1633100Y966326D1*
X1627361Y967467D1*
X1621729Y969056D1*
X1616240Y971081D1*
X1610926Y973531D1*
X1605820Y976390D1*
X1600955Y979641D1*
X1592549Y986786D1*
X1592566Y960502D1*
X1596435Y956641D1*
X2213852Y956665D1*
X2218109Y959587D1*
X2224676Y962933D1*
X2231685Y965210D1*
X2238963Y966363D1*
X2246333D1*
X2253612Y965210D1*
X2260634Y962927D1*
X2260644Y1068755D1*
X2257723Y1073008D1*
X2254377Y1079575D1*
X2252099Y1086584D1*
X2250947Y1093862D1*
Y1101232D1*
X2252099Y1108511D1*
X2254377Y1115520D1*
X2257723Y1122086D1*
X2262054Y1128048D1*
X2267265Y1133259D1*
X2273227Y1137591D1*
X2279794Y1140937D1*
X2286803Y1143214D1*
X2294082Y1144367D1*
X2301451D1*
X2308730Y1143214D1*
X2310851Y1142616D1*
X2309885Y1145522D1*
X1687874Y1145528D1*
X1681480Y1142905D1*
X1674314Y1141185D1*
X1666967Y1140606D1*
X1659620Y1141185D1*
X1652454Y1142905D1*
X1645646Y1145725D1*
X1639362Y1149576D1*
X1633758Y1154362D1*
X1628972Y1159966D1*
X1625121Y1166249D1*
X1622301Y1173058D1*
X1620581Y1180224D1*
X1620003Y1187571D1*
X1620581Y1194918D1*
X1622301Y1202084D1*
X1625121Y1208892D1*
X1628972Y1215176D1*
X1633758Y1220780D1*
X1639362Y1225566D1*
X1645646Y1229417D1*
X1652454Y1232237D1*
X1659620Y1233957D1*
X1666967Y1234535D1*
X1674314Y1233957D1*
X1681480Y1232237D1*
X1687805Y1229640D1*
X1687807Y1309379D1*
X1809295D1*
Y1294990D1*
X1816812Y1300428D1*
X1825305Y1304755D1*
X1834371Y1307701D1*
X1843785Y1309192D1*
X1853317D1*
X1862732Y1307701D1*
X1871797Y1304755D1*
X1880290Y1300428D1*
X1888001Y1294825D1*
X1894741Y1288085D1*
X1896575Y1285759D1*
X1902361Y1288085D1*
X1909101Y1294825D1*
X1916812Y1300428D1*
X1925305Y1304755D1*
X1934371Y1307701D1*
X1943785Y1309192D1*
X1953317D1*
X1962732Y1307701D1*
X1971797Y1304755D1*
X1980290Y1300428D1*
X1988001Y1294825D1*
X1994741Y1288085D1*
X1996575Y1285759D1*
X2002361Y1288085D1*
X2009101Y1294825D1*
X2016812Y1300428D1*
X2025305Y1304755D1*
X2034371Y1307701D1*
X2043785Y1309192D1*
X2053317D1*
X2062732Y1307701D1*
X2071797Y1304755D1*
X2080290Y1300428D1*
X2088001Y1294825D1*
X2094741Y1288085D1*
X2098533Y1283085D1*
X2102361Y1288085D1*
X2109101Y1294825D1*
X2116812Y1300428D1*
X2125305Y1304755D1*
X2134371Y1307701D1*
X2143785Y1309192D1*
X2153317D1*
X2162732Y1307701D1*
X2171797Y1304755D1*
X2180290Y1300428D1*
X2188001Y1294825D1*
X2194741Y1288085D1*
X2196575Y1285759D1*
X2202361Y1288085D1*
X2209101Y1294825D1*
X2216812Y1300428D1*
X2225305Y1304755D1*
X2234371Y1307701D1*
X2243785Y1309192D1*
X2253317D1*
X2262732Y1307701D1*
X2271797Y1304755D1*
X2280290Y1300428D1*
X2288001Y1294825D1*
X2294741Y1288085D1*
X2296575Y1285759D1*
X2302361Y1288085D1*
X2309101Y1294825D1*
X2316812Y1300428D1*
X2325305Y1304755D1*
X2334371Y1307701D1*
X2343785Y1309192D1*
X2353317D1*
X2359826Y1308279D1*
X2293933Y1374158D1*
X2244481Y1374173D1*
X2245728Y1368445D1*
X2246306Y1361098D1*
X2245728Y1353752D1*
X2244007Y1346586D1*
X2241187Y1339777D1*
X2237336Y1333493D1*
X2232550Y1327889D1*
X2226946Y1323103D1*
X2220663Y1319253D1*
X2213854Y1316432D1*
X2206688Y1314712D1*
X2199341Y1314134D1*
X2191994Y1314712D1*
X2184828Y1316432D1*
X2178020Y1319253D1*
X2171736Y1323103D1*
X2170639Y1323968D1*
X1603712Y1324091D1*
X1597959Y1325002D1*
X1595143Y1325797D1*
X1592566Y1318231D1*
Y1093129D1*
X1600955Y1100223D1*
X1605820Y1103474D1*
X1610926Y1106333D1*
X1616240Y1108783D1*
X1621729Y1110808D1*
X1627361Y1112396D1*
X1633100Y1113538D1*
X1638911Y1114226D1*
X1663131Y1114455D1*
X1705724Y1114226D1*
X1711535Y1113538D1*
X1717274Y1112396D1*
X1722906Y1110808D1*
X1728396Y1108783D1*
X1733710Y1106333D1*
X1738815Y1103474D1*
X1743681Y1100223D1*
X1748276Y1096600D1*
X1752573Y1092628D1*
X1756545Y1088331D1*
X1760168Y1083736D1*
X1763418Y1078870D1*
X1766278Y1073765D1*
X1768727Y1068451D1*
X1770753Y1062961D1*
X1772341Y1057329D1*
X1773483Y1051590D1*
X1774171Y1045779D1*
X1774400Y1039932D1*
X1774171Y1034085D1*
X1773483Y1028274D1*
X1772341Y1022535D1*
X1770753Y1016903D1*
X1768727Y1011413D1*
X1766278Y1006099D1*
X1763418Y1000993D1*
X1760168Y996128D1*
X1756545Y991533D1*
X1752573Y987236D1*
X1748276Y983264D1*
X1743681Y979641D1*
X1738815Y976390D1*
X1733710Y973531D1*
X1728396Y971081D1*
X1722906Y969056D1*
X1717274Y967467D1*
X1711535Y966326D1*
X1699899Y965409D1*
X1644759Y965444D1*
X2124781Y965409D2*
X2118911Y965638D1*
X2113100Y966326D1*
X2107361Y967467D1*
X2101729Y969056D1*
X2096240Y971081D1*
X2090926Y973531D1*
X2085820Y976390D1*
X2080955Y979641D1*
X2076359Y983264D1*
X2072062Y987236D1*
X2068090Y991533D1*
X2064468Y996128D1*
X2061217Y1000993D1*
X2058357Y1006099D1*
X2055908Y1011413D1*
X2053882Y1016903D1*
X2052294Y1022535D1*
X2051152Y1028274D1*
X2050465Y1034085D1*
X2050235Y1039932D1*
X2050465Y1045779D1*
X2051152Y1051590D1*
X2052294Y1057329D1*
X2053882Y1062961D1*
X2055908Y1068451D1*
X2058357Y1073765D1*
X2061217Y1078870D1*
X2064468Y1083736D1*
X2068090Y1088331D1*
X2072062Y1092628D1*
X2076359Y1096600D1*
X2080955Y1100223D1*
X2085820Y1103474D1*
X2090926Y1106333D1*
X2096240Y1108783D1*
X2101729Y1110808D1*
X2107361Y1112396D1*
X2113100Y1113538D1*
X2118911Y1114226D1*
X2143131Y1114455D1*
X2185724Y1114226D1*
X2191535Y1113538D1*
X2197274Y1112396D1*
X2202906Y1110808D1*
X2208396Y1108783D1*
X2213710Y1106333D1*
X2218815Y1103474D1*
X2223681Y1100223D1*
X2228276Y1096600D1*
X2232573Y1092628D1*
X2236545Y1088331D1*
X2240168Y1083736D1*
X2243418Y1078870D1*
X2246278Y1073765D1*
X2248727Y1068451D1*
X2250753Y1062961D1*
X2252341Y1057329D1*
X2253483Y1051590D1*
X2254171Y1045779D1*
X2254400Y1039932D1*
X2254171Y1034085D1*
X2253483Y1028274D1*
X2252341Y1022535D1*
X2250753Y1016903D1*
X2248727Y1011413D1*
X2246278Y1006099D1*
X2243418Y1000993D1*
X2240168Y996128D1*
X2236545Y991533D1*
X2232573Y987236D1*
X2228276Y983264D1*
X2223681Y979641D1*
X2218815Y976390D1*
X2213710Y973531D1*
X2208396Y971081D1*
X2202906Y969056D1*
X2197274Y967467D1*
X2191535Y966326D1*
X2179899Y965409D1*
X2124759Y965444D1*
X2052325Y587439D2*
X2055908Y598451D1*
X2058357Y603765D1*
X2061217Y608870D1*
X2064468Y613736D1*
X2068090Y618331D1*
X2072062Y622628D1*
X2076359Y626600D1*
X2080955Y630223D1*
X2085820Y633474D1*
X2090926Y636333D1*
X2096240Y638783D1*
X2101729Y640808D1*
X2107361Y642396D1*
X2113100Y643538D1*
X2118911Y644226D1*
X2143131Y644455D1*
X2185724Y644226D1*
X2191535Y643538D1*
X2197274Y642396D1*
X2202906Y640808D1*
X2208396Y638783D1*
X2213710Y636333D1*
X2218815Y633474D1*
X2223681Y630223D1*
X2228276Y626600D1*
X2232573Y622628D1*
X2236545Y618331D1*
X2240168Y613736D1*
X2243418Y608870D1*
X2246278Y603765D1*
X2248727Y598451D1*
X2250753Y592961D1*
X2252341Y587329D1*
X2253483Y581590D1*
X2254171Y575779D1*
X2254400Y569932D1*
X2254171Y564085D1*
X2253483Y558274D1*
X2252341Y552535D1*
X2250753Y546903D1*
X2248727Y541413D1*
X2246278Y536099D1*
X2243330Y530860D1*
X2333103Y530867D1*
X2320915Y543215D1*
X2317037Y548552D1*
X2314042Y554430D1*
X2312003Y560705D1*
X2310971Y567221D1*
X2310841Y607265D1*
Y850596D1*
X2296285Y836197D1*
X2291572Y832773D1*
X2286382Y830129D1*
X2280842Y828329D1*
X2275088Y827418D1*
X2226244Y827303D1*
X1812464D1*
X2052322Y587464D1*
X1246065Y2617711D2*
X1240195Y2617940D1*
X1234384Y2618627D1*
X1228645Y2619769D1*
X1223013Y2621357D1*
X1217523Y2623383D1*
X1212209Y2625833D1*
X1207104Y2628692D1*
X1202238Y2631943D1*
X1197643Y2635565D1*
X1191686Y2641333D1*
X1149693Y2641332D1*
X1030786Y2522393D1*
X1030783Y2168162D1*
X1102613Y2168039D1*
X1110502Y2166789D1*
X1118099Y2164321D1*
X1125215Y2160695D1*
X1131677Y2156000D1*
X1139043Y2148856D1*
X1144230Y2142783D1*
X1148404Y2135972D1*
X1151460Y2128593D1*
X1153325Y2120826D1*
X1153952Y2112864D1*
Y1865227D1*
X1182204Y1836974D1*
X1243754Y1836980D1*
X1230338Y1850553D1*
X1226914Y1855265D1*
X1224269Y1860455D1*
X1222469Y1865995D1*
X1221558Y1871749D1*
X1221444Y1920593D1*
X1221558Y2156330D1*
X1222469Y2162083D1*
X1224269Y2167623D1*
X1226914Y2172814D1*
X1230338Y2177526D1*
X1257907Y2205257D1*
X1262336Y2209040D1*
X1267303Y2212084D1*
X1272685Y2214313D1*
X1278349Y2215673D1*
X1284156Y2216130D1*
X1706908D1*
X1582975Y2340076D1*
X1508889Y2340083D1*
Y2469445D1*
X1534474D1*
X1534479Y2590034D1*
X1508889Y2590056D1*
Y2719419D1*
X1549402D1*
X1474977Y2793872D1*
X1445398Y2793894D1*
X1447183Y2788390D1*
X1448094Y2782637D1*
X1448209Y2733793D1*
Y2494768D1*
X1454086Y2490471D1*
X1459297Y2485260D1*
X1463629Y2479297D1*
X1466975Y2472731D1*
X1469252Y2465722D1*
X1470405Y2458443D1*
Y2451074D1*
X1469252Y2443795D1*
X1466975Y2436786D1*
X1463629Y2430220D1*
X1459297Y2424257D1*
X1454086Y2419046D1*
X1448124Y2414715D1*
X1441558Y2411369D1*
X1434549Y2409092D1*
X1427270Y2407939D1*
X1419901D1*
X1412622Y2409092D1*
X1405613Y2411369D1*
X1399046Y2414715D1*
X1393084Y2419046D1*
X1387873Y2424257D1*
X1384366Y2428986D1*
X1381054Y2432939D1*
X1378011Y2437905D1*
X1375781Y2443287D1*
X1374422Y2448951D1*
X1373965Y2454770D1*
X1373964Y2676343D1*
X1372036Y2669205D1*
X1370011Y2663715D1*
X1367561Y2658401D1*
X1364702Y2653295D1*
X1361451Y2648430D1*
X1357828Y2643834D1*
X1353856Y2639537D1*
X1349559Y2635565D1*
X1344964Y2631943D1*
X1340099Y2628692D1*
X1334993Y2625833D1*
X1329679Y2623383D1*
X1324189Y2621357D1*
X1318557Y2619769D1*
X1312818Y2618627D1*
X1301183Y2617711D1*
X1246042Y2617746D1*
X1152209Y2854060D2*
X1143013Y2856357D1*
X1137523Y2858383D1*
X1132209Y2860833D1*
X1123245Y2866270D1*
X1123243Y2846018D1*
X1126165Y2841759D1*
X1129510Y2835193D1*
X1131788Y2828184D1*
X1132671Y2823180D1*
X1138987Y2816852D1*
X1178843Y2816847D1*
X1161631Y2834223D1*
X1157753Y2839560D1*
X1154758Y2845438D1*
X1152717Y2851725D1*
X1295454Y2921387D2*
X1294766Y2915576D1*
X1293625Y2909836D1*
X1292036Y2904205D1*
X1290011Y2898715D1*
X1287561Y2893401D1*
X1284702Y2888295D1*
X1281451Y2883430D1*
X1277037Y2877978D1*
X1495669Y2877851D1*
X1502185Y2876819D1*
X1508471Y2874775D1*
X1508889Y2879713D1*
Y2953096D1*
X1291015Y2953106D1*
X1293625Y2944631D1*
X1294766Y2938892D1*
X1295454Y2933081D1*
X1295684Y2927234D1*
X1295454Y2921387D1*
X1166065Y2382711D2*
X1160195Y2382940D1*
X1154384Y2383627D1*
X1148645Y2384769D1*
X1143013Y2386357D1*
X1137523Y2388383D1*
X1132209Y2390833D1*
X1127104Y2393692D1*
X1122238Y2396943D1*
X1117643Y2400565D1*
X1113346Y2404537D1*
X1109374Y2408834D1*
X1105751Y2413430D1*
X1102500Y2418295D1*
X1099641Y2423401D1*
X1097191Y2428715D1*
X1095166Y2434205D1*
X1093577Y2439836D1*
X1092436Y2445576D1*
X1091748Y2451387D1*
X1091518Y2457234D1*
X1091748Y2463081D1*
X1092436Y2468892D1*
X1093577Y2474631D1*
X1095166Y2480263D1*
X1097191Y2485753D1*
X1099641Y2491067D1*
X1102500Y2496172D1*
X1105751Y2501037D1*
X1109374Y2505633D1*
X1113346Y2509930D1*
X1117643Y2513902D1*
X1122238Y2517524D1*
X1127104Y2520775D1*
X1132209Y2523635D1*
X1137523Y2526084D1*
X1143013Y2528110D1*
X1148645Y2529698D1*
X1154384Y2530840D1*
X1160195Y2531527D1*
X1184415Y2531757D1*
X1227007Y2531527D1*
X1232818Y2530840D1*
X1238557Y2529698D1*
X1244189Y2528110D1*
X1249679Y2526084D1*
X1254993Y2523635D1*
X1260099Y2520775D1*
X1264964Y2517524D1*
X1269559Y2513902D1*
X1273856Y2509930D1*
X1277828Y2505633D1*
X1281451Y2501037D1*
X1284702Y2496172D1*
X1287561Y2491067D1*
X1290011Y2485753D1*
X1292036Y2480263D1*
X1293625Y2474631D1*
X1294766Y2468892D1*
X1295454Y2463081D1*
X1295684Y2457234D1*
X1295454Y2451387D1*
X1294766Y2445576D1*
X1293625Y2439836D1*
X1292036Y2434205D1*
X1290011Y2428715D1*
X1287561Y2423401D1*
X1284702Y2418295D1*
X1281451Y2413430D1*
X1277828Y2408834D1*
X1273856Y2404537D1*
X1269559Y2400565D1*
X1264964Y2396943D1*
X1260099Y2393692D1*
X1254993Y2390833D1*
X1249679Y2388383D1*
X1244189Y2386357D1*
X1238557Y2384769D1*
X1232818Y2383627D1*
X1221183Y2382711D1*
X1166042Y2382746D1*
X686065Y2382711D2*
X680195Y2382940D1*
X674384Y2383627D1*
X668645Y2384769D1*
X663013Y2386357D1*
X657523Y2388383D1*
X652209Y2390833D1*
X647104Y2393692D1*
X642238Y2396943D1*
X637643Y2400565D1*
X633346Y2404537D1*
X629374Y2408834D1*
X625751Y2413430D1*
X622500Y2418295D1*
X619641Y2423401D1*
X617191Y2428715D1*
X615166Y2434205D1*
X613577Y2439836D1*
X612436Y2445576D1*
X611748Y2451387D1*
X611518Y2457234D1*
X611748Y2463081D1*
X612436Y2468892D1*
X613577Y2474631D1*
X615166Y2480263D1*
X617191Y2485753D1*
X619641Y2491067D1*
X622500Y2496172D1*
X625751Y2501037D1*
X629374Y2505633D1*
X633346Y2509930D1*
X637643Y2513902D1*
X642238Y2517524D1*
X647104Y2520775D1*
X652209Y2523635D1*
X657523Y2526084D1*
X663013Y2528110D1*
X668645Y2529698D1*
X674384Y2530840D1*
X680195Y2531527D1*
X704415Y2531757D1*
X747007Y2531527D1*
X752818Y2530840D1*
X758557Y2529698D1*
X764189Y2528110D1*
X769679Y2526084D1*
X774993Y2523635D1*
X780099Y2520775D1*
X784964Y2517524D1*
X789559Y2513902D1*
X793856Y2509930D1*
X797828Y2505633D1*
X801451Y2501037D1*
X804702Y2496172D1*
X807561Y2491067D1*
X810011Y2485753D1*
X812036Y2480263D1*
X813625Y2474631D1*
X814766Y2468892D1*
X815454Y2463081D1*
X815684Y2457234D1*
X815454Y2451387D1*
X814766Y2445576D1*
X813625Y2439836D1*
X812036Y2434205D1*
X810011Y2428715D1*
X807561Y2423401D1*
X804702Y2418295D1*
X801451Y2413430D1*
X797828Y2408834D1*
X793856Y2404537D1*
X789559Y2400565D1*
X784964Y2396943D1*
X780099Y2393692D1*
X774993Y2390833D1*
X769679Y2388383D1*
X764189Y2386357D1*
X758557Y2384769D1*
X752818Y2383627D1*
X741183Y2382711D1*
X686042Y2382746D1*
X686065Y2852711D2*
X680195Y2852940D1*
X674384Y2853627D1*
X668645Y2854769D1*
X663013Y2856357D1*
X657523Y2858383D1*
X652209Y2860833D1*
X647104Y2863692D1*
X642238Y2866943D1*
X637643Y2870565D1*
X633346Y2874537D1*
X629374Y2878834D1*
X625751Y2883430D1*
X622500Y2888295D1*
X619641Y2893401D1*
X617191Y2898715D1*
X615166Y2904205D1*
X613577Y2909836D1*
X612436Y2915576D1*
X611748Y2921387D1*
X611518Y2927234D1*
X611748Y2933081D1*
X612436Y2938892D1*
X613577Y2944631D1*
X615166Y2950263D1*
X617191Y2955753D1*
X619641Y2961067D1*
X622500Y2966172D1*
X625751Y2971037D1*
X629374Y2975633D1*
X633346Y2979930D1*
X637643Y2983902D1*
X642238Y2987524D1*
X647104Y2990775D1*
X652209Y2993635D1*
X657523Y2996084D1*
X663013Y2998110D1*
X668645Y2999698D1*
X674384Y3000840D1*
X680195Y3001527D1*
X704415Y3001757D1*
X747007Y3001527D1*
X752818Y3000840D1*
X758557Y2999698D1*
X764189Y2998110D1*
X769679Y2996084D1*
X774993Y2993635D1*
X780099Y2990775D1*
X784964Y2987524D1*
X789559Y2983902D1*
X793856Y2979930D1*
X797828Y2975633D1*
X801451Y2971037D1*
X804702Y2966172D1*
X807561Y2961067D1*
X810011Y2955753D1*
X812036Y2950263D1*
X813625Y2944631D1*
X814766Y2938892D1*
X815454Y2933081D1*
X815684Y2927234D1*
X815454Y2921387D1*
X814766Y2915576D1*
X813625Y2909836D1*
X812036Y2904205D1*
X810011Y2898715D1*
X807561Y2893401D1*
X804702Y2888295D1*
X801451Y2883430D1*
X797828Y2878834D1*
X793856Y2874537D1*
X789559Y2870565D1*
X784964Y2866943D1*
X780099Y2863692D1*
X774993Y2860833D1*
X769679Y2858383D1*
X764189Y2856357D1*
X758557Y2854769D1*
X752818Y2853627D1*
X741183Y2852711D1*
X686042Y2852746D1*
X1723799Y1715587D2*
X1756812D1*
X1936534Y1895324D1*
X1929780Y1897071D1*
X1920974Y1900719D1*
X1912847Y1905700D1*
X1905599Y1911890D1*
X1899408Y1919138D1*
X1898570Y1920393D1*
X1894741Y1915392D1*
X1888001Y1908652D1*
X1880290Y1903050D1*
X1871797Y1898722D1*
X1862732Y1895777D1*
X1853317Y1894286D1*
X1843785D1*
X1834371Y1895777D1*
X1825305Y1898722D1*
X1816812Y1903050D1*
X1809101Y1908652D1*
X1802361Y1915392D1*
X1798570Y1920393D1*
X1794741Y1915392D1*
X1788001Y1908652D1*
X1780290Y1903050D1*
X1771797Y1898722D1*
X1762732Y1895777D1*
X1753317Y1894286D1*
X1743785D1*
X1734371Y1895777D1*
X1725305Y1898722D1*
X1723766Y1899432D1*
X1723774Y1715557D1*
X2098533Y1620393D2*
X2094741Y1615392D1*
X2088001Y1608652D1*
X2080290Y1603050D1*
X2077998Y1601766D1*
X2084256Y1597778D1*
X2091504Y1591588D1*
X2097694Y1584340D1*
X2098533Y1583085D1*
X2102361Y1588085D1*
X2109101Y1594825D1*
X2116812Y1600428D1*
X2119105Y1601712D1*
X2112847Y1605700D1*
X2105599Y1611890D1*
X2099408Y1619138D1*
X2098570Y1620393D1*
X2060557Y1714341D2*
X2067322Y1712614D1*
X2076128Y1708966D1*
X2084256Y1703986D1*
X2091504Y1697795D1*
X2097694Y1690547D1*
X2098533Y1689292D1*
X2102361Y1694293D1*
X2109101Y1701033D1*
X2116812Y1706635D1*
X2125305Y1710963D1*
X2134371Y1713908D1*
X2143785Y1715399D1*
X2153317D1*
X2162732Y1713908D1*
X2171797Y1710963D1*
X2180290Y1706635D1*
X2188001Y1701033D1*
X2194741Y1694293D1*
X2196575Y1691966D1*
X2202361Y1694293D1*
X2209101Y1701033D1*
X2216812Y1706635D1*
X2225305Y1710963D1*
X2234371Y1713908D1*
X2243785Y1715399D1*
X2253317D1*
X2262732Y1713908D1*
X2271797Y1710963D1*
X2280290Y1706635D1*
X2288001Y1701033D1*
X2294741Y1694293D1*
X2296575Y1691966D1*
X2302361Y1694293D1*
X2309101Y1701033D1*
X2316812Y1706635D1*
X2325305Y1710963D1*
X2334371Y1713908D1*
X2343785Y1715399D1*
X2353317D1*
X2362732Y1713908D1*
X2371080Y1711227D1*
X2377451Y1717608D1*
X2063812Y1717584D1*
X2060582Y1714374D1*
X2196575Y1617719D2*
X2191504Y1611890D1*
X2184256Y1605700D1*
X2177998Y1601766D1*
X2184256Y1597778D1*
X2191504Y1591588D1*
X2192351Y1590671D1*
X2204710Y1590678D1*
X2209101Y1594825D1*
X2216812Y1600428D1*
X2219105Y1601712D1*
X2212847Y1605700D1*
X2205599Y1611890D1*
X2200527Y1617719D1*
X2296575D2*
X2291504Y1611890D1*
X2284256Y1605700D1*
X2277998Y1601766D1*
X2284256Y1597778D1*
X2291504Y1591588D1*
X2292351Y1590671D1*
X2304710Y1590678D1*
X2309101Y1594825D1*
X2316812Y1600428D1*
X2319105Y1601712D1*
X2312847Y1605700D1*
X2305599Y1611890D1*
X2300527Y1617719D1*
X2508589Y1239484D2*
X2507617Y1234455D1*
X2504671Y1225389D1*
X2500344Y1216896D1*
X2494741Y1209185D1*
X2488001Y1202445D1*
X2480290Y1196842D1*
X2471797Y1192515D1*
X2462732Y1189569D1*
X2453317Y1188078D1*
X2443785D1*
X2439807Y1188549D1*
X2439810Y1146010D1*
X2440766Y1145089D1*
X2532481Y1145083D1*
X2531629Y1150922D1*
X2531500Y1190966D1*
Y1262411D1*
X2508617Y1239499D1*
X2406515Y1504835D2*
X2402361Y1509185D1*
X2398570Y1514185D1*
X2394741Y1509185D1*
X2388001Y1502445D1*
X2380290Y1496842D1*
X2371797Y1492515D1*
X2362732Y1489569D1*
X2353317Y1488078D1*
X2343785D1*
X2334371Y1489569D1*
X2325305Y1492515D1*
X2316812Y1496842D1*
X2309101Y1502445D1*
X2304751Y1506599D1*
X2292392Y1506592D1*
X2288001Y1502445D1*
X2280290Y1496842D1*
X2271797Y1492515D1*
X2262732Y1489569D1*
X2253317Y1488078D1*
X2243785D1*
X2234371Y1489569D1*
X2225305Y1492515D1*
X2216812Y1496842D1*
X2209101Y1502445D1*
X2204751Y1506599D1*
X2192392Y1506592D1*
X2188001Y1502445D1*
X2180290Y1496842D1*
X2171797Y1492515D1*
X2162732Y1489569D1*
X2153317Y1488078D1*
X2143785D1*
X2134371Y1489569D1*
X2125305Y1492515D1*
X2116812Y1496842D1*
X2109101Y1502445D1*
X2102361Y1509185D1*
X2098570Y1514185D1*
X2094741Y1509185D1*
X2088001Y1502445D1*
X2080290Y1496842D1*
X2071797Y1492515D1*
X2062732Y1489569D1*
X2053317Y1488078D1*
X2043785D1*
X2034371Y1489569D1*
X2025305Y1492515D1*
X2016812Y1496842D1*
X2009101Y1502445D1*
X2004751Y1506599D1*
X1992392Y1506592D1*
X1988001Y1502445D1*
X1980290Y1496842D1*
X1971797Y1492515D1*
X1962732Y1489569D1*
X1953317Y1488078D1*
X1943785D1*
X1934371Y1489569D1*
X1925305Y1492515D1*
X1916812Y1496842D1*
X1909101Y1502445D1*
X1904751Y1506599D1*
X1892392Y1506592D1*
X1888001Y1502445D1*
X1880290Y1496842D1*
X1871797Y1492515D1*
X1862732Y1489569D1*
X1853317Y1488078D1*
X1843785D1*
X1834371Y1489569D1*
X1825305Y1492515D1*
X1816812Y1496842D1*
X1809101Y1502445D1*
X1804751Y1506599D1*
X1792392Y1506592D1*
X1790587Y1504835D1*
X1790465Y1493632D1*
X1789433Y1487116D1*
X1787394Y1480841D1*
X1784399Y1474963D1*
X1780521Y1469625D1*
X1769323Y1458244D1*
X2314632Y1458130D1*
X2321148Y1457098D1*
X2327423Y1455060D1*
X2333301Y1452064D1*
X2338638Y1448187D1*
X2367045Y1419963D1*
X2406502Y1380506D1*
X2406508Y1504825D1*
X1699108Y1513380D2*
X1694428Y1521058D1*
X1690780Y1529864D1*
X1688555Y1539133D1*
X1687807Y1548635D1*
X1688555Y1558138D1*
X1690825Y1567528D1*
X1685986Y1571609D1*
X1658424Y1599332D1*
X1654995Y1604055D1*
X1653892Y1600475D1*
Y1516470D1*
X1659620Y1517725D1*
X1666967Y1518303D1*
X1674314Y1517725D1*
X1681480Y1516005D1*
X1687857Y1513383D1*
X1699084Y1513382D1*
X3970773Y2148907D2*
X3966610Y2145993D1*
X3960043Y2142647D1*
X3953035Y2140370D1*
X3945756Y2139217D1*
X3938386D1*
X3931107Y2140370D1*
X3924098Y2142647D1*
X3917532Y2145993D1*
X3911570Y2150325D1*
X3906359Y2155536D1*
X3902027Y2161498D1*
X3898681Y2168064D1*
X3896404Y2175073D1*
X3895251Y2182352D1*
Y2189722D1*
X3896404Y2197000D1*
X3898681Y2204009D1*
X3902027Y2210576D1*
X3906359Y2216538D1*
X3911570Y2221749D1*
X3917532Y2226081D1*
X3924098Y2229426D1*
X3931107Y2231704D1*
X3938386Y2232857D1*
X3945756D1*
X3953035Y2231704D1*
X3960043Y2229426D1*
X3966610Y2226081D1*
X3970773Y2223167D1*
X4019042Y2223159D1*
X4025051Y2229003D1*
X4026063Y2229801D1*
X4021321Y2234082D1*
X4014730Y2241800D1*
X4014123Y2242708D1*
X3995899Y2242697D1*
X3991607Y2239733D1*
X3985041Y2236387D1*
X3978032Y2234110D1*
X3970753Y2232957D1*
X3963383D1*
X3956105Y2234110D1*
X3949096Y2236387D1*
X3942529Y2239733D1*
X3936567Y2244065D1*
X3931356Y2249276D1*
X3927024Y2255238D1*
X3923679Y2261804D1*
X3921401Y2268813D1*
X3920248Y2276092D1*
Y2283462D1*
X3921401Y2290741D1*
X3923679Y2297749D1*
X3927024Y2304316D1*
X3931356Y2310278D1*
X3936567Y2315489D1*
X3942529Y2319821D1*
X3949096Y2323167D1*
X3956105Y2325444D1*
X3963383Y2326597D1*
X3970753D1*
X3978032Y2325444D1*
X3985041Y2323167D1*
X3991607Y2319821D1*
X3995725Y2316943D1*
X4014112Y2316941D1*
X4017874Y2321826D1*
X4025051Y2329003D1*
X4026063Y2329801D1*
X4021321Y2334082D1*
X4014730Y2341800D1*
X4014123Y2342708D1*
X3985206Y2342697D1*
X3979722Y2337363D1*
X3975009Y2333939D1*
X3969819Y2331294D1*
X3964279Y2329494D1*
X3958525Y2328583D1*
X3909681Y2328468D1*
X3755702D1*
X3751490Y2325547D1*
X3744924Y2322201D1*
X3737915Y2319924D1*
X3730636Y2318771D1*
X3723267D1*
X3715988Y2319924D1*
X3708979Y2322201D1*
X3706192Y2323485D1*
X3706067Y1960445D1*
X3705108Y1954386D1*
X3703212Y1948552D1*
X3700427Y1943087D1*
X3696822Y1938124D1*
X3662260Y1903392D1*
X3649344Y1890477D1*
X3690885Y1848726D1*
X3694490Y1843763D1*
X3697275Y1838298D1*
X3699171Y1832464D1*
X3700130Y1826406D1*
X3700251Y1777407D1*
Y1738114D1*
X3729370Y1767044D1*
X3735582Y1771557D1*
X3742424Y1775043D1*
X3749726Y1777416D1*
X3757310Y1778617D1*
X3788709Y1778768D1*
X4020217D1*
X4020238Y1785456D1*
X4021391Y1792735D1*
X4023668Y1799744D1*
X4027014Y1806311D1*
X4029928Y1810474D1*
X4021503Y1815138D1*
X4002377D1*
Y1944500D1*
X4012891D1*
X4009426Y1950454D1*
X4005542Y1959831D1*
X4003173Y1969701D1*
X4002377Y1979819D1*
X4003173Y1989937D1*
X4005542Y1999806D1*
X4009426Y2009184D1*
X4014730Y2017837D1*
X4021321Y2025555D1*
X4026063Y2029801D1*
X4021321Y2034082D1*
X4014730Y2041800D1*
X4014123Y2042708D1*
X3920389Y2042811D1*
X3914636Y2043722D1*
X3909096Y2045522D1*
X3903906Y2048167D1*
X3899193Y2051591D1*
X3864574Y2086048D1*
X3757609Y2193175D1*
X3754185Y2197887D1*
X3751541Y2203077D1*
X3749741Y2208617D1*
X3748830Y2214371D1*
X3748715Y2247893D1*
X3744074Y2253340D1*
X3740224Y2259623D1*
X3737404Y2266432D1*
X3735683Y2273598D1*
X3735105Y2280945D1*
X3735683Y2288292D1*
X3737404Y2295458D1*
X3740224Y2302266D1*
X3744074Y2308550D1*
X3748861Y2314154D1*
X3754464Y2318940D1*
X3760748Y2322791D1*
X3767557Y2325611D1*
X3774723Y2327331D1*
X3782070Y2327909D1*
X3789416Y2327331D1*
X3796582Y2325611D1*
X3803391Y2322791D1*
X3809675Y2318940D1*
X3815279Y2314154D1*
X3820065Y2308550D1*
X3823915Y2302266D1*
X3826736Y2295458D1*
X3828456Y2288292D1*
X3829034Y2280945D1*
X3828456Y2273598D1*
X3826736Y2266432D1*
X3823915Y2259623D1*
X3822965Y2257927D1*
X3822959Y2232681D1*
X3938677Y2116942D1*
X4014125Y2116941D1*
X4017874Y2121826D1*
X4025051Y2129003D1*
X4026063Y2129801D1*
X4021321Y2134082D1*
X4014730Y2141800D1*
X4010289Y2148914D1*
X3970806Y2148915D1*
X2864009Y1413683D2*
X2862856Y1406404D1*
X2860579Y1399395D1*
X2857233Y1392829D1*
X2852901Y1386866D1*
X2847690Y1381655D1*
X2841728Y1377324D1*
X2835162Y1373978D1*
X2828153Y1371701D1*
X2820874Y1370548D1*
X2813504D1*
X2810629Y1370888D1*
X2815352Y1363294D1*
X2818173Y1356485D1*
X2819893Y1349319D1*
X2820471Y1341972D1*
X2819893Y1334626D1*
X2818173Y1327460D1*
X2815352Y1320651D1*
X2811502Y1314367D1*
X2806716Y1308763D1*
X2800692Y1303697D1*
X2908006Y1303705D1*
X2906648Y1312602D1*
Y1322133D1*
X2908139Y1331548D1*
X2911084Y1340613D1*
X2915412Y1349106D1*
X2921015Y1356818D1*
X2927755Y1363558D1*
X2932755Y1367349D1*
X2927755Y1371177D1*
X2921015Y1377917D1*
X2918973Y1380507D1*
X2911956Y1382062D1*
X2906575Y1384291D1*
X2901608Y1387335D1*
X2897179Y1391118D1*
X2863575Y1424714D1*
X2864154Y1417367D1*
X2864009Y1413683D1*
X3001654Y1367349D2*
X3006655Y1363558D1*
X3013395Y1356818D1*
X3018998Y1349106D1*
X3020874Y1345935D1*
X3026064Y1348580D1*
X3031604Y1350380D1*
X3037358Y1351291D1*
X3079133Y1351406D1*
X3026480Y1404024D1*
X3024976Y1398596D1*
X3021328Y1389790D1*
X3016348Y1381663D1*
X3010157Y1374415D1*
X3002909Y1368224D1*
X3001654Y1367386D1*
X4121261Y1944500D2*
X4131739D1*
Y1815138D1*
X4104216D1*
X4105053Y1809377D1*
X4108903Y1803093D1*
X4111724Y1796285D1*
X4113444Y1789119D1*
X4114022Y1781772D1*
X4113904Y1778763D1*
X4133390Y1778617D1*
X4137221Y1778162D1*
X4139833Y1780840D1*
Y2000128D1*
X4130754Y1991017D1*
X4131539Y1984894D1*
Y1974744D1*
X4129952Y1964719D1*
X4126815Y1955067D1*
X4122207Y1946023D1*
X4121182Y1944489D1*
X4014123Y2416930D2*
X4017874Y2421826D1*
X4025051Y2429003D1*
X4026063Y2429801D1*
X4021321Y2434082D1*
X4014730Y2441800D1*
X4014123Y2442708D1*
X3935973Y2442697D1*
X3913312Y2420051D1*
X3912382Y2414989D1*
X3910105Y2407980D1*
X3907484Y2402708D1*
X3940211Y2402713D1*
X3945732Y2408047D1*
X3950445Y2411471D1*
X3955635Y2414115D1*
X3961175Y2415915D1*
X3966929Y2416827D1*
X4014086Y2416941D1*
X4014123Y2516930D2*
X4017874Y2521826D1*
X4025051Y2529003D1*
X4026063Y2529801D1*
X4021321Y2534082D1*
X4015577Y2540725D1*
X3837650Y2540728D1*
X3713133Y2416199D1*
X3711379Y2409891D1*
X3715988Y2411257D1*
X3723267Y2412410D1*
X3730636D1*
X3737915Y2411257D1*
X3744924Y2408980D1*
X3751490Y2405634D1*
X3755654Y2402721D1*
X3825884Y2402713D1*
X3823326Y2407980D1*
X3821048Y2414989D1*
X3819895Y2422268D1*
Y2429638D1*
X3821048Y2436916D1*
X3823326Y2443925D1*
X3826671Y2450492D1*
X3831003Y2456454D1*
X3836214Y2461665D1*
X3842176Y2465997D1*
X3848743Y2469342D1*
X3855752Y2471620D1*
X3860756Y2472503D1*
X3896472Y2508047D1*
X3901185Y2511471D1*
X3906375Y2514115D1*
X3911915Y2515915D1*
X3917669Y2516827D1*
X3966513Y2516941D1*
X4014060D1*
X1638251Y2844259D2*
Y2833781D1*
X1553959D1*
X1668532Y2719233D1*
X1678644Y2719219D1*
X1688669Y2717631D1*
X1698322Y2714495D1*
X1707365Y2709887D1*
X1715577Y2703921D1*
X1722753Y2696745D1*
X1723552Y2695732D1*
X1727833Y2700474D1*
X1735551Y2707066D1*
X1736458Y2707672D1*
X1736447Y2845462D1*
X1731563Y2849278D1*
X1724386Y2856455D1*
X1723587Y2857468D1*
X1719306Y2852725D1*
X1711588Y2846134D1*
X1702934Y2840831D1*
X1693557Y2836947D1*
X1683688Y2834577D1*
X1673570Y2833781D1*
X1663451Y2834577D1*
X1653582Y2836947D1*
X1644205Y2840831D1*
X1638240Y2844337D1*
X1823552Y2857468D2*
X1819306Y2852725D1*
X1811588Y2846134D1*
X1810681Y2845528D1*
X1810692Y2707737D1*
X1815577Y2703921D1*
X1822753Y2696745D1*
X1823552Y2695732D1*
X1827833Y2700474D1*
X1835551Y2707066D1*
X1836458Y2707672D1*
X1836448Y2845462D1*
X1831563Y2849278D1*
X1824386Y2856455D1*
X1823587Y2857468D1*
X2067059Y2915752D2*
X2066524Y2923459D1*
X2067271Y2932962D1*
X2067784Y2935538D1*
X2050397Y2935551D1*
X2046494Y2931682D1*
X2046518Y2895230D1*
X2067015Y2915705D1*
X2114567Y2785359D2*
X2108497Y2786948D1*
X2099690Y2790596D1*
X2097172Y2791937D1*
Y2778050D1*
X2102347Y2781137D1*
X2109155Y2783957D1*
X2114527Y2785321D1*
X1631540Y2590056D2*
X1612665D1*
X1612660Y2469467D1*
X1631505Y2469445D1*
X1631526Y2590034D1*
X1723552Y2613743D2*
X1719306Y2609001D1*
X1715620Y2605594D1*
X1715613Y2453894D1*
X1722753Y2446771D1*
X1723552Y2445758D1*
X1727833Y2450500D1*
X1735551Y2457092D1*
X1744205Y2462395D1*
X1753582Y2466279D1*
X1763451Y2468649D1*
X1773570Y2469445D1*
X1783688Y2468649D1*
X1793557Y2466279D1*
X1802934Y2462395D1*
X1811588Y2457092D1*
X1819306Y2450500D1*
X1823552Y2445758D1*
X1827833Y2450500D1*
X1835551Y2457092D1*
X1836458Y2457698D1*
X1836447Y2542451D1*
X1830491Y2545964D1*
X1826054Y2549755D1*
X1784778Y2591030D1*
X1778644Y2590256D1*
X1768495D1*
X1758470Y2591844D1*
X1748817Y2594980D1*
X1739774Y2599588D1*
X1731563Y2605554D1*
X1724386Y2612731D1*
X1723587Y2613743D1*
X1938051Y2649663D2*
X1936464Y2639638D1*
X1936200Y2638702D1*
X1946707Y2638709D1*
X1946660Y2702839D1*
X1939651Y2700561D1*
X1932372Y2699409D1*
X1925003D1*
X1919575Y2700193D1*
X1925898Y2692756D1*
X1931201Y2684102D1*
X1935085Y2674725D1*
X1937454Y2664856D1*
X1938251Y2654738D1*
X1938051Y2649663D1*
X1723552Y2363769D2*
X1719306Y2359027D1*
X1711588Y2352436D1*
X1702934Y2347132D1*
X1693557Y2343248D1*
X1691056Y2342543D1*
X1787048Y2246568D1*
X1793284Y2250381D1*
X1800092Y2253201D1*
X1807258Y2254922D1*
X1808646Y2255086D1*
X1898322Y2345006D1*
X1888669Y2341870D1*
X1878644Y2340282D1*
X1868495D1*
X1858470Y2341870D1*
X1848817Y2345006D1*
X1839774Y2349614D1*
X1831563Y2355580D1*
X1824386Y2362757D1*
X1823587Y2363769D1*
X1819306Y2359027D1*
X1811588Y2352436D1*
X1802934Y2347132D1*
X1793557Y2343248D1*
X1783688Y2340879D1*
X1773570Y2340083D1*
X1763451Y2340879D1*
X1753582Y2343248D1*
X1744205Y2347132D1*
X1735551Y2352436D1*
X1727833Y2359027D1*
X1723587Y2363769D1*
X1938051Y2399689D2*
X1936464Y2389664D1*
X1933327Y2380011D1*
X1937758Y2384187D1*
X1972292Y2418720D1*
X1972274Y2564483D1*
X1914513Y2564464D1*
X1910667Y2560595D1*
X1910692Y2457758D1*
X1915577Y2453948D1*
X1922753Y2446771D1*
X1928719Y2438560D1*
X1933327Y2429516D1*
X1936464Y2419863D1*
X1938051Y2409839D1*
Y2399689D1*
X3567272Y2371664D2*
X3560250Y2369380D1*
X3552971Y2368227D1*
X3545601D1*
X3538322Y2369380D1*
X3531314Y2371658D1*
X3524747Y2375003D1*
X3518785Y2379335D1*
X3513574Y2384546D1*
X3509242Y2390508D1*
X3505896Y2397075D1*
X3503619Y2404084D1*
X3502466Y2411362D1*
Y2418732D1*
X3503619Y2426011D1*
X3505896Y2433020D1*
X3509137Y2439398D1*
X3504292Y2437475D1*
X3423276Y2356461D1*
X3423266Y2196562D1*
X3425889Y2190178D1*
X3427609Y2183012D1*
X3428188Y2175665D1*
X3427609Y2168318D1*
X3425889Y2161153D1*
X3423069Y2154344D1*
X3419218Y2148060D1*
X3414432Y2142456D1*
X3408828Y2137670D1*
X3402545Y2133820D1*
X3395736Y2130999D1*
X3392589Y2130112D1*
X3491558Y2129990D1*
X3497616Y2129030D1*
X3503450Y2127135D1*
X3508916Y2124350D1*
X3513878Y2120744D1*
X3548611Y2086182D1*
X3553102Y2081691D1*
X3558358Y2080331D1*
X3565167Y2077511D1*
X3567291Y2076322D1*
X3567282Y2371657D1*
X3610871Y2838533D2*
X3609718Y2831254D1*
X3607441Y2824245D1*
X3604095Y2817679D1*
X3601181Y2813515D1*
X3601173Y2669364D1*
X3794468Y2862637D1*
X3789940Y2861242D1*
X3784187Y2860331D1*
X3735343Y2860216D1*
X3607441Y2860190D1*
X3609718Y2853182D1*
X3610871Y2845903D1*
Y2838533D1*
X3369857Y2130112D2*
X3365183Y2131563D1*
X3365196Y2130146D1*
X1966128Y2168876D2*
X1969220Y2172981D1*
X1974431Y2178192D1*
X1980393Y2182524D1*
X1986959Y2185870D1*
X1993968Y2188147D1*
X2001247Y2189300D1*
X2008617D1*
X2015895Y2188147D1*
X2022917Y2185864D1*
X2022928Y2364356D1*
X1861200Y2202632D1*
X1860272Y2197572D1*
X1857995Y2190563D1*
X1854649Y2183997D1*
X1850317Y2178034D1*
X1845106Y2172823D1*
X1839731Y2168884D1*
X1966071Y2168883D1*
X3573728Y1848147D2*
X3569503Y1850413D1*
X3563541Y1854745D1*
X3558330Y1859956D1*
X3553998Y1865918D1*
X3550652Y1872484D1*
X3548375Y1879493D1*
X3547222Y1886772D1*
Y1894141D1*
X3548375Y1901420D1*
X3550652Y1908429D1*
X3553998Y1914996D1*
X3558330Y1920958D1*
X3563541Y1926169D1*
X3569503Y1930501D1*
X3576069Y1933846D1*
X3583078Y1936124D1*
X3584760Y1936458D1*
X3595403Y1947100D1*
X3590285Y1944994D1*
X3584621Y1943634D1*
X3578802Y1943178D1*
X3275987Y1943177D1*
X3277709Y1937781D1*
X3278621Y1932028D1*
X3278735Y1883184D1*
Y1842958D1*
X3565252Y1842933D1*
X3569503Y1845855D1*
X3573728Y1848121D1*
X3641516Y2464793D2*
X3645776Y2467291D1*
X3652584Y2470111D1*
X3657815Y2471446D1*
X3796093Y2609551D1*
X3791471Y2610216D1*
X3784474D1*
X3780223Y2607295D1*
X3773656Y2603949D1*
X3766647Y2601672D1*
X3759369Y2600519D1*
X3751999D1*
X3744720Y2601672D1*
X3737711Y2603949D1*
X3731145Y2607295D1*
X3725183Y2611626D1*
X3719972Y2616838D1*
X3715640Y2622800D1*
X3712294Y2629366D1*
X3710017Y2636375D1*
X3708864Y2643654D1*
Y2651023D1*
X3710017Y2658302D1*
X3712294Y2665311D1*
X3715640Y2671878D1*
X3719972Y2677840D1*
X3725183Y2683051D1*
X3731145Y2687382D1*
X3737711Y2690728D1*
X3744720Y2693006D1*
X3751999Y2694158D1*
X3759369D1*
X3766647Y2693006D1*
X3773656Y2690728D1*
X3780223Y2687382D1*
X3784386Y2684469D1*
X4097533Y2684346D1*
X4103287Y2683435D1*
X4108827Y2681635D1*
X4114017Y2678990D1*
X4118730Y2675566D1*
X4139824Y2654634D1*
X4139833Y3046583D1*
X3818718Y3046555D1*
X3835093Y3029999D1*
X3838517Y3025286D1*
X3841161Y3020096D1*
X3842961Y3014556D1*
X3843873Y3008802D1*
X3843987Y2959958D1*
X3844184Y2921217D1*
X3847530Y2927783D1*
X3851861Y2933745D1*
X3857072Y2938956D1*
X3863035Y2943288D1*
X3869601Y2946634D1*
X3876610Y2948911D1*
X3883889Y2950064D1*
X3891258D1*
X3898537Y2948911D1*
X3905546Y2946634D1*
X3912112Y2943288D1*
X3918075Y2938956D1*
X3923286Y2933745D1*
X3927617Y2927783D1*
X3930963Y2921217D1*
X3933240Y2914208D1*
X3934393Y2906929D1*
Y2899559D1*
X3933240Y2892280D1*
X3930963Y2885272D1*
X3927617Y2878705D1*
X3923286Y2872743D1*
X3918075Y2867532D1*
X3912112Y2863200D1*
X3905546Y2859854D1*
X3898537Y2857577D1*
X3893533Y2856694D1*
X3641535Y2604707D1*
X3641526Y2464804D1*
X2643271Y1086600D2*
X2651695Y1078176D1*
X2887633Y1078201D1*
X2888154Y1084038D1*
X2879525Y1086587D1*
X2643299D1*
X1299550Y1886193D2*
X1532766Y1886079D1*
X1538519Y1885167D1*
X1541335Y1884372D1*
X1541793Y1893648D1*
X1540043Y1895398D1*
X1306834Y1895488D1*
X1301081Y1896400D1*
X1298265Y1897195D1*
X1295688Y1896199D1*
Y1890063D1*
X1299557Y1886168D1*
X3128995Y1406524D2*
X3133537Y1406700D1*
X3128346Y1409344D1*
X3123634Y1412768D1*
X3089015Y1447225D1*
X3081174Y1455066D1*
X3081644Y1453858D1*
X3128966Y1406535D1*
D19*
X4067058Y1286131D3*
D20*
Y1148336D3*
D19*
X4035811Y1636094D3*
D20*
Y1498299D3*
D19*
X554927Y2111045D3*
D20*
Y2248840D3*
D19*
Y1817325D3*
D20*
Y1955121D3*
D23*
X2667205Y2954706D3*
D24*
Y2854706D3*
Y2754706D3*
Y2654706D3*
Y2554706D3*
Y2454706D3*
Y2354706D3*
Y2254706D3*
Y2154706D3*
Y2054706D3*
Y1954706D3*
Y1854706D3*
Y1754706D3*
Y1654706D3*
X2967205D3*
Y1754706D3*
Y1854706D3*
Y1954706D3*
Y2054706D3*
Y2154706D3*
Y2254706D3*
Y2354706D3*
Y2454706D3*
Y2554706D3*
Y2654706D3*
Y2754706D3*
Y2854706D3*
Y2954706D3*
D26*
X3523365Y1629845D3*
D27*
X3661160D3*
D26*
X3160903D3*
D27*
X3298698D3*
D26*
X1661060Y2129793D3*
D27*
X1759486D3*
D19*
X2710950Y479966D3*
D20*
X2848745D3*
D31*
X3092160Y1261134D3*
D32*
X3192160D3*
X3292160D3*
X3392160D3*
D31*
X3554612Y1267383D3*
D32*
X3654612D3*
X3754612D3*
X3854612D3*
D31*
X2186005Y2642239D3*
D32*
X2286005D3*
D31*
X3185900Y998709D3*
D32*
X3285900D3*
D31*
X3185900Y748693D3*
D32*
X3285900D3*
D31*
X3185900Y517509D3*
D32*
X3285900D3*
D31*
X3754591Y998709D3*
D32*
X3854591D3*
D31*
X3754591Y761186D3*
D32*
X3854591D3*
D31*
X3754591Y523664D3*
D32*
X3854591D3*
D31*
X2710950Y923669D3*
D32*
X2810950D3*
D31*
X2710950Y692444D3*
D32*
X2810950D3*
D34*
X1464890Y1786079D3*
X1384890Y2021079D3*
Y1551079D3*
X904890D3*
Y2021079D3*
X1211108Y779934D3*
X1131108Y1014934D3*
Y544934D3*
X651108D3*
Y1014934D3*
X1592318Y804932D3*
X1672318Y569932D3*
Y1039932D3*
X2152318D3*
Y569932D3*
X1273601Y2692234D3*
X1193601Y2927234D3*
Y2457234D3*
X713601D3*
Y2927234D3*
D19*
X554927Y1517357D3*
D20*
Y1655152D3*
D19*
Y1217388D3*
D20*
Y1355184D3*
D26*
X1748551Y1654843D3*
D27*
X1848551D3*
X1948551D3*
X2048551D3*
X2148551D3*
X2248551D3*
X2348551D3*
X2448551D3*
Y1954843D3*
X2348551D3*
X2248551D3*
X2148551D3*
X2048551D3*
X1948551D3*
X1848551D3*
X1748551D3*
D26*
Y1248635D3*
D27*
X1848551D3*
X1948551D3*
X2048551D3*
X2148551D3*
X2248551D3*
X2348551D3*
X2448551D3*
Y1548635D3*
X2348551D3*
X2248551D3*
X2148551D3*
X2048551D3*
X1948551D3*
X1848551D3*
X1748551D3*
D26*
X2667205Y1417367D3*
D27*
Y1317367D3*
Y1217367D3*
X2967205D3*
Y1317367D3*
Y1417367D3*
D31*
X4067058Y1879819D3*
D32*
Y1979819D3*
Y2079819D3*
Y2179819D3*
Y2279819D3*
Y2379819D3*
Y2479819D3*
Y2579819D3*
D31*
X1573570Y2898462D3*
D32*
X1673570D3*
X1773570D3*
X1873570D3*
D26*
X2442228Y2923459D3*
D27*
X2363488D3*
X2284748D3*
X2206008D3*
X2127268D3*
Y2844719D3*
X2206008D3*
X2284748D3*
X2363488D3*
X2442228D3*
D31*
X1573570Y2654738D3*
D32*
X1673570D3*
X1773570D3*
X1873570D3*
D31*
X1573570Y2404764D3*
D32*
X1673570D3*
X1773570D3*
X1873570D3*
D37*
X2179756Y2423512D3*
X2369756D3*
M02*
