M48
INCH
T01C0.0157
T02C0.032
T03C0.0354
T04C0.0433
T05C0.0551
T06C0.0571
%
T01
X+039421Y+021860
X+039671Y+022798
X+038667Y+024260
X+037270Y+023656
X+036671Y+024254
X+035493Y+024150
X+034893Y+024820
X+032137Y+025044
X+030735Y+022547
X+033261Y+020910
X+033812Y+021757
X+035438Y+020357
X+035940Y+018905
X+035940Y+018058
X+031609Y+018369
X+030763Y+017547
X+030822Y+015806
X+032160Y+015178
X+034453Y+013694
X+033942Y+010070
X+030164Y+010209
X+029297Y+010362
X+027558Y+008410
X+025674Y+006928
X+026225Y+006002
X+029359Y+006674
X+031178Y+006002
X+027735Y+013420
X+028172Y+014174
X+022978Y+010975
X+022426Y+009195
X+021993Y+013611
X+016670Y+014713
X+016670Y+011876
X+013787Y+009320
X+013173Y+014549
X+015306Y+020841
X+018146Y+022085
X+020049Y+021425
X+022530Y+023323
X+023885Y+025597
X+023885Y+027393
X+021237Y+027393
X+019287Y+027462
X+014236Y+024548
X+010861Y+028172
X+027735Y+028547
X+027735Y+026547
X+027735Y+024354
X+027735Y+023252
X+032734Y+027985
X+035641Y+028422
X+037517Y+029525
X+038876Y+029032
X+037557Y+026473
X+037821Y+022809
X+040671Y+017818
T02
X+021798Y+024235
X+023698Y+024235
T03
X+026672Y+029547
X+026672Y+028547
X+026672Y+027547
X+026672Y+026547
X+026672Y+025547
X+026672Y+024547
X+026672Y+023547
X+026672Y+022547
X+026672Y+021547
X+026672Y+020547
X+026672Y+019547
X+026672Y+018547
X+026672Y+017547
X+026672Y+016547
X+024486Y+016548
X+023486Y+016548
X+022486Y+016548
X+021486Y+016548
X+020486Y+016548
X+019486Y+016548
X+018486Y+016548
X+017486Y+016548
X+017486Y+015486
X+018486Y+015486
X+019486Y+015486
X+020486Y+015486
X+021486Y+015486
X+022486Y+015486
X+023486Y+015486
X+024486Y+015486
X+026672Y+014174
X+026672Y+013174
X+026672Y+012174
X+024486Y+012486
X+023486Y+012486
X+022486Y+012486
X+021486Y+012486
X+020486Y+012486
X+019486Y+012486
X+018486Y+012486
X+017486Y+012486
X+017486Y+019548
X+018486Y+019548
X+019486Y+019548
X+020486Y+019548
X+021486Y+019548
X+022486Y+019548
X+023486Y+019548
X+024486Y+019548
X+029672Y+019547
X+029672Y+018547
X+029672Y+017547
X+029672Y+016547
X+031609Y+016298
X+032987Y+016298
X+035234Y+016298
X+036612Y+016298
X+029672Y+014174
X+029672Y+013174
X+029672Y+012174
X+029672Y+020547
X+029672Y+021547
X+029672Y+022547
X+029672Y+023547
X+029672Y+024547
X+029672Y+025547
X+029672Y+026547
X+029672Y+027547
X+029672Y+028547
X+029672Y+029547
X+024422Y+029235
X+023635Y+029235
X+022847Y+029235
X+022060Y+029235
X+021273Y+029235
X+021273Y+028447
X+022060Y+028447
X+022847Y+028447
X+023635Y+028447
X+024422Y+028447
X+017595Y+021298
X+016611Y+021298
T04
X+030922Y+012611
X+031922Y+012611
X+032922Y+012611
X+033922Y+012611
X+035546Y+012674
X+036546Y+012674
X+037546Y+012674
X+038546Y+012674
X+038546Y+009987
X+037546Y+009987
X+037546Y+007612
X+038546Y+007612
X+038546Y+005237
X+037546Y+005237
X+032859Y+005175
X+031859Y+005175
X+031859Y+007487
X+032859Y+007487
X+032859Y+009987
X+031859Y+009987
X+028110Y+009237
X+027110Y+009237
X+027110Y+006924
X+028110Y+006924
X+040671Y+018798
X+040671Y+019798
X+040671Y+020798
X+040671Y+021798
X+040671Y+022798
X+040671Y+023798
X+040671Y+024798
X+040671Y+025798
X+022860Y+026422
X+021860Y+026422
X+018736Y+026547
X+017736Y+026547
X+016736Y+026547
X+015736Y+026547
X+015736Y+028985
X+016736Y+028985
X+017736Y+028985
X+018736Y+028985
X+018736Y+024048
X+017736Y+024048
X+016736Y+024048
X+015736Y+024048
T05
X+040671Y+012861
X+040671Y+011483
X+040358Y+014983
X+040358Y+016361
X+028487Y+004800
X+027110Y+004800
X+005549Y+012174
X+005549Y+013552
X+005549Y+015174
X+005549Y+016552
X+005549Y+018173
X+005549Y+019551
X+005549Y+021110
X+005549Y+022488
T06
X+014649Y+017861
X+013849Y+020211
X+013849Y+015511
X+009049Y+015511
X+009049Y+020211
X+007136Y+024572
X+007136Y+029272
X+011936Y+029272
X+012736Y+026922
X+011936Y+024572
X+011311Y+010149
X+012111Y+007799
X+011311Y+005449
X+006511Y+005449
X+006511Y+010149
X+015923Y+008049
X+016723Y+010399
X+016723Y+005699
X+021523Y+005699
X+021523Y+010399
T00
M30
