G04 DipTrace 3.2.0.1*
G04 TopSilk.gbr*
%MOIN*%
G04 #@! TF.FileFunction,Legend,Top*
G04 #@! TF.Part,Single*
%ADD10C,0.009843*%
%ADD21C,0.015422*%
%ADD35C,0.01542*%
%ADD74C,0.00772*%
%FSLAX26Y26*%
G04*
G70*
G90*
G75*
G01*
G04 TopSilk*
%LPD*%
X4122176Y1343218D2*
D10*
X4011940D1*
Y1091249D1*
X4122176D1*
Y1343218D1*
X4090929Y1693181D2*
X3980693D1*
Y1441213D1*
X4090929D1*
Y1693181D1*
X499808Y2053958D2*
X610045D1*
Y2305927D1*
X499808D1*
Y2053958D1*
Y1760239D2*
X610045D1*
Y2012207D1*
X499808D1*
Y1760239D1*
D21*
X3433664Y2041904D3*
X3483806Y2032703D2*
D10*
Y1914598D1*
X3503491D1*
Y2032703D1*
X3483806D1*
X2714841Y3013367D2*
Y1596045D1*
X2919569Y3013367D2*
Y1596045D1*
X2714841D2*
X2919569D1*
X2714841Y3013367D2*
X2793574D1*
X2919569D2*
X2840836D1*
X2793574D2*
G03X2840836Y3013367I23631J103D01*
G01*
X2060445Y2258643D2*
X2111587D1*
X2255322Y2119680D2*
X2204180D1*
X2485400Y2271142D2*
X2536542D1*
X3424940Y1629845D2*
G02X3424940Y1629845I167323J0D01*
G01*
X3465298Y1618032D2*
Y1641658D1*
X3453518Y1629845D2*
X3477111D1*
X3062478D2*
G02X3062478Y1629845I167323J0D01*
G01*
X3102836Y1618032D2*
Y1641658D1*
X3091056Y1629845D2*
X3114649D1*
X3211471Y2313409D2*
X3160329D1*
X3272818Y2739843D2*
X3323959D1*
X2392807Y2125929D2*
X2341665D1*
X3416552Y2739843D2*
X3467694D1*
X3129083D2*
X3180224D1*
X2441655Y2721094D2*
X2492797D1*
X1576415Y2129793D2*
G02X1576415Y2129793I133858J0D01*
G01*
X1602410Y2117986D2*
Y2141599D1*
X1590577Y2129793D2*
X1614216D1*
X2653864Y535084D2*
X2905832D1*
Y424848D1*
X2653864D1*
Y535084D1*
X1307066Y1358123D2*
Y1326627D1*
X1445583Y577738D2*
X1414087D1*
X2482724Y882142D2*
X2514220D1*
X1094588Y2270528D2*
Y2239031D1*
X3564110Y690273D2*
X3532614D1*
X4133189Y696919D2*
X4101693D1*
X3007919Y677727D2*
X2976423D1*
X3211304Y1917097D2*
X3187745D1*
X3211304Y1980026D2*
X3187745D1*
X3203890D2*
Y1917097D1*
X3211339Y1980026D2*
Y1917097D1*
X3042142Y1311139D2*
X3442178D1*
Y1211134D1*
X3042142D1*
Y1311139D1*
X3504594Y1317388D2*
X3904629D1*
Y1217383D1*
X3504594D1*
Y1317388D1*
X3722211Y2864052D2*
Y2470383D1*
X3824587Y2864052D2*
Y2470383D1*
X3722211D2*
X3824587D1*
X3722211Y2864052D2*
X3753704D1*
X3793093D2*
X3824587D1*
X3753704D2*
G03X3793093Y2864052I19694J11D01*
G01*
X2135993Y2692244D2*
X2336017D1*
Y2592239D1*
X2135993D1*
Y2692244D1*
X3135888Y1048714D2*
X3335912D1*
Y948709D1*
X3135888D1*
Y1048714D1*
Y798698D2*
X3335912D1*
Y698693D1*
X3135888D1*
Y798698D1*
Y567514D2*
X3335912D1*
Y467509D1*
X3135888D1*
Y567514D1*
X3704579Y1048714D2*
X3904603D1*
Y948709D1*
X3704579D1*
Y1048714D1*
Y811191D2*
X3904603D1*
Y711186D1*
X3704579D1*
Y811191D1*
Y573669D2*
X3904603D1*
Y473664D1*
X3704579D1*
Y573669D1*
X2660938Y973674D2*
X2860962D1*
Y873669D1*
X2660938D1*
Y973674D1*
Y742449D2*
X2860962D1*
Y642444D1*
X2660938D1*
Y742449D1*
X1564890Y1461079D2*
X674890D1*
Y2111079D2*
Y1461079D1*
Y2111079D2*
X1564890D1*
Y1461079D2*
Y2111079D1*
X1289880Y1551104D2*
X1264871D1*
Y1761054D1*
X1314889D1*
Y1786079D1*
Y1811104D1*
X1214853D2*
Y1761054D1*
X1264871D1*
X1314889Y1811104D2*
X1264871D1*
Y2021054D1*
Y1811104D2*
X1214853D1*
X1264871Y2021054D2*
X1289880D1*
X1314889Y1811104D2*
X1214853Y1761054D1*
X1189933Y1786079D2*
X929875D1*
X904866Y1761054D1*
Y1639049D2*
Y1761054D1*
Y1811104D2*
Y1934084D1*
Y1761054D2*
X891872Y1749094D1*
X1379859Y1786079D2*
X1339898D1*
X1311108Y454934D2*
X421108D1*
Y1104934D2*
Y454934D1*
Y1104934D2*
X1311108D1*
Y454934D2*
Y1104934D1*
X1036098Y544959D2*
X1011089D1*
Y754909D1*
X1061107D1*
Y779934D1*
Y804959D1*
X961071D2*
Y754909D1*
X1011089D1*
X1061107Y804959D2*
X1011089D1*
Y1014909D1*
Y804959D2*
X961071D1*
X1011089Y1014909D2*
X1036098D1*
X1061107Y804959D2*
X961071Y754909D1*
X936151Y779934D2*
X676093D1*
X651084Y754909D1*
Y632904D2*
Y754909D1*
Y804959D2*
Y927939D1*
Y754909D2*
X638090Y742949D1*
X1126077Y779934D2*
X1086116D1*
X1492318Y1129932D2*
X2382318D1*
Y479932D2*
Y1129932D1*
Y479932D2*
X1492318D1*
Y1129932D2*
Y479932D1*
X1767328Y1039907D2*
X1792337D1*
Y829957D1*
X1742319D1*
Y804932D1*
Y779907D1*
X1842355D2*
Y829957D1*
X1792337D1*
X1742319Y779907D2*
X1792337D1*
Y569957D1*
Y779907D2*
X1842355D1*
X1792337Y569957D2*
X1767328D1*
X1742319Y779907D2*
X1842355Y829957D1*
X1867275Y804932D2*
X2127333D1*
X2152342Y829957D1*
Y951962D2*
Y829957D1*
Y779907D2*
Y656927D1*
Y829957D2*
X2165336Y841917D1*
X1677349Y804932D2*
X1717310D1*
X1373601Y2367234D2*
X483601D1*
Y3017234D2*
Y2367234D1*
Y3017234D2*
X1373601D1*
Y2367234D2*
Y3017234D1*
X1098591Y2457259D2*
X1073582D1*
Y2667209D1*
X1123600D1*
Y2692234D1*
Y2717259D1*
X1023564D2*
Y2667209D1*
X1073582D1*
X1123600Y2717259D2*
X1073582D1*
Y2927209D1*
Y2717259D2*
X1023564D1*
X1073582Y2927209D2*
X1098591D1*
X1123600Y2717259D2*
X1023564Y2667209D1*
X998644Y2692234D2*
X738586D1*
X713577Y2667209D1*
Y2545204D2*
Y2667209D1*
Y2717259D2*
Y2840239D1*
Y2667209D2*
X700583Y2655249D1*
X1188570Y2692234D2*
X1148609D1*
X499808Y1460270D2*
X610045D1*
Y1712239D1*
X499808D1*
Y1460270D1*
Y1160302D2*
X610045D1*
Y1412270D1*
X499808D1*
Y1160302D1*
X1696976Y1907209D2*
X2500126D1*
Y1702476D2*
Y1907209D1*
X1696976Y1702476D2*
X2500126D1*
X1696976D2*
Y1781217D1*
Y1907209D2*
Y1828468D1*
Y1781217D2*
G03X1696976Y1828468I-13J23626D01*
G01*
Y1501002D2*
X2500126D1*
Y1296269D2*
Y1501002D1*
X1696976Y1296269D2*
X2500126D1*
X1696976D2*
Y1375009D1*
Y1501002D2*
Y1422261D1*
Y1375009D2*
G03X1696976Y1422261I-13J23626D01*
G01*
D21*
X3658640Y2035655D3*
X3708782Y2026454D2*
D10*
Y1908349D1*
X3728467D1*
Y2026454D1*
X3708782D1*
D21*
X3669310Y2255177D3*
X3619168Y2264378D2*
D10*
Y2382483D1*
X3599483D1*
Y2264378D1*
X3619168D1*
X2714838Y1132328D2*
X2919571D1*
X2714838Y1502407D2*
Y1132328D1*
X2919571Y1502407D2*
Y1132328D1*
X2714838Y1502407D2*
X2793579D1*
X2919571D2*
X2840831D1*
X2793579D2*
G03X2840831Y1502407I23626J15D01*
G01*
X3337771Y2478037D2*
X3436177D1*
Y2448497D1*
Y2330412D2*
Y2300871D1*
X3337771D1*
D35*
X3279141Y2487134D3*
X4017056Y1829855D2*
D10*
X4117058D1*
Y2629782D1*
X4017056D1*
Y1829855D1*
X1523552Y2948467D2*
X1923587D1*
Y2848462D1*
X1523552D1*
Y2948467D1*
X2489472Y2797475D2*
X2080024D1*
Y2970703D1*
X2489472D1*
Y2797475D1*
X1523552Y2704743D2*
X1923587D1*
Y2604738D1*
X1523552D1*
Y2704743D1*
Y2454769D2*
X1923587D1*
Y2354764D1*
X1523552D1*
Y2454769D1*
X2154749Y2338512D2*
X2394763D1*
X2154749Y2508512D2*
X2394763D1*
X2154749Y2358504D2*
X2394763D1*
Y2488520D2*
X2154749D1*
X2264752Y2453517D2*
X2284760D1*
Y2393507D1*
X2264752D1*
Y2453517D1*
X2299766D2*
Y2423512D1*
Y2393507D1*
X2249746Y2453517D2*
Y2423512D1*
Y2393507D1*
X2299766Y2423512D2*
X2324776D1*
X2249746D2*
X2224736D1*
X2154749Y2508512D2*
G03X2154749Y2338512I7J-85000D01*
G01*
X2394763D2*
G03X2394763Y2508512I-7J85000D01*
G01*
X2154749Y2488520D2*
G03X2154749Y2358504I23J-65008D01*
G01*
X2394763D2*
G03X2394763Y2488520I-23J65008D01*
G01*
X3948333Y1159928D2*
D74*
X3945902Y1164736D1*
X3938772Y1171921D1*
X3988957D1*
X3950710Y1189792D2*
X3948334D1*
X3943525Y1192169D1*
X3941148Y1194546D1*
X3938772Y1199354D1*
Y1208916D1*
X3941148Y1213669D1*
X3943525Y1216045D1*
X3948334Y1218477D1*
X3953087D1*
X3957895Y1216045D1*
X3965025Y1211292D1*
X3988957Y1187360D1*
Y1220854D1*
X3938717Y1236293D2*
X3988957Y1255416D1*
X3938717Y1274540D1*
X4020906Y1766349D2*
X3997030D1*
X3994653Y1744849D1*
X3997030Y1747226D1*
X4004215Y1749658D1*
X4011345D1*
X4018530Y1747226D1*
X4023338Y1742472D1*
X4025715Y1735287D1*
Y1730534D1*
X4023338Y1723349D1*
X4018530Y1718541D1*
X4011345Y1716164D1*
X4004215D1*
X3997030Y1718541D1*
X3994653Y1720973D1*
X3992221Y1725726D1*
X4041154Y1766404D2*
X4060277Y1716164D1*
X4079401Y1766404D1*
X476825Y2148972D2*
X426585Y2129794D1*
X476825Y2110671D1*
X460079Y2117856D2*
Y2141787D1*
X476825Y2164412D2*
X426641Y2197905D1*
X438524Y2249214D2*
X433770Y2246837D1*
X428962Y2242029D1*
X426585Y2237276D1*
Y2227714D1*
X428962Y2222906D1*
X433770Y2218153D1*
X438524Y2215721D1*
X445709Y2213344D1*
X457702D1*
X464832Y2215721D1*
X469640Y2218153D1*
X474393Y2222906D1*
X476825Y2227714D1*
Y2237276D1*
X474393Y2242029D1*
X469640Y2246837D1*
X464832Y2249214D1*
X476825Y1873188D2*
X426585Y1854010D1*
X476825Y1834886D1*
X460079Y1842071D2*
Y1866003D1*
X426585Y1888627D2*
X476825D1*
X450517Y1904067D2*
Y1925566D1*
X448085Y1932751D1*
X445709Y1935183D1*
X440955Y1937560D1*
X436147D1*
X431394Y1935183D1*
X428962Y1932751D1*
X426585Y1925566D1*
Y1904067D1*
X476825D1*
X450517Y1920813D2*
X476825Y1937560D1*
X3396777Y1847400D2*
X3377599Y1897640D1*
X3358476Y1847400D1*
X3365661Y1864146D2*
X3389592D1*
X3426587Y1897640D2*
X3421778Y1895263D1*
X3417025Y1890455D1*
X3414593Y1885702D1*
X3412217Y1878516D1*
Y1866523D1*
X3414593Y1859393D1*
X3417025Y1854585D1*
X3421778Y1849832D1*
X3426587Y1847400D1*
X3436148D1*
X3440902Y1849832D1*
X3445710Y1854585D1*
X3448087Y1859393D1*
X3450463Y1866523D1*
Y1878516D1*
X3448087Y1885702D1*
X3445710Y1890455D1*
X3440902Y1895263D1*
X3436148Y1897640D1*
X3426587D1*
X3470711Y1897584D2*
X3496964D1*
X3482649Y1878461D1*
X3489834D1*
X3494587Y1876085D1*
X3496964Y1873708D1*
X3499396Y1866523D1*
Y1861770D1*
X3496964Y1854585D1*
X3492211Y1849776D1*
X3485026Y1847400D1*
X3477841D1*
X3470711Y1849776D1*
X3468334Y1852208D1*
X3465902Y1856961D1*
X3538767Y1847400D2*
Y1897584D1*
X3514835Y1864146D1*
X3550705D1*
X3580514Y1897584D2*
X3573329Y1895208D1*
X3568521Y1888023D1*
X3566144Y1876085D1*
Y1868900D1*
X3568521Y1856961D1*
X3573329Y1849776D1*
X3580514Y1847400D1*
X3585267D1*
X3592453Y1849776D1*
X3597206Y1856961D1*
X3599638Y1868900D1*
Y1876085D1*
X3597206Y1888023D1*
X3592453Y1895208D1*
X3585267Y1897584D1*
X3580514D1*
X3597206Y1888023D2*
X3568521Y1856961D1*
X3615077Y1888023D2*
X3619885Y1890455D1*
X3627070Y1897584D1*
Y1847400D1*
X2839313Y2174710D2*
X2789073Y2155532D1*
X2839313Y2136409D1*
X2822566Y2143594D2*
Y2167525D1*
X2789073Y2206896D2*
X2839313D1*
X2789073Y2190150D2*
Y2223643D1*
X2805819Y2239082D2*
X2839313D1*
X2815381D2*
X2808196Y2246267D1*
X2805819Y2251076D1*
Y2258205D1*
X2808196Y2263014D1*
X2815381Y2265390D1*
X2839313D1*
X2815381D2*
X2808196Y2272575D1*
X2805819Y2277384D1*
Y2284514D1*
X2808196Y2289322D1*
X2815381Y2291754D1*
X2839313D1*
X2820189Y2307193D2*
Y2335878D1*
X2815381D1*
X2810572Y2333501D1*
X2808196Y2331125D1*
X2805819Y2326316D1*
Y2319131D1*
X2808196Y2314378D1*
X2813004Y2309570D1*
X2820189Y2307193D1*
X2824942D1*
X2832128Y2309570D1*
X2836881Y2314378D1*
X2839313Y2319131D1*
Y2326316D1*
X2836881Y2331125D1*
X2832128Y2335878D1*
X2808196Y2380002D2*
X2846498D1*
X2853627Y2377626D1*
X2856059Y2375249D1*
X2858436Y2370441D1*
Y2363256D1*
X2856059Y2358502D1*
X2815381Y2380002D2*
X2810628Y2375249D1*
X2808196Y2370441D1*
Y2363256D1*
X2810628Y2358502D1*
X2815381Y2353694D1*
X2822566Y2351317D1*
X2827374D1*
X2834504Y2353694D1*
X2839313Y2358502D1*
X2841689Y2363256D1*
Y2370441D1*
X2839313Y2375249D1*
X2834504Y2380002D1*
X2805819Y2424126D2*
X2839313D1*
X2813004D2*
X2808196Y2419373D1*
X2805819Y2414565D1*
Y2407435D1*
X2808196Y2402626D1*
X2813004Y2397873D1*
X2820189Y2395441D1*
X2824942D1*
X2832128Y2397873D1*
X2836881Y2402626D1*
X2839313Y2407435D1*
Y2414565D1*
X2836881Y2419373D1*
X2832128Y2424126D1*
X2789128Y2451504D2*
X2791504Y2444374D1*
X2796258Y2441942D1*
X2801066D1*
X2805819Y2444374D1*
X2808251Y2449127D1*
X2810628Y2458689D1*
X2813004Y2465874D1*
X2817813Y2470627D1*
X2822566Y2473004D1*
X2829751D1*
X2834504Y2470627D1*
X2836936Y2468250D1*
X2839313Y2461065D1*
Y2451504D1*
X2836936Y2444374D1*
X2834504Y2441942D1*
X2829751Y2439566D1*
X2822566D1*
X2817813Y2441942D1*
X2813004Y2446751D1*
X2810628Y2453880D1*
X2808251Y2463442D1*
X2805819Y2468250D1*
X2801066Y2470627D1*
X2796258D1*
X2791504Y2468250D1*
X2789128Y2461065D1*
Y2451504D1*
X1995203Y2191985D2*
X1990450Y2189609D1*
X1985642Y2184800D1*
X1983265Y2180047D1*
Y2170485D1*
X1985642Y2165677D1*
X1990450Y2160924D1*
X1995203Y2158492D1*
X2002388Y2156115D1*
X2014382D1*
X2021512Y2158492D1*
X2026320Y2160924D1*
X2031073Y2165677D1*
X2033505Y2170485D1*
Y2180047D1*
X2031073Y2184800D1*
X2026320Y2189608D1*
X2021512Y2191985D1*
X1992882Y2207424D2*
X1990450Y2212233D1*
X1983320Y2219418D1*
X2033505D1*
X2138938Y2184025D2*
X2134185Y2181649D1*
X2129377Y2176840D1*
X2127000Y2172087D1*
Y2162525D1*
X2129377Y2157717D1*
X2134185Y2152964D1*
X2138938Y2150532D1*
X2146123Y2148155D1*
X2158117D1*
X2165247Y2150532D1*
X2170055Y2152964D1*
X2174808Y2157717D1*
X2177240Y2162525D1*
Y2172087D1*
X2174808Y2176840D1*
X2170055Y2181649D1*
X2165247Y2184025D1*
X2138994Y2201896D2*
X2136617D1*
X2131809Y2204273D1*
X2129432Y2206649D1*
X2127055Y2211458D1*
Y2221020D1*
X2129432Y2225773D1*
X2131809Y2228149D1*
X2136617Y2230581D1*
X2141370D1*
X2146179Y2228149D1*
X2153308Y2223396D1*
X2177240Y2199464D1*
Y2232958D1*
X2420159Y2193734D2*
X2415406Y2191357D1*
X2410597Y2186549D1*
X2408221Y2181796D1*
Y2172234D1*
X2410597Y2167426D1*
X2415406Y2162672D1*
X2420159Y2160241D1*
X2427344Y2157864D1*
X2439337D1*
X2446467Y2160241D1*
X2451275Y2162672D1*
X2456029Y2167426D1*
X2458461Y2172234D1*
Y2181796D1*
X2456029Y2186549D1*
X2451276Y2191357D1*
X2446467Y2193734D1*
X2408276Y2213982D2*
Y2240235D1*
X2427399Y2225920D1*
Y2233105D1*
X2429776Y2237858D1*
X2432152Y2240235D1*
X2439337Y2242666D1*
X2444090D1*
X2451275Y2240235D1*
X2456084Y2235481D1*
X2458461Y2228296D1*
Y2221111D1*
X2456084Y2213981D1*
X2453652Y2211605D1*
X2448899Y2209173D1*
X3584543Y1646039D2*
X3582166Y1650792D1*
X3577358Y1655601D1*
X3572605Y1657977D1*
X3563043D1*
X3558235Y1655601D1*
X3553481Y1650792D1*
X3551050Y1646039D1*
X3548673Y1638854D1*
Y1626861D1*
X3551050Y1619731D1*
X3553481Y1614922D1*
X3558235Y1610169D1*
X3563043Y1607737D1*
X3572605D1*
X3577358Y1610169D1*
X3582166Y1614922D1*
X3584543Y1619731D1*
X3623914Y1607737D2*
Y1657922D1*
X3599982Y1624484D1*
X3635852D1*
X3223269Y1646039D2*
X3220893Y1650792D1*
X3216084Y1655601D1*
X3211331Y1657977D1*
X3201769D1*
X3196961Y1655601D1*
X3192208Y1650792D1*
X3189776Y1646039D1*
X3187399Y1638854D1*
Y1626861D1*
X3189776Y1619731D1*
X3192208Y1614922D1*
X3196961Y1610169D1*
X3201769Y1607737D1*
X3211331D1*
X3216084Y1610169D1*
X3220893Y1614922D1*
X3223269Y1619731D1*
X3267393Y1657922D2*
X3243517D1*
X3241140Y1636422D1*
X3243517Y1638799D1*
X3250702Y1641231D1*
X3257832D1*
X3265017Y1638799D1*
X3269825Y1634046D1*
X3272202Y1626861D1*
Y1622107D1*
X3269825Y1614922D1*
X3265017Y1610114D1*
X3257832Y1607737D1*
X3250702D1*
X3243517Y1610114D1*
X3241140Y1612546D1*
X3238708Y1617299D1*
X3095088Y2378971D2*
X3090335Y2376594D1*
X3085526Y2371786D1*
X3083150Y2367033D1*
Y2357471D1*
X3085526Y2352663D1*
X3090335Y2347909D1*
X3095088Y2345477D1*
X3102273Y2343101D1*
X3114266D1*
X3121396Y2345477D1*
X3126205Y2347909D1*
X3130958Y2352663D1*
X3133390Y2357471D1*
Y2367033D1*
X3130958Y2371786D1*
X3126205Y2376594D1*
X3121396Y2378971D1*
X3090335Y2423095D2*
X3085582Y2420718D1*
X3083205Y2413533D1*
Y2408780D1*
X3085582Y2401595D1*
X3092767Y2396787D1*
X3104705Y2394410D1*
X3116643D1*
X3126205Y2396787D1*
X3131013Y2401595D1*
X3133390Y2408780D1*
Y2411157D1*
X3131013Y2418286D1*
X3126205Y2423095D1*
X3119020Y2425471D1*
X3116643D1*
X3109458Y2423095D1*
X3104705Y2418286D1*
X3102328Y2411157D1*
Y2408780D1*
X3104705Y2401595D1*
X3109458Y2396787D1*
X3116643Y2394410D1*
X3207576Y2662435D2*
X3202823Y2660058D1*
X3198014Y2655250D1*
X3195638Y2650496D1*
Y2640935D1*
X3198014Y2636126D1*
X3202823Y2631373D1*
X3207576Y2628941D1*
X3214761Y2626565D1*
X3226755D1*
X3233884Y2628941D1*
X3238693Y2631373D1*
X3243446Y2636126D1*
X3245878Y2640935D1*
Y2650496D1*
X3243446Y2655250D1*
X3238693Y2660058D1*
X3233884Y2662435D1*
X3245878Y2687435D2*
X3195693Y2711367D1*
Y2677874D1*
X2276424Y2190302D2*
X2271671Y2187926D1*
X2266862Y2183117D1*
X2264486Y2178364D1*
Y2168802D1*
X2266862Y2163994D1*
X2271671Y2159241D1*
X2276424Y2156809D1*
X2283609Y2154432D1*
X2295602D1*
X2302732Y2156809D1*
X2307541Y2159241D1*
X2312294Y2163994D1*
X2314726Y2168802D1*
Y2178364D1*
X2312294Y2183117D1*
X2307541Y2187926D1*
X2302732Y2190302D1*
X2264541Y2217680D2*
X2266918Y2210550D1*
X2271671Y2208118D1*
X2276479D1*
X2281232Y2210550D1*
X2283664Y2215303D1*
X2286041Y2224865D1*
X2288417Y2232050D1*
X2293226Y2236803D1*
X2297979Y2239179D1*
X2305164D1*
X2309917Y2236803D1*
X2312349Y2234426D1*
X2314726Y2227241D1*
Y2217680D1*
X2312349Y2210550D1*
X2309917Y2208118D1*
X2305164Y2205741D1*
X2297979D1*
X2293226Y2208118D1*
X2288417Y2212926D1*
X2286041Y2220056D1*
X2283664Y2229618D1*
X2281232Y2234426D1*
X2276479Y2236803D1*
X2271671D1*
X2266918Y2234426D1*
X2264541Y2227241D1*
Y2217680D1*
X3351311Y2663623D2*
X3346558Y2661246D1*
X3341749Y2656438D1*
X3339373Y2651685D1*
Y2642123D1*
X3341749Y2637315D1*
X3346558Y2632561D1*
X3351311Y2630130D1*
X3358496Y2627753D1*
X3370489D1*
X3377619Y2630130D1*
X3382428Y2632561D1*
X3387181Y2637315D1*
X3389613Y2642123D1*
Y2651685D1*
X3387181Y2656438D1*
X3382428Y2661246D1*
X3377619Y2663623D1*
X3356119Y2710179D2*
X3363304Y2707747D1*
X3368113Y2702994D1*
X3370490Y2695809D1*
Y2693432D1*
X3368113Y2686247D1*
X3363304Y2681494D1*
X3356119Y2679062D1*
X3353743D1*
X3346558Y2681494D1*
X3341805Y2686247D1*
X3339428Y2693432D1*
Y2695809D1*
X3341805Y2702994D1*
X3346558Y2707747D1*
X3356119Y2710179D1*
X3368113D1*
X3380051Y2707747D1*
X3387236Y2702994D1*
X3389613Y2695809D1*
Y2691056D1*
X3387236Y2683871D1*
X3382428Y2681494D1*
X3063841Y2648718D2*
X3059088Y2646342D1*
X3054280Y2641533D1*
X3051903Y2636780D1*
Y2627218D1*
X3054280Y2622410D1*
X3059088Y2617657D1*
X3063841Y2615225D1*
X3071026Y2612848D1*
X3083020D1*
X3090149Y2615225D1*
X3094958Y2617657D1*
X3099711Y2622410D1*
X3102143Y2627218D1*
Y2636780D1*
X3099711Y2641533D1*
X3094958Y2646342D1*
X3090149Y2648718D1*
X3061520Y2664158D2*
X3059088Y2668966D1*
X3051958Y2676151D1*
X3102143D1*
X3051958Y2705960D2*
X3054335Y2698775D1*
X3061520Y2693967D1*
X3073458Y2691590D1*
X3080643D1*
X3092581Y2693967D1*
X3099766Y2698775D1*
X3102143Y2705960D1*
Y2710713D1*
X3099766Y2717898D1*
X3092581Y2722652D1*
X3080643Y2725084D1*
X3073458D1*
X3061520Y2722652D1*
X3054335Y2717899D1*
X3051958Y2710713D1*
Y2705960D1*
X3061520Y2722652D2*
X3092581Y2693967D1*
X2376413Y2640720D2*
X2371660Y2638344D1*
X2366852Y2633535D1*
X2364475Y2628782D1*
Y2619220D1*
X2366852Y2614412D1*
X2371660Y2609659D1*
X2376413Y2607227D1*
X2383598Y2604850D1*
X2395592D1*
X2402722Y2607227D1*
X2407530Y2609659D1*
X2412283Y2614412D1*
X2414715Y2619220D1*
Y2628782D1*
X2412283Y2633535D1*
X2407530Y2638344D1*
X2402722Y2640720D1*
X2374092Y2656159D2*
X2371660Y2660968D1*
X2364530Y2668153D1*
X2414715D1*
X2374092Y2683592D2*
X2371660Y2688401D1*
X2364530Y2695586D1*
X2414715D1*
X1690025Y2324936D2*
X1687649Y2329689D1*
X1682840Y2334497D1*
X1678087Y2336874D1*
X1668525D1*
X1663717Y2334497D1*
X1658964Y2329689D1*
X1656532Y2324936D1*
X1654155Y2317751D1*
Y2305757D1*
X1656532Y2298627D1*
X1658964Y2293819D1*
X1663717Y2289066D1*
X1668525Y2286634D1*
X1678087D1*
X1682840Y2289066D1*
X1687649Y2293819D1*
X1690025Y2298627D1*
X1705465Y2327257D2*
X1710273Y2329689D1*
X1717458Y2336819D1*
Y2286634D1*
X1735329Y2324881D2*
Y2327257D1*
X1737706Y2332066D1*
X1740082Y2334442D1*
X1744891Y2336819D1*
X1754452D1*
X1759206Y2334442D1*
X1761582Y2332066D1*
X1764014Y2327257D1*
Y2322504D1*
X1761582Y2317695D1*
X1756829Y2310566D1*
X1732897Y2286634D1*
X1766391D1*
X2722035Y596369D2*
X2719658Y601122D1*
X2714850Y605930D1*
X2710097Y608307D1*
X2700535D1*
X2695727Y605930D1*
X2690973Y601122D1*
X2688542Y596369D1*
X2686165Y589184D1*
Y577190D1*
X2688542Y570061D1*
X2690973Y565252D1*
X2695727Y560499D1*
X2700535Y558067D1*
X2710097D1*
X2714850Y560499D1*
X2719658Y565252D1*
X2722035Y570061D1*
X2751844Y608307D2*
X2747036Y605930D1*
X2742283Y601122D1*
X2739851Y596369D1*
X2737474Y589184D1*
Y577190D1*
X2739851Y570061D1*
X2742283Y565252D1*
X2747036Y560499D1*
X2751844Y558067D1*
X2761406D1*
X2766159Y560499D1*
X2770967Y565252D1*
X2773344Y570061D1*
X2775721Y577190D1*
Y589184D1*
X2773344Y596369D1*
X2770967Y601122D1*
X2766159Y605930D1*
X2761406Y608307D1*
X2751844D1*
X2805530D2*
X2800722Y605930D1*
X2795968Y601122D1*
X2793537Y596369D1*
X2791160Y589184D1*
Y577190D1*
X2793537Y570061D1*
X2795968Y565252D1*
X2800722Y560499D1*
X2805530Y558067D1*
X2815092D1*
X2819845Y560499D1*
X2824653Y565252D1*
X2827030Y570061D1*
X2829406Y577190D1*
Y589184D1*
X2827030Y596369D1*
X2824653Y601122D1*
X2819845Y605930D1*
X2815092Y608307D1*
X2805530D1*
X2844846D2*
Y558067D1*
X2873531D1*
X1215579Y1435283D2*
Y1385043D1*
X1232326D1*
X1239511Y1387475D1*
X1244319Y1392228D1*
X1246696Y1397037D1*
X1249072Y1404167D1*
Y1416160D1*
X1246696Y1423345D1*
X1244319Y1428098D1*
X1239511Y1432907D1*
X1232326Y1435283D1*
X1215579D1*
X1264512Y1425667D2*
X1269320Y1428098D1*
X1276505Y1435228D1*
Y1385043D1*
X1336927Y597548D2*
X1387167D1*
Y614295D1*
X1384735Y621480D1*
X1379982Y626288D1*
X1375173Y628665D1*
X1368043Y631042D1*
X1356050D1*
X1348865Y628665D1*
X1344112Y626288D1*
X1339303Y621480D1*
X1336927Y614295D1*
Y597548D1*
X1348920Y648913D2*
X1346543D1*
X1341735Y651289D1*
X1339358Y653666D1*
X1336982Y658474D1*
Y668036D1*
X1339358Y672789D1*
X1341735Y675166D1*
X1346543Y677598D1*
X1351297D1*
X1356105Y675166D1*
X1363235Y670413D1*
X1387167Y646481D1*
Y679974D1*
X2405564Y779905D2*
X2455804D1*
Y796652D1*
X2453373Y803837D1*
X2448619Y808645D1*
X2443811Y811022D1*
X2436681Y813399D1*
X2424688D1*
X2417503Y811022D1*
X2412749Y808645D1*
X2407941Y803837D1*
X2405564Y796652D1*
Y779905D1*
X2405620Y833646D2*
Y859899D1*
X2424743Y845584D1*
Y852769D1*
X2427120Y857523D1*
X2429496Y859899D1*
X2436681Y862331D1*
X2441434D1*
X2448619Y859899D1*
X2453428Y855146D1*
X2455804Y847961D1*
Y840776D1*
X2453428Y833646D1*
X2450996Y831270D1*
X2446243Y828838D1*
X991163Y2347688D2*
Y2297448D1*
X1007910D1*
X1015095Y2299879D1*
X1019903Y2304633D1*
X1022280Y2309441D1*
X1024656Y2316571D1*
Y2328564D1*
X1022280Y2335749D1*
X1019903Y2340503D1*
X1015095Y2345311D1*
X1007910Y2347688D1*
X991163D1*
X1064027Y2297448D2*
Y2347632D1*
X1040096Y2314194D1*
X1075966D1*
X3455454Y710084D2*
X3505694D1*
Y726830D1*
X3503262Y734015D1*
X3498509Y738824D1*
X3493701Y741200D1*
X3486571Y743577D1*
X3474577D1*
X3467392Y741200D1*
X3462639Y738824D1*
X3457831Y734015D1*
X3455454Y726830D1*
Y710084D1*
X3455509Y787701D2*
Y763825D1*
X3477009Y761448D1*
X3474633Y763825D1*
X3472201Y771010D1*
Y778140D1*
X3474633Y785325D1*
X3479386Y790133D1*
X3486571Y792510D1*
X3491324D1*
X3498509Y790133D1*
X3503318Y785325D1*
X3505694Y778139D1*
Y771010D1*
X3503318Y763825D1*
X3500886Y761448D1*
X3496133Y759016D1*
X4024533Y717945D2*
X4074773D1*
Y734692D1*
X4072341Y741877D1*
X4067588Y746685D1*
X4062779Y749062D1*
X4055650Y751439D1*
X4043656D1*
X4036471Y749062D1*
X4031718Y746685D1*
X4026909Y741877D1*
X4024533Y734692D1*
Y717945D1*
X4031718Y795563D2*
X4026965Y793186D1*
X4024588Y786001D1*
Y781248D1*
X4026965Y774063D1*
X4034150Y769254D1*
X4046088Y766878D1*
X4058026D1*
X4067588Y769254D1*
X4072396Y774063D1*
X4074773Y781248D1*
Y783624D1*
X4072396Y790754D1*
X4067588Y795563D1*
X4060403Y797939D1*
X4058026D1*
X4050841Y795563D1*
X4046088Y790754D1*
X4043711Y783625D1*
Y781248D1*
X4046088Y774063D1*
X4050841Y769254D1*
X4058026Y766878D1*
X2899262Y697538D2*
X2949502D1*
X2949503Y714284D1*
X2947071Y721469D1*
X2942318Y726278D1*
X2937509Y728655D1*
X2930379Y731031D1*
X2918386D1*
X2911201Y728655D1*
X2906448Y726278D1*
X2901639Y721470D1*
X2899263Y714284D1*
X2899262Y697538D1*
X2949503Y756032D2*
X2899318Y779964D1*
Y746470D1*
X3158340Y2057218D2*
Y2006978D1*
X3175086D1*
X3182271Y2009410D1*
X3187080Y2014163D1*
X3189456Y2018971D1*
X3191833Y2026101D1*
Y2038095D1*
X3189456Y2045280D1*
X3187080Y2050033D1*
X3182271Y2054841D1*
X3175086Y2057218D1*
X3158340D1*
X3219210Y2057163D2*
X3212081Y2054786D1*
X3209649Y2050033D1*
Y2045224D1*
X3212081Y2040471D1*
X3216834Y2038039D1*
X3226395Y2035663D1*
X3233580Y2033286D1*
X3238334Y2028478D1*
X3240710Y2023724D1*
Y2016539D1*
X3238334Y2011786D1*
X3235957Y2009354D1*
X3228772Y2006978D1*
X3219210D1*
X3212081Y2009354D1*
X3209649Y2011786D1*
X3207272Y2016539D1*
Y2023724D1*
X3209649Y2028478D1*
X3214457Y2033286D1*
X3221587Y2035663D1*
X3231149Y2038039D1*
X3235957Y2040471D1*
X3238334Y2045224D1*
Y2050033D1*
X3235957Y2054786D1*
X3228772Y2057163D1*
X3219210D1*
X3136575Y1434357D2*
X3105514D1*
Y1384117D1*
X3136575D1*
X3105514Y1410425D2*
X3124637D1*
X3187884Y1422419D2*
X3185508Y1427172D1*
X3180699Y1431980D1*
X3175946Y1434357D1*
X3166385D1*
X3161576Y1431980D1*
X3156823Y1427172D1*
X3154391Y1422419D1*
X3152015Y1415234D1*
Y1403240D1*
X3154391Y1396110D1*
X3156823Y1391302D1*
X3161576Y1386549D1*
X3166385Y1384117D1*
X3175946D1*
X3180699Y1386549D1*
X3185508Y1391302D1*
X3187884Y1396110D1*
X3203324Y1434357D2*
Y1384117D1*
X3236817Y1434357D2*
Y1384117D1*
X3203324Y1410425D2*
X3236817D1*
X3266626Y1434357D2*
X3261818Y1431980D1*
X3257065Y1427172D1*
X3254633Y1422419D1*
X3252256Y1415234D1*
Y1403240D1*
X3254633Y1396110D1*
X3257065Y1391302D1*
X3261818Y1386549D1*
X3266626Y1384117D1*
X3276188D1*
X3280941Y1386549D1*
X3285750Y1391302D1*
X3288126Y1396110D1*
X3290503Y1403240D1*
Y1415234D1*
X3288126Y1422419D1*
X3285750Y1427172D1*
X3280941Y1431980D1*
X3276188Y1434357D1*
X3266626D1*
X3305942Y1375826D2*
X3351374D1*
X3366813Y1424740D2*
X3371621Y1427172D1*
X3378806Y1434302D1*
Y1384117D1*
X3588277Y1440606D2*
X3557215D1*
Y1390366D1*
X3588277D1*
X3557215Y1416675D2*
X3576339D1*
X3639586Y1428668D2*
X3637209Y1433421D1*
X3632401Y1438230D1*
X3627648Y1440606D1*
X3618086D1*
X3613278Y1438230D1*
X3608525Y1433421D1*
X3606093Y1428668D1*
X3603716Y1421483D1*
Y1409490D1*
X3606093Y1402360D1*
X3608525Y1397551D1*
X3613278Y1392798D1*
X3618086Y1390366D1*
X3627648D1*
X3632401Y1392798D1*
X3637209Y1397551D1*
X3639586Y1402360D1*
X3655025Y1440606D2*
Y1390366D1*
X3688519Y1440606D2*
Y1390366D1*
X3655025Y1416675D2*
X3688519D1*
X3718328Y1440606D2*
X3713519Y1438230D1*
X3708766Y1433421D1*
X3706334Y1428668D1*
X3703958Y1421483D1*
Y1409490D1*
X3706334Y1402360D1*
X3708766Y1397551D1*
X3713519Y1392798D1*
X3718328Y1390366D1*
X3727890D1*
X3732643Y1392798D1*
X3737451Y1397551D1*
X3739828Y1402360D1*
X3742204Y1409490D1*
Y1421483D1*
X3739828Y1428668D1*
X3737451Y1433421D1*
X3732643Y1438230D1*
X3727890Y1440606D1*
X3718328D1*
X3757644Y1382076D2*
X3803075D1*
X3820946Y1428613D2*
Y1430989D1*
X3823323Y1435798D1*
X3825699Y1438174D1*
X3830508Y1440551D1*
X3840070D1*
X3844823Y1438174D1*
X3847199Y1435798D1*
X3849631Y1430989D1*
Y1426236D1*
X3847199Y1421428D1*
X3842446Y1414298D1*
X3818514Y1390366D1*
X3852008D1*
X3745267Y2502485D2*
X3795507D1*
X3745267Y2535979D2*
X3795507D1*
X3769198Y2502485D2*
X3769199Y2535979D1*
X3757205Y2587288D2*
X3752452Y2584911D1*
X3747643Y2580103D1*
X3745267Y2575349D1*
Y2565788D1*
X3747643Y2560979D1*
X3752452Y2556226D1*
X3757205Y2553794D1*
X3764390Y2551418D1*
X3776384D1*
X3783513Y2553794D1*
X3788322Y2556226D1*
X3793075Y2560979D1*
X3795507Y2565788D1*
Y2575349D1*
X3793075Y2580103D1*
X3788322Y2584911D1*
X3783513Y2587288D1*
X3745267Y2633844D2*
Y2602727D1*
X3795507D1*
X3769199D2*
Y2621850D1*
X3795507Y2673215D2*
X3745322D1*
X3778760Y2649283D1*
Y2685153D1*
X3745322Y2714962D2*
X3747699Y2707777D1*
X3754884Y2702969D1*
X3766822Y2700592D1*
X3774007D1*
X3785945Y2702969D1*
X3793130Y2707777D1*
X3795507Y2714962D1*
Y2719715D1*
X3793130Y2726900D1*
X3785945Y2731654D1*
X3774007Y2734085D1*
X3766822D1*
X3754884Y2731654D1*
X3747699Y2726900D1*
X3745322Y2719715D1*
Y2714962D1*
X3754884Y2731654D2*
X3785945Y2702969D1*
X3745322Y2778210D2*
Y2754333D1*
X3766822Y2751957D1*
X3764445Y2754333D1*
X3762013Y2761518D1*
Y2768648D1*
X3764445Y2775833D1*
X3769198Y2780641D1*
X3776384Y2783018D1*
X3781137D1*
X3788322Y2780641D1*
X3793130Y2775833D1*
X3795507Y2768648D1*
Y2761518D1*
X3793130Y2754333D1*
X3790698Y2751957D1*
X3785945Y2749525D1*
X3745322Y2812827D2*
X3747699Y2805642D1*
X3754884Y2800834D1*
X3766822Y2798457D1*
X3774007D1*
X3785945Y2800834D1*
X3793130Y2805642D1*
X3795507Y2812827D1*
Y2817580D1*
X3793130Y2824766D1*
X3785945Y2829519D1*
X3774007Y2831951D1*
X3766822D1*
X3754884Y2829519D1*
X3747699Y2824766D1*
X3745322Y2817580D1*
Y2812827D1*
X3754884Y2829519D2*
X3785945Y2800834D1*
X2234255Y2815462D2*
Y2777215D1*
X2231878Y2770030D1*
X2229446Y2767654D1*
X2224693Y2765222D1*
X2219885D1*
X2215131Y2767654D1*
X2212755Y2770030D1*
X2210323Y2777215D1*
Y2781969D1*
X2249694Y2805845D2*
X2254502Y2808277D1*
X2261687Y2815407D1*
Y2765222D1*
X3055075Y1145623D2*
X3076630D1*
X3083759Y1148000D1*
X3086191Y1150432D1*
X3088568Y1155185D1*
Y1162370D1*
X3086191Y1167123D1*
X3083759Y1169555D1*
X3076630Y1171932D1*
X3055075D1*
Y1121692D1*
X3104007Y1171932D2*
Y1136062D1*
X3106384Y1128877D1*
X3111192Y1124124D1*
X3118377Y1121692D1*
X3123130D1*
X3130315Y1124124D1*
X3135124Y1128877D1*
X3137501Y1136062D1*
Y1171932D1*
X3191186Y1121692D2*
Y1171932D1*
X3172063Y1121692D1*
X3152940Y1171932D1*
Y1121692D1*
X3206626Y1145623D2*
X3228181D1*
X3235310Y1148000D1*
X3237742Y1150432D1*
X3240119Y1155185D1*
Y1162370D1*
X3237742Y1167123D1*
X3235310Y1169555D1*
X3228181Y1171932D1*
X3206626D1*
Y1121692D1*
X3255558Y1113401D2*
X3300990D1*
X3316429Y1162315D2*
X3321237Y1164747D1*
X3328422Y1171876D1*
Y1121692D1*
X3343862Y1113401D2*
X3389293D1*
X3404732Y1162315D2*
X3409541Y1164747D1*
X3416726Y1171876D1*
Y1121692D1*
X3044325Y895608D2*
X3065880D1*
X3073010Y897984D1*
X3075441Y900416D1*
X3077818Y905169D1*
Y912354D1*
X3075441Y917108D1*
X3073010Y919539D1*
X3065880Y921916D1*
X3044325D1*
Y871676D1*
X3093257Y921916D2*
Y886046D1*
X3095634Y878861D1*
X3100442Y874108D1*
X3107627Y871676D1*
X3112381D1*
X3119566Y874108D1*
X3124374Y878861D1*
X3126751Y886046D1*
Y921916D1*
X3180436Y871676D2*
Y921916D1*
X3161313Y871676D1*
X3142190Y921916D1*
Y871676D1*
X3195876Y895608D2*
X3217431D1*
X3224560Y897984D1*
X3226992Y900416D1*
X3229369Y905169D1*
Y912354D1*
X3226992Y917108D1*
X3224560Y919539D1*
X3217431Y921916D1*
X3195876D1*
Y871676D1*
X3244808Y863386D2*
X3290240D1*
X3305679Y912299D2*
X3310487Y914731D1*
X3317672Y921861D1*
Y871676D1*
X3333112Y863386D2*
X3378543D1*
X3396414Y909923D2*
Y912299D1*
X3398791Y917108D1*
X3401168Y919484D1*
X3405976Y921861D1*
X3415538D1*
X3420291Y919484D1*
X3422667Y917108D1*
X3425099Y912299D1*
Y907546D1*
X3422667Y902737D1*
X3417914Y895608D1*
X3393983Y871676D1*
X3427476D1*
X3044325Y664424D2*
X3065880D1*
X3073010Y666801D1*
X3075441Y669232D1*
X3077818Y673986D1*
Y681171D1*
X3075441Y685924D1*
X3073010Y688356D1*
X3065880Y690732D1*
X3044325D1*
Y640492D1*
X3093257Y690732D2*
Y654862D1*
X3095634Y647677D1*
X3100442Y642924D1*
X3107627Y640492D1*
X3112381D1*
X3119566Y642924D1*
X3124374Y647677D1*
X3126751Y654862D1*
Y690732D1*
X3180436Y640492D2*
Y690732D1*
X3161313Y640492D1*
X3142190Y690732D1*
Y640492D1*
X3195876Y664424D2*
X3217431D1*
X3224560Y666801D1*
X3226992Y669232D1*
X3229369Y673986D1*
Y681171D1*
X3226992Y685924D1*
X3224560Y688356D1*
X3217431Y690732D1*
X3195876D1*
Y640492D1*
X3244808Y632202D2*
X3290240D1*
X3305679Y681115D2*
X3310487Y683547D1*
X3317672Y690677D1*
Y640492D1*
X3333112Y632202D2*
X3378543D1*
X3398791Y690677D2*
X3425044D1*
X3410729Y671554D1*
X3417914D1*
X3422667Y669177D1*
X3425044Y666801D1*
X3427476Y659616D1*
Y654862D1*
X3425044Y647677D1*
X3420291Y642869D1*
X3413106Y640492D1*
X3405921D1*
X3398791Y642869D1*
X3396414Y645301D1*
X3393983Y650054D1*
X3613015Y1145623D2*
X3634570D1*
X3641700Y1148000D1*
X3644132Y1150432D1*
X3646508Y1155185D1*
Y1162370D1*
X3644132Y1167123D1*
X3641700Y1169555D1*
X3634570Y1171932D1*
X3613015D1*
Y1121692D1*
X3661948Y1171932D2*
Y1136062D1*
X3664324Y1128877D1*
X3669133Y1124124D1*
X3676318Y1121692D1*
X3681071D1*
X3688256Y1124124D1*
X3693064Y1128877D1*
X3695441Y1136062D1*
Y1171932D1*
X3749127Y1121692D2*
Y1171932D1*
X3730003Y1121692D1*
X3710880Y1171932D1*
Y1121692D1*
X3764566Y1145623D2*
X3786121D1*
X3793251Y1148000D1*
X3795683Y1150432D1*
X3798059Y1155185D1*
Y1162370D1*
X3795683Y1167123D1*
X3793251Y1169555D1*
X3786121Y1171932D1*
X3764566D1*
Y1121692D1*
X3813498Y1113401D2*
X3858930D1*
X3876801Y1159938D2*
Y1162315D1*
X3879178Y1167123D1*
X3881554Y1169500D1*
X3886363Y1171876D1*
X3895924D1*
X3900678Y1169500D1*
X3903054Y1167123D1*
X3905486Y1162315D1*
Y1157562D1*
X3903054Y1152753D1*
X3898301Y1145623D1*
X3874369Y1121692D1*
X3907863D1*
X3923302Y1113401D2*
X3968733D1*
X3984173Y1162315D2*
X3988981Y1164747D1*
X3996166Y1171876D1*
Y1121692D1*
X3602265Y908101D2*
X3623820D1*
X3630950Y910478D1*
X3633382Y912910D1*
X3635758Y917663D1*
Y924848D1*
X3633382Y929601D1*
X3630950Y932033D1*
X3623820Y934409D1*
X3602265D1*
Y884169D1*
X3651198Y934409D2*
Y898540D1*
X3653574Y891354D1*
X3658383Y886601D1*
X3665568Y884169D1*
X3670321D1*
X3677506Y886601D1*
X3682314Y891354D1*
X3684691Y898540D1*
Y934409D1*
X3738377Y884169D2*
Y934409D1*
X3719253Y884169D1*
X3700130Y934409D1*
Y884169D1*
X3753816Y908101D2*
X3775371D1*
X3782501Y910478D1*
X3784933Y912910D1*
X3787309Y917663D1*
Y924848D1*
X3784933Y929601D1*
X3782501Y932033D1*
X3775371Y934409D1*
X3753816D1*
Y884169D1*
X3802749Y875879D2*
X3848180D1*
X3866051Y922416D2*
Y924793D1*
X3868428Y929601D1*
X3870804Y931978D1*
X3875613Y934354D1*
X3885174D1*
X3889928Y931978D1*
X3892304Y929601D1*
X3894736Y924793D1*
Y920039D1*
X3892304Y915231D1*
X3887551Y908101D1*
X3863619Y884169D1*
X3897113D1*
X3912552Y875879D2*
X3957983D1*
X3975855Y922416D2*
Y924793D1*
X3978231Y929601D1*
X3980608Y931978D1*
X3985416Y934354D1*
X3994978D1*
X3999731Y931978D1*
X4002108Y929601D1*
X4004539Y924793D1*
Y920039D1*
X4002108Y915231D1*
X3997354Y908101D1*
X3973423Y884169D1*
X4006916D1*
X3602265Y670579D2*
X3623820D1*
X3630950Y672955D1*
X3633382Y675387D1*
X3635758Y680140D1*
Y687325D1*
X3633382Y692079D1*
X3630950Y694511D1*
X3623820Y696887D1*
X3602265D1*
Y646647D1*
X3651198Y696887D2*
Y661017D1*
X3653574Y653832D1*
X3658383Y649079D1*
X3665568Y646647D1*
X3670321D1*
X3677506Y649079D1*
X3682314Y653832D1*
X3684691Y661017D1*
Y696887D1*
X3738377Y646647D2*
Y696887D1*
X3719253Y646647D1*
X3700130Y696887D1*
Y646647D1*
X3753816Y670579D2*
X3775371D1*
X3782501Y672955D1*
X3784933Y675387D1*
X3787309Y680140D1*
Y687325D1*
X3784933Y692079D1*
X3782501Y694511D1*
X3775371Y696887D1*
X3753816D1*
Y646647D1*
X3802749Y638357D2*
X3848180D1*
X3866051Y684894D2*
Y687270D1*
X3868428Y692079D1*
X3870804Y694455D1*
X3875613Y696832D1*
X3885174D1*
X3889928Y694455D1*
X3892304Y692079D1*
X3894736Y687270D1*
Y682517D1*
X3892304Y677709D1*
X3887551Y670579D1*
X3863619Y646647D1*
X3897113D1*
X3912552Y638357D2*
X3957983D1*
X3978231Y696832D2*
X4004484D1*
X3990169Y677709D1*
X3997354D1*
X4002108Y675332D1*
X4004484Y672955D1*
X4006916Y665770D1*
Y661017D1*
X4004484Y653832D1*
X3999731Y649024D1*
X3992546Y646647D1*
X3985361D1*
X3978231Y649024D1*
X3975855Y651456D1*
X3973423Y656209D1*
X2648743Y1096892D2*
Y1046652D1*
X2682236Y1096892D2*
Y1046652D1*
X2648743Y1072961D2*
X2682236D1*
X2697675Y1096892D2*
Y1061022D1*
X2700052Y1053837D1*
X2704860Y1049084D1*
X2712045Y1046652D1*
X2716798D1*
X2723983Y1049084D1*
X2728792Y1053837D1*
X2731168Y1061022D1*
Y1096892D1*
X2784854Y1046652D2*
Y1096892D1*
X2765731Y1046652D1*
X2746608Y1096892D1*
Y1046652D1*
X2800293Y1038362D2*
X2845725D1*
X2861164Y1087275D2*
X2865973Y1089707D1*
X2873158Y1096837D1*
Y1046652D1*
X2637993Y865667D2*
Y815427D1*
X2671486Y865667D2*
Y815427D1*
X2637993Y841735D2*
X2671486D1*
X2686925Y865667D2*
Y829797D1*
X2689302Y822612D1*
X2694110Y817858D1*
X2701295Y815427D1*
X2706048D1*
X2713233Y817858D1*
X2718042Y822612D1*
X2720419Y829797D1*
Y865667D1*
X2774104Y815427D2*
Y865667D1*
X2754981Y815427D1*
X2735858Y865667D1*
Y815427D1*
X2789544Y807136D2*
X2834975D1*
X2852846Y853673D2*
Y856050D1*
X2855223Y860858D1*
X2857599Y863235D1*
X2862408Y865611D1*
X2871969D1*
X2876723Y863235D1*
X2879099Y860858D1*
X2881531Y856050D1*
Y851297D1*
X2879099Y846488D1*
X2874346Y839358D1*
X2850414Y815427D1*
X2883908D1*
X979089Y2184302D2*
Y2134062D1*
X1007774D1*
X1023213Y2184302D2*
Y2134062D1*
X1074522Y2172364D2*
X1072145Y2177117D1*
X1067337Y2181925D1*
X1062584Y2184302D1*
X1053022D1*
X1048214Y2181925D1*
X1043461Y2177117D1*
X1041029Y2172364D1*
X1038652Y2165179D1*
Y2153185D1*
X1041029Y2146055D1*
X1043461Y2141247D1*
X1048214Y2136494D1*
X1053022Y2134062D1*
X1062584D1*
X1067337Y2136494D1*
X1072145Y2141247D1*
X1074522Y2146055D1*
Y2153185D1*
X1062584D1*
X1089961Y2184302D2*
Y2134062D1*
X1123455Y2184302D2*
Y2134062D1*
X1089961Y2160370D2*
X1123455D1*
X1155641Y2184302D2*
Y2134062D1*
X1138894Y2184302D2*
X1172387D1*
X1187826Y2125771D2*
X1233258D1*
X1248697Y2174685D2*
X1253506Y2177117D1*
X1260691Y2184247D1*
Y2134062D1*
X714557Y1178157D2*
Y1127917D1*
X743242D1*
X758681Y1178157D2*
Y1127917D1*
X809990Y1166219D2*
X807613Y1170972D1*
X802805Y1175781D1*
X798052Y1178157D1*
X788490D1*
X783682Y1175781D1*
X778929Y1170972D1*
X776497Y1166219D1*
X774120Y1159034D1*
Y1147041D1*
X776497Y1139911D1*
X778929Y1135102D1*
X783682Y1130349D1*
X788490Y1127917D1*
X798052D1*
X802805Y1130349D1*
X807613Y1135102D1*
X809990Y1139911D1*
Y1147041D1*
X798052D1*
X825429Y1178157D2*
Y1127917D1*
X858923Y1178157D2*
Y1127917D1*
X825429Y1154226D2*
X858923D1*
X891108Y1178157D2*
Y1127917D1*
X874362Y1178157D2*
X907855D1*
X923294Y1119627D2*
X968726D1*
X986597Y1166164D2*
Y1168541D1*
X988974Y1173349D1*
X991350Y1175726D1*
X996159Y1178102D1*
X1005720D1*
X1010474Y1175726D1*
X1012850Y1173349D1*
X1015282Y1168541D1*
Y1163787D1*
X1012850Y1158979D1*
X1008097Y1151849D1*
X984165Y1127917D1*
X1017659D1*
X1835353Y1191217D2*
X1832976Y1195970D1*
X1828168Y1200778D1*
X1823415Y1203155D1*
X1813853D1*
X1809045Y1200778D1*
X1804291Y1195970D1*
X1801860Y1191217D1*
X1799483Y1184032D1*
Y1172038D1*
X1801860Y1164908D1*
X1804291Y1160100D1*
X1809045Y1155347D1*
X1813853Y1152915D1*
X1823415D1*
X1828168Y1155347D1*
X1832976Y1160100D1*
X1835353Y1164908D1*
X1865162Y1203155D2*
X1860354Y1200778D1*
X1855601Y1195970D1*
X1853169Y1191217D1*
X1850792Y1184032D1*
Y1172038D1*
X1853169Y1164908D1*
X1855601Y1160100D1*
X1860354Y1155347D1*
X1865162Y1152915D1*
X1874724D1*
X1879477Y1155347D1*
X1884286Y1160100D1*
X1886662Y1164908D1*
X1889039Y1172038D1*
Y1184032D1*
X1886662Y1191217D1*
X1884286Y1195970D1*
X1879477Y1200778D1*
X1874724Y1203155D1*
X1865162D1*
X1918848D2*
X1914040Y1200778D1*
X1909286Y1195970D1*
X1906855Y1191217D1*
X1904478Y1184032D1*
Y1172038D1*
X1906855Y1164908D1*
X1909286Y1160100D1*
X1914040Y1155347D1*
X1918848Y1152915D1*
X1928410D1*
X1933163Y1155347D1*
X1937971Y1160100D1*
X1940348Y1164908D1*
X1942724Y1172038D1*
Y1184032D1*
X1940348Y1191217D1*
X1937971Y1195970D1*
X1933163Y1200778D1*
X1928410Y1203155D1*
X1918848D1*
X1958164D2*
Y1152915D1*
X1986849D1*
X2002288Y1144624D2*
X2047719D1*
X2063159Y1193538D2*
X2067967Y1195970D1*
X2075152Y1203100D1*
Y1152915D1*
X815324Y3040217D2*
X796146Y3090457D1*
X777022Y3040217D1*
X784208Y3056963D2*
X808139D1*
X830764Y3090457D2*
Y3040217D1*
X846203Y3066525D2*
X867703D1*
X874888Y3068957D1*
X877320Y3071333D1*
X879696Y3076087D1*
Y3080895D1*
X877320Y3085648D1*
X874888Y3088080D1*
X867703Y3090457D1*
X846203D1*
Y3040217D1*
X862949Y3066525D2*
X879696Y3040217D1*
X895135Y3064148D2*
X916690D1*
X923820Y3066525D1*
X926252Y3068957D1*
X928629Y3073710D1*
Y3080895D1*
X926252Y3085648D1*
X923820Y3088080D1*
X916690Y3090457D1*
X895135D1*
Y3040217D1*
X944068Y3090457D2*
Y3054587D1*
X946445Y3047402D1*
X951253Y3042649D1*
X958438Y3040217D1*
X963191D1*
X970376Y3042649D1*
X975185Y3047402D1*
X977561Y3054587D1*
Y3090457D1*
X1031247Y3040217D2*
Y3090457D1*
X1012124Y3040217D1*
X993001Y3090457D1*
Y3040217D1*
X1046686Y3064148D2*
X1068241D1*
X1075371Y3066525D1*
X1077803Y3068957D1*
X1080180Y3073710D1*
Y3080895D1*
X1077803Y3085648D1*
X1075371Y3088080D1*
X1068241Y3090457D1*
X1046686D1*
Y3040217D1*
X426585Y1527761D2*
X476825D1*
Y1556445D1*
X485116Y1571885D2*
Y1617316D1*
X436202Y1632755D2*
X433770Y1637564D1*
X426641Y1644749D1*
X476825D1*
X426585Y1217042D2*
X476825D1*
Y1245727D1*
X485116Y1261166D2*
Y1306598D1*
X438579Y1324469D2*
X436202D1*
X431394Y1326845D1*
X429017Y1329222D1*
X426641Y1334030D1*
Y1343592D1*
X429017Y1348345D1*
X431394Y1350722D1*
X436202Y1353154D1*
X440955D1*
X445764Y1350722D1*
X452894Y1345969D1*
X476825Y1322037D1*
Y1355530D1*
X1910540Y1832975D2*
Y1797105D1*
X1912917Y1789920D1*
X1917726Y1785167D1*
X1924911Y1782735D1*
X1929664D1*
X1936849Y1785167D1*
X1941657Y1789920D1*
X1944034Y1797105D1*
Y1832975D1*
X1959473D2*
Y1782735D1*
X1988158D1*
X2037091Y1832975D2*
Y1782735D1*
X2003597Y1832975D1*
Y1782735D1*
X2054962Y1820981D2*
Y1823358D1*
X2057338Y1828166D1*
X2059715Y1830543D1*
X2064523Y1832919D1*
X2074085D1*
X2078838Y1830543D1*
X2081215Y1828166D1*
X2083647Y1823358D1*
Y1818605D1*
X2081215Y1813796D1*
X2076461Y1806666D1*
X2052530Y1782735D1*
X2086023D1*
X2115832Y1832919D2*
X2108647Y1830543D1*
X2103839Y1823358D1*
X2101462Y1811420D1*
Y1804235D1*
X2103839Y1792296D1*
X2108647Y1785111D1*
X2115832Y1782735D1*
X2120586D1*
X2127771Y1785111D1*
X2132524Y1792296D1*
X2134956Y1804235D1*
Y1811420D1*
X2132524Y1823358D1*
X2127771Y1830543D1*
X2120586Y1832919D1*
X2115832D1*
X2132524Y1823358D2*
X2103839Y1792296D1*
X2164765Y1832919D2*
X2157580Y1830543D1*
X2152772Y1823358D1*
X2150395Y1811420D1*
Y1804235D1*
X2152772Y1792296D1*
X2157580Y1785111D1*
X2164765Y1782735D1*
X2169518D1*
X2176703Y1785111D1*
X2181456Y1792296D1*
X2183888Y1804235D1*
Y1811420D1*
X2181456Y1823358D1*
X2176703Y1830543D1*
X2169518Y1832919D1*
X2164765D1*
X2181456Y1823358D2*
X2152772Y1792296D1*
X2204136Y1832919D2*
X2230389D1*
X2216074Y1813796D1*
X2223259D1*
X2228012Y1811420D1*
X2230389Y1809043D1*
X2232821Y1801858D1*
Y1797105D1*
X2230389Y1789920D1*
X2225636Y1785111D1*
X2218451Y1782735D1*
X2211266D1*
X2204136Y1785111D1*
X2201759Y1787543D1*
X2199328Y1792296D1*
X2286562Y1782735D2*
X2267383Y1832975D1*
X2248260Y1782735D1*
X2255445Y1799481D2*
X2279377D1*
X1910540Y1426767D2*
Y1390897D1*
X1912917Y1383712D1*
X1917726Y1378959D1*
X1924911Y1376527D1*
X1929664D1*
X1936849Y1378959D1*
X1941657Y1383712D1*
X1944034Y1390897D1*
Y1426767D1*
X1959473D2*
Y1376527D1*
X1988158D1*
X2037091Y1426767D2*
Y1376527D1*
X2003597Y1426767D1*
Y1376527D1*
X2054962Y1414774D2*
Y1417150D1*
X2057338Y1421959D1*
X2059715Y1424336D1*
X2064523Y1426712D1*
X2074085D1*
X2078838Y1424336D1*
X2081215Y1421959D1*
X2083647Y1417150D1*
Y1412397D1*
X2081215Y1407589D1*
X2076461Y1400459D1*
X2052530Y1376527D1*
X2086023D1*
X2115832Y1426712D2*
X2108647Y1424336D1*
X2103839Y1417150D1*
X2101462Y1405212D1*
Y1398027D1*
X2103839Y1386089D1*
X2108647Y1378904D1*
X2115832Y1376527D1*
X2120586D1*
X2127771Y1378904D1*
X2132524Y1386089D1*
X2134956Y1398027D1*
Y1405212D1*
X2132524Y1417150D1*
X2127771Y1424336D1*
X2120586Y1426712D1*
X2115832D1*
X2132524Y1417150D2*
X2103839Y1386089D1*
X2164765Y1426712D2*
X2157580Y1424336D1*
X2152772Y1417150D1*
X2150395Y1405212D1*
Y1398027D1*
X2152772Y1386089D1*
X2157580Y1378904D1*
X2164765Y1376527D1*
X2169518D1*
X2176703Y1378904D1*
X2181456Y1386089D1*
X2183888Y1398027D1*
Y1405212D1*
X2181456Y1417150D1*
X2176703Y1424336D1*
X2169518Y1426712D1*
X2164765D1*
X2181456Y1417150D2*
X2152772Y1386089D1*
X2204136Y1426712D2*
X2230389D1*
X2216074Y1407589D1*
X2223259D1*
X2228012Y1405212D1*
X2230389Y1402836D1*
X2232821Y1395651D1*
Y1390897D1*
X2230389Y1383712D1*
X2225636Y1378904D1*
X2218451Y1376527D1*
X2211266D1*
X2204136Y1378904D1*
X2201759Y1381336D1*
X2199328Y1386089D1*
X2286562Y1376527D2*
X2267383Y1426767D1*
X2248260Y1376527D1*
X2255445Y1393274D2*
X2279377D1*
X3801528Y1946606D2*
X3803850Y1941853D1*
X3808658Y1937044D1*
X3813466Y1934668D1*
X3820652Y1932236D1*
X3832590D1*
X3839775Y1934668D1*
X3844528Y1937044D1*
X3849336Y1941853D1*
X3851713Y1946606D1*
Y1956168D1*
X3849336Y1960976D1*
X3844528Y1965729D1*
X3839775Y1968106D1*
X3832590Y1970538D1*
X3820652D1*
X3813467Y1968106D1*
X3808658Y1965729D1*
X3803850Y1960976D1*
X3801528Y1956168D1*
Y1946606D1*
X3842151Y1953791D2*
X3856521Y1968106D1*
X3801584Y1990785D2*
Y2017038D1*
X3820707Y2002724D1*
Y2009909D1*
X3823083Y2014662D1*
X3825460Y2017038D1*
X3832645Y2019470D1*
X3837398D1*
X3844583Y2017038D1*
X3849392Y2012285D1*
X3851768Y2005100D1*
Y1997915D1*
X3849392Y1990785D1*
X3846960Y1988409D1*
X3842207Y1985977D1*
X3579765Y2455706D2*
X3575012Y2453385D1*
X3570204Y2448576D1*
X3567827Y2443768D1*
X3565395Y2436583D1*
Y2424645D1*
X3567827Y2417459D1*
X3570204Y2412706D1*
X3575012Y2407898D1*
X3579765Y2405521D1*
X3589327D1*
X3594135Y2407898D1*
X3598889Y2412706D1*
X3601265Y2417459D1*
X3603697Y2424645D1*
Y2436583D1*
X3601265Y2443768D1*
X3598889Y2448576D1*
X3594135Y2453385D1*
X3589327Y2455706D1*
X3579765D1*
X3586950Y2415083D2*
X3601265Y2400713D1*
X3643068Y2405466D2*
Y2455651D1*
X3619136Y2422213D1*
X3655006D1*
X1867055Y2151542D2*
Y2173042D1*
X1864623Y2180227D1*
X1862247Y2182659D1*
X1857494Y2185036D1*
X1852685D1*
X1847932Y2182659D1*
X1845500Y2180227D1*
X1843123Y2173042D1*
Y2151542D1*
X1893363D1*
X1867055Y2168289D2*
X1893363Y2185036D1*
X1852740Y2200475D2*
X1850308Y2205283D1*
X1843179Y2212468D1*
X1893363D1*
X978383Y1411352D2*
X999883D1*
X1007068Y1413784D1*
X1009500Y1416160D1*
X1011876Y1420913D1*
Y1425722D1*
X1009500Y1430475D1*
X1007068Y1432907D1*
X999883Y1435283D1*
X978383D1*
Y1385043D1*
X995130Y1411352D2*
X1011876Y1385043D1*
X1029747Y1423290D2*
Y1425667D1*
X1032124Y1430475D1*
X1034500Y1432852D1*
X1039309Y1435228D1*
X1048871D1*
X1053624Y1432852D1*
X1056000Y1430475D1*
X1058432Y1425667D1*
Y1420913D1*
X1056000Y1416105D1*
X1051247Y1408975D1*
X1027315Y1385043D1*
X1060809D1*
X1360858Y786498D2*
Y807998D1*
X1358426Y815183D1*
X1356050Y817615D1*
X1351297Y819992D1*
X1346488D1*
X1341735Y817615D1*
X1339303Y815183D1*
X1336927Y807998D1*
Y786498D1*
X1387167D1*
X1360858Y803245D2*
X1387167Y819992D1*
X1336982Y840239D2*
Y866492D1*
X1356105Y852178D1*
Y859363D1*
X1358482Y864116D1*
X1360858Y866492D1*
X1368043Y868924D1*
X1372797D1*
X1379982Y866492D1*
X1384790Y861739D1*
X1387167Y854554D1*
Y847369D1*
X1384790Y840239D1*
X1382358Y837863D1*
X1377605Y835431D1*
X2429496Y583518D2*
Y605017D1*
X2427064Y612202D1*
X2424688Y614634D1*
X2419934Y617011D1*
X2415126D1*
X2410373Y614634D1*
X2407941Y612202D1*
X2405564Y605017D1*
Y583518D1*
X2455804D1*
X2429496Y600264D2*
X2455804Y617011D1*
Y656382D2*
X2405620D1*
X2439058Y632450D1*
Y668320D1*
X778404Y2323756D2*
X799904D1*
X807089Y2326188D1*
X809521Y2328564D1*
X811897Y2333318D1*
Y2338126D1*
X809521Y2342879D1*
X807089Y2345311D1*
X799904Y2347688D1*
X778404D1*
Y2297448D1*
X795151Y2323756D2*
X811897Y2297448D1*
X856021Y2347632D2*
X832145D1*
X829768Y2326133D1*
X832145Y2328509D1*
X839330Y2330941D1*
X846460D1*
X853645Y2328509D1*
X858453Y2323756D1*
X860830Y2316571D1*
Y2311818D1*
X858453Y2304633D1*
X853645Y2299824D1*
X846460Y2297448D1*
X839330D1*
X832145Y2299824D1*
X829768Y2302256D1*
X827336Y2307009D1*
X3479386Y869003D2*
Y890503D1*
X3476954Y897688D1*
X3474577Y900120D1*
X3469824Y902496D1*
X3465016D1*
X3460263Y900120D1*
X3457831Y897688D1*
X3455454Y890503D1*
Y869003D1*
X3505694D1*
X3479386Y885750D2*
X3505694Y902496D1*
X3462639Y946620D2*
X3457886Y944244D1*
X3455509Y937059D1*
Y932306D1*
X3457886Y925121D1*
X3465071Y920312D1*
X3477009Y917936D1*
X3488947D1*
X3498509Y920312D1*
X3503318Y925121D1*
X3505694Y932306D1*
Y934682D1*
X3503318Y941812D1*
X3498509Y946620D1*
X3491324Y948997D1*
X3488947D1*
X3481762Y946620D1*
X3477009Y941812D1*
X3474633Y934682D1*
Y932306D1*
X3477009Y925121D1*
X3481762Y920312D1*
X3488947Y917936D1*
X4048465Y874433D2*
Y895933D1*
X4046033Y903118D1*
X4043656Y905550D1*
X4038903Y907926D1*
X4034095D1*
X4029341Y905550D1*
X4026909Y903118D1*
X4024533Y895933D1*
Y874433D1*
X4074773D1*
X4048465Y891179D2*
X4074773Y907926D1*
Y932927D2*
X4024588Y956859D1*
Y923365D1*
X3334413Y2898696D2*
X3355913D1*
X3363098Y2901127D1*
X3365530Y2903504D1*
X3367906Y2908257D1*
Y2913066D1*
X3365530Y2917819D1*
X3363098Y2920251D1*
X3355913Y2922627D1*
X3334413D1*
Y2872387D1*
X3351160Y2898696D2*
X3367906Y2872387D1*
X3395284Y2922572D2*
X3388154Y2920195D1*
X3385722Y2915442D1*
Y2910634D1*
X3388154Y2905881D1*
X3392907Y2903449D1*
X3402469Y2901072D1*
X3409654Y2898696D1*
X3414407Y2893887D1*
X3416784Y2889134D1*
Y2881949D1*
X3414407Y2877196D1*
X3412031Y2874764D1*
X3404846Y2872387D1*
X3395284D1*
X3388154Y2874764D1*
X3385722Y2877196D1*
X3383346Y2881949D1*
Y2889134D1*
X3385722Y2893887D1*
X3390531Y2898696D1*
X3397660Y2901072D1*
X3407222Y2903449D1*
X3412031Y2905881D1*
X3414407Y2910634D1*
Y2915442D1*
X3412031Y2920195D1*
X3404846Y2922572D1*
X3395284D1*
X3635619Y2125046D2*
Y2146546D1*
X3633188Y2153731D1*
X3630811Y2156163D1*
X3626058Y2158540D1*
X3621249D1*
X3616496Y2156163D1*
X3614064Y2153731D1*
X3611688Y2146546D1*
Y2125046D1*
X3661928D1*
X3635619Y2141793D2*
X3661928Y2158540D1*
X3628434Y2205096D2*
X3635619Y2202664D1*
X3640428Y2197911D1*
X3642804Y2190725D1*
Y2188349D1*
X3640428Y2181164D1*
X3635619Y2176411D1*
X3628434Y2173979D1*
X3626058D1*
X3618873Y2176411D1*
X3614120Y2181164D1*
X3611743Y2188349D1*
Y2190726D1*
X3614120Y2197911D1*
X3618873Y2202664D1*
X3628434Y2205096D1*
X3640428D1*
X3652366Y2202664D1*
X3659551Y2197911D1*
X3661928Y2190725D1*
Y2185972D1*
X3659551Y2178787D1*
X3654743Y2176411D1*
X3385646Y2110142D2*
Y2131641D1*
X3383214Y2138827D1*
X3380837Y2141258D1*
X3376084Y2143635D1*
X3371276D1*
X3366522Y2141258D1*
X3364091Y2138827D1*
X3361714Y2131642D1*
Y2110142D1*
X3411954D1*
X3385646Y2126888D2*
X3411954Y2143635D1*
X3371331Y2159074D2*
X3368899Y2163883D1*
X3361769Y2171068D1*
X3411954D1*
X3361769Y2200877D2*
X3364146Y2193692D1*
X3371331Y2188883D1*
X3383269Y2186507D1*
X3390454D1*
X3402392Y2188883D1*
X3409577Y2193692D1*
X3411954Y2200877D1*
Y2205630D1*
X3409577Y2212815D1*
X3402392Y2217568D1*
X3390454Y2220000D1*
X3383269D1*
X3371331Y2217568D1*
X3364146Y2212815D1*
X3361769Y2205630D1*
Y2200877D1*
X3371331Y2217568D2*
X3402392Y2188883D1*
X3510633Y2119078D2*
Y2140578D1*
X3508201Y2147763D1*
X3505824Y2150195D1*
X3501071Y2152571D1*
X3496262D1*
X3491509Y2150195D1*
X3489077Y2147763D1*
X3486701Y2140578D1*
Y2119078D1*
X3536941D1*
X3510633Y2135825D2*
X3536941Y2152571D1*
X3496318Y2168010D2*
X3493886Y2172819D1*
X3486756Y2180004D1*
X3536941D1*
X3496318Y2195443D2*
X3493886Y2200252D1*
X3486756Y2207437D1*
X3536941D1*
X2923194Y860273D2*
Y881773D1*
X2920762Y888958D1*
X2918386Y891390D1*
X2913633Y893766D1*
X2908824D1*
X2904071Y891390D1*
X2901639Y888958D1*
X2899263Y881773D1*
X2899262Y860273D1*
X2949502D1*
X2923194Y877020D2*
X2949503Y893766D1*
X2908879Y909205D2*
X2906448Y914014D1*
X2899318Y921199D1*
X2949503D1*
X2911256Y939070D2*
X2908879D1*
X2904071Y941447D1*
X2901694Y943823D1*
X2899318Y948632D1*
Y958193D1*
X2901694Y962946D1*
X2904071Y965323D1*
X2908879Y967755D1*
X2913633D1*
X2918441Y965323D1*
X2925571Y960570D1*
X2949503Y936638D1*
Y970131D1*
X3141252Y2173772D2*
X3162752D1*
X3169937Y2176204D1*
X3172369Y2178580D1*
X3174745Y2183333D1*
Y2188142D1*
X3172369Y2192895D1*
X3169937Y2195327D1*
X3162752Y2197703D1*
X3141252D1*
Y2147463D1*
X3157998Y2173772D2*
X3174745Y2147463D1*
X3190184Y2188086D2*
X3194993Y2190518D1*
X3202178Y2197648D1*
Y2147463D1*
X3222426Y2197648D2*
X3248679D1*
X3234364Y2178525D1*
X3241549D1*
X3246302Y2176148D1*
X3248679Y2173772D1*
X3251110Y2166587D1*
Y2161833D1*
X3248679Y2154648D1*
X3243925Y2149840D1*
X3236740Y2147463D1*
X3229555D1*
X3222426Y2149840D1*
X3220049Y2152272D1*
X3217617Y2157025D1*
X1985793Y2594589D2*
Y2616088D1*
X1983361Y2623273D1*
X1980984Y2625705D1*
X1976231Y2628082D1*
X1971423D1*
X1966669Y2625705D1*
X1964238Y2623273D1*
X1961861Y2616088D1*
Y2594589D1*
X2012101D1*
X1985793Y2611335D2*
X2012101Y2628082D1*
X1971478Y2643521D2*
X1969046Y2648330D1*
X1961916Y2655515D1*
X2012101Y2655514D1*
Y2694885D2*
X1961916D1*
X1995354Y2670954D1*
Y2706824D1*
X2775992Y1575630D2*
Y1539760D1*
X2778368Y1532575D1*
X2783177Y1527822D1*
X2790362Y1525390D1*
X2795115D1*
X2802300Y1527822D1*
X2807109Y1532575D1*
X2809485Y1539760D1*
Y1575630D1*
X2829733Y1575575D2*
X2855986D1*
X2841671Y1556451D1*
X2848856D1*
X2853609Y1554075D1*
X2855986Y1551698D1*
X2858418Y1544513D1*
Y1539760D1*
X2855986Y1532575D1*
X2851233Y1527766D1*
X2844048Y1525390D1*
X2836863D1*
X2829733Y1527766D1*
X2827356Y1530198D1*
X2824924Y1534952D1*
X3326853Y2568058D2*
Y2532188D1*
X3329230Y2525003D1*
X3334038Y2520250D1*
X3341223Y2517818D1*
X3345977D1*
X3353162Y2520250D1*
X3357970Y2525003D1*
X3360347Y2532188D1*
Y2568058D1*
X3399718Y2517818D2*
Y2568002D1*
X3375786Y2534564D1*
X3411656D1*
X3998384Y2721940D2*
Y2686070D1*
X4000761Y2678885D1*
X4005569Y2674131D1*
X4012754Y2671700D1*
X4017507D1*
X4024692Y2674131D1*
X4029501Y2678885D1*
X4031877Y2686070D1*
Y2721940D1*
X4076002Y2721884D2*
X4052125D1*
X4049749Y2700384D1*
X4052125Y2702761D1*
X4059310Y2705193D1*
X4066440D1*
X4073625Y2702761D1*
X4078433Y2698008D1*
X4080810Y2690823D1*
Y2686070D1*
X4078433Y2678885D1*
X4073625Y2674076D1*
X4066440Y2671700D1*
X4059310D1*
X4052125Y2674076D1*
X4049749Y2676508D1*
X4047317Y2681261D1*
X1569614Y3071685D2*
Y3021445D1*
X1603108Y3071685D2*
Y3021445D1*
X1569614Y3047753D2*
X1603108D1*
X1618547Y3071685D2*
Y3021445D1*
X1635294D1*
X1642479Y3023877D1*
X1647287Y3028630D1*
X1649664Y3033439D1*
X1652040Y3040568D1*
Y3052562D1*
X1649664Y3059747D1*
X1647287Y3064500D1*
X1642479Y3069308D1*
X1635294Y3071685D1*
X1618547D1*
X1703349Y3059747D2*
X1700973Y3064500D1*
X1696164Y3069308D1*
X1691411Y3071685D1*
X1681850D1*
X1677041Y3069308D1*
X1672288Y3064500D1*
X1669856Y3059747D1*
X1667480Y3052562D1*
Y3040568D1*
X1669856Y3033439D1*
X1672288Y3028630D1*
X1677041Y3023877D1*
X1681850Y3021445D1*
X1691411D1*
X1696164Y3023877D1*
X1700973Y3028630D1*
X1703349Y3033439D1*
X1718789Y3062068D2*
X1723597Y3064500D1*
X1730782Y3071630D1*
Y3021445D1*
X1760592Y3071630D2*
X1753407Y3069253D1*
X1748598Y3062068D1*
X1746221Y3050130D1*
Y3042945D1*
X1748598Y3031007D1*
X1753407Y3023822D1*
X1760592Y3021445D1*
X1765345D1*
X1772530Y3023822D1*
X1777283Y3031007D1*
X1779715Y3042945D1*
Y3050130D1*
X1777283Y3062068D1*
X1772530Y3069253D1*
X1765345Y3071630D1*
X1760592D1*
X1777283Y3062068D2*
X1748598Y3031007D1*
X1807092Y3071630D2*
X1799963Y3069253D1*
X1797531Y3064500D1*
Y3059692D1*
X1799963Y3054938D1*
X1804716Y3052506D1*
X1814277Y3050130D1*
X1821462Y3047753D1*
X1826216Y3042945D1*
X1828592Y3038192D1*
Y3031007D1*
X1826216Y3026253D1*
X1823839Y3023822D1*
X1816654Y3021445D1*
X1807092D1*
X1799963Y3023822D1*
X1797531Y3026253D1*
X1795154Y3031007D1*
Y3038192D1*
X1797531Y3042945D1*
X1802339Y3047753D1*
X1809469Y3050130D1*
X1819030Y3052506D1*
X1823839Y3054938D1*
X1826216Y3059692D1*
Y3064500D1*
X1823839Y3069253D1*
X1816654Y3071630D1*
X1807092D1*
X1858401D2*
X1851216Y3069253D1*
X1846408Y3062068D1*
X1844031Y3050130D1*
Y3042945D1*
X1846408Y3031007D1*
X1851216Y3023822D1*
X1858401Y3021445D1*
X1863155D1*
X1870340Y3023822D1*
X1875093Y3031007D1*
X1877525Y3042945D1*
Y3050130D1*
X1875093Y3062068D1*
X1870340Y3069253D1*
X1863155Y3071630D1*
X1858401D1*
X1875093Y3062068D2*
X1846408Y3031007D1*
X2143266Y3043926D2*
Y3008057D1*
X2145642Y3000872D1*
X2150451Y2996118D1*
X2157636Y2993686D1*
X2162389D1*
X2169574Y2996118D1*
X2174382Y3000872D1*
X2176759Y3008057D1*
Y3043926D1*
X2225692Y3036741D2*
X2220938Y3041550D1*
X2213753Y3043926D1*
X2204192D1*
X2197007Y3041550D1*
X2192198Y3036741D1*
Y3031988D1*
X2194630Y3027180D1*
X2197007Y3024803D1*
X2201760Y3022427D1*
X2216130Y3017618D1*
X2220938Y3015242D1*
X2223315Y3012810D1*
X2225692Y3008057D1*
Y3000872D1*
X2220938Y2996118D1*
X2213753Y2993686D1*
X2204192D1*
X2197007Y2996118D1*
X2192198Y3000872D1*
X2241131Y3043926D2*
Y2993686D1*
X2262686D1*
X2269871Y2996118D1*
X2272248Y2998495D1*
X2274624Y3003248D1*
Y3010433D1*
X2272248Y3015242D1*
X2269871Y3017618D1*
X2262686Y3019995D1*
X2269871Y3022427D1*
X2272248Y3024803D1*
X2274624Y3029556D1*
Y3034365D1*
X2272248Y3039118D1*
X2269871Y3041550D1*
X2262686Y3043926D1*
X2241131D1*
Y3019995D2*
X2262686D1*
X2328365Y2993686D2*
X2309187Y3043926D1*
X2290063Y2993686D1*
X2297248Y3010433D2*
X2321180D1*
X2377298Y3036741D2*
X2372545Y3041550D1*
X2365360Y3043926D1*
X2355798D1*
X2348613Y3041550D1*
X2343804Y3036741D1*
Y3031988D1*
X2346236Y3027180D1*
X2348613Y3024803D1*
X2353366Y3022427D1*
X2367736Y3017618D1*
X2372545Y3015242D1*
X2374921Y3012810D1*
X2377298Y3008057D1*
Y3000872D1*
X2372545Y2996118D1*
X2365360Y2993686D1*
X2355798D1*
X2348613Y2996118D1*
X2343804Y3000872D1*
X2392737Y3017618D2*
X2414292D1*
X2421422Y3019995D1*
X2423854Y3022427D1*
X2426230Y3027180D1*
Y3034365D1*
X2423854Y3039118D1*
X2421422Y3041550D1*
X2414292Y3043926D1*
X2392737D1*
Y2993686D1*
X1389912Y2804029D2*
X1411412D1*
X1418597Y2806461D1*
X1421029Y2808837D1*
X1423406Y2813591D1*
Y2818399D1*
X1421029Y2823152D1*
X1418597Y2825584D1*
X1411412Y2827961D1*
X1389912D1*
Y2777721D1*
X1406659Y2804029D2*
X1423406Y2777721D1*
X1455591Y2827961D2*
Y2777721D1*
X1438845Y2827961D2*
X1472338D1*
X1523647Y2816022D2*
X1521271Y2820776D1*
X1516462Y2825584D1*
X1511709Y2827961D1*
X1502147D1*
X1497339Y2825584D1*
X1492586Y2820776D1*
X1490154Y2816022D1*
X1487777Y2808837D1*
Y2796844D1*
X1490154Y2789714D1*
X1492586Y2784906D1*
X1497339Y2780152D1*
X1502147Y2777721D1*
X1511709D1*
X1516462Y2780152D1*
X1521271Y2784906D1*
X1523647Y2789714D1*
X1587688Y2827961D2*
Y2777721D1*
X1604434D1*
X1611619Y2780152D1*
X1616428Y2784906D1*
X1618804Y2789714D1*
X1621181Y2796844D1*
Y2808837D1*
X1618804Y2816022D1*
X1616428Y2820776D1*
X1611619Y2825584D1*
X1604434Y2827961D1*
X1587688D1*
X1670113Y2820776D2*
X1665360Y2825584D1*
X1658175Y2827961D1*
X1648614D1*
X1641429Y2825584D1*
X1636620Y2820776D1*
Y2816022D1*
X1639052Y2811214D1*
X1641429Y2808837D1*
X1646182Y2806461D1*
X1660552Y2801652D1*
X1665360Y2799276D1*
X1667737Y2796844D1*
X1670113Y2792091D1*
Y2784906D1*
X1665360Y2780152D1*
X1658175Y2777721D1*
X1648614D1*
X1641429Y2780152D1*
X1636620Y2784906D1*
X1685553Y2818344D2*
X1690361Y2820776D1*
X1697546Y2827905D1*
Y2777721D1*
X1717794Y2827905D2*
X1744047D1*
X1729732Y2808782D1*
X1736917D1*
X1741670Y2806405D1*
X1744047Y2804029D1*
X1746479Y2796844D1*
Y2792091D1*
X1744047Y2784906D1*
X1739294Y2780097D1*
X1732109Y2777721D1*
X1724924D1*
X1717794Y2780097D1*
X1715417Y2782529D1*
X1712985Y2787282D1*
X1776288Y2827905D2*
X1769103Y2825529D1*
X1764295Y2818344D1*
X1761918Y2806405D1*
Y2799220D1*
X1764295Y2787282D1*
X1769103Y2780097D1*
X1776288Y2777721D1*
X1781041D1*
X1788226Y2780097D1*
X1792979Y2787282D1*
X1795411Y2799220D1*
Y2806405D1*
X1792979Y2818344D1*
X1788226Y2825529D1*
X1781041Y2827905D1*
X1776288D1*
X1792979Y2818344D2*
X1764295Y2787282D1*
X1820412Y2777721D2*
X1844344Y2827905D1*
X1810851D1*
X1908384Y2827961D2*
Y2777721D1*
X1926255Y2815967D2*
Y2818344D1*
X1928632Y2823152D1*
X1931008Y2825529D1*
X1935817Y2827905D1*
X1945379D1*
X1950132Y2825529D1*
X1952508Y2823152D1*
X1954940Y2818344D1*
Y2813591D1*
X1952508Y2808782D1*
X1947755Y2801652D1*
X1923823Y2777721D1*
X1957317D1*
X2008626Y2816022D2*
X2006249Y2820776D1*
X2001441Y2825584D1*
X1996688Y2827961D1*
X1987126D1*
X1982318Y2825584D1*
X1977564Y2820776D1*
X1975133Y2816022D1*
X1972756Y2808837D1*
Y2796844D1*
X1975133Y2789714D1*
X1977564Y2784906D1*
X1982318Y2780152D1*
X1987126Y2777721D1*
X1996688D1*
X2001441Y2780152D1*
X2006249Y2784906D1*
X2008626Y2789714D1*
X1470413Y2577987D2*
X1465605Y2575610D1*
X1460852Y2570802D1*
X1458420Y2566049D1*
X1456043Y2558864D1*
Y2546870D1*
X1458420Y2539740D1*
X1460852Y2534932D1*
X1465605Y2530179D1*
X1470413Y2527747D1*
X1479975D1*
X1484728Y2530179D1*
X1489536Y2534932D1*
X1491913Y2539740D1*
X1494290Y2546870D1*
Y2558864D1*
X1491913Y2566049D1*
X1489536Y2570802D1*
X1484728Y2575610D1*
X1479975Y2577987D1*
X1470413D1*
X1509729D2*
Y2527747D1*
X1538414D1*
X1584915Y2577987D2*
X1553853D1*
Y2527747D1*
X1584915D1*
X1553853Y2554055D2*
X1572976D1*
X1600354Y2577987D2*
Y2527747D1*
X1617100D1*
X1624285Y2530179D1*
X1629094Y2534932D1*
X1631471Y2539740D1*
X1633847Y2546870D1*
Y2558864D1*
X1631471Y2566049D1*
X1629094Y2570802D1*
X1624285Y2575610D1*
X1617100Y2577987D1*
X1600354D1*
X1697887D2*
Y2527747D1*
X1726572D1*
X1777881Y2566049D2*
X1775505Y2570802D1*
X1770696Y2575610D1*
X1765943Y2577987D1*
X1756382D1*
X1751573Y2575610D1*
X1746820Y2570802D1*
X1744388Y2566049D1*
X1742011Y2558864D1*
Y2546870D1*
X1744388Y2539740D1*
X1746820Y2534932D1*
X1751573Y2530179D1*
X1756382Y2527747D1*
X1765943D1*
X1770696Y2530179D1*
X1775505Y2534932D1*
X1777881Y2539740D1*
X1793321Y2577987D2*
Y2527747D1*
X1810067D1*
X1817252Y2530179D1*
X1822061Y2534932D1*
X1824437Y2539740D1*
X1826814Y2546870D1*
Y2558864D1*
X1824437Y2566049D1*
X1822061Y2570802D1*
X1817252Y2575610D1*
X1810067Y2577987D1*
X1793321D1*
X1890854D2*
Y2527747D1*
X1908725Y2565993D2*
Y2568370D1*
X1911102Y2573178D1*
X1913478Y2575555D1*
X1918287Y2577932D1*
X1927849D1*
X1932602Y2575555D1*
X1934978Y2573178D1*
X1937410Y2568370D1*
Y2563617D1*
X1934978Y2558808D1*
X1930225Y2551679D1*
X1906293Y2527747D1*
X1939787D1*
X1991096Y2566049D2*
X1988719Y2570802D1*
X1983911Y2575610D1*
X1979158Y2577987D1*
X1969596D1*
X1964788Y2575610D1*
X1960034Y2570802D1*
X1957603Y2566049D1*
X1955226Y2558864D1*
Y2546870D1*
X1957603Y2539740D1*
X1960034Y2534932D1*
X1964788Y2530179D1*
X1969596Y2527747D1*
X1979158D1*
X1983911Y2530179D1*
X1988719Y2534932D1*
X1991096Y2539740D1*
X2241916Y2581735D2*
X2261040Y2557803D1*
Y2531495D1*
X2280163Y2581735D2*
X2261040Y2557803D1*
X2295602Y2572118D2*
X2300410Y2574550D1*
X2307596Y2581680D1*
Y2531495D1*
M02*
